<svg xmlns="http://www.w3.org/2000/svg" viewBox="0 0 850.11 850.46" xmlns:v="https://vecta.io/nano"><path d="M850.11 411.35v27.83c-.79.5-.48 1.82-.49 2.63-1.03 98.19-45.51 199.18-111.07 270.87-74.63 81.61-187.31 135.84-298.97 137.21-.81 0-2.13-.31-2.63.49-7.82-.18-15.7.24-23.51 0C198.85 843.78 20.78 678.3 1.71 463.89-20.12 218.4 169.65 6 415.57.12c231.97-5.54 427.95 179.39 434.54 411.23zM420.63 840.79V815.6c0-.45-4.94-5.92-5.13-7.45-57.11-1.75-121.53-17.84-141.45-78.22-11.85-35.92-6.29-73.86 8.77-107.79 4.19-9.43 15.26-24.97 9.12-34.86-2.02-3.26-5.57-4.74-1.68-9.27.89-1.03 12.09-10.49 12.91-10.84.99-.42 1.95-.43 3-.36.99-1-.45-.97-.95-1.43-2.33-2.16-4.9-4.09-7.22-6.24-19.54-18.13-34.94-40.41-45.66-64.82l-20.31-7.16c1.07 6.17 3.14 11.99 5.53 17.74 10.41 24.98 27.17 47.33 46.29 66.23-1.96-.78-4.01-2.37-5.72-3.63-11.26-8.36-22.18-20.2-30.18-31.72l-10.65-17.43v32.87c9.6 13.41 20.25 26.02 32.15 37.43-.5.81-1.05-.21-1.44-.48-11.62-8.08-21.29-18.07-30.71-28.55.22 6.14-.3 12.36-.02 18.49.12 2.56.41 8.69 1.26 10.74.57 1.36 6.39 7.39 7.87 8.93 3.21 3.36 6.66 6.46 10.09 9.59-.5.81-1.05-.21-1.44-.48-5.57-3.87-10.7-8.3-15.83-12.71.12 14.65 7.49 27.5 9.92 41.66.84 4.89 2.06 16.22.89 20.73-1.14 4.38-5.22 5.49-7.54.8-3.3-6.67-4.49-14.34-8.64-21.11-3.66-5.97-13.19-11.8-13.16-18.73 0-1.84 2.16-7.54 1.65-8.39-.45-.26-.97-.41-1.36-.78-42.43-41.06-68.07-98.94-67.18-158.37.03-2.07-.08-4.17 0-6.24.02-.58-.36-1.78.47-1.67 3.65 60.6 28.18 119.69 69.35 164.09 1.72-4.99.37-10.42-.96-15.35-1.64-6.08-5.07-17.66-7.56-23.14-1.48-3.24-5.22-7.23-7.27-10.48-19.92-31.59-31.85-67.43-31.57-105.18-21.02-18.88-38.24-41.49-46.94-68.7-1.86-5.82-4.59-14.68-4.33-20.66s3.18-12.39.12-18.31c-1.64-3.17-4.68-4.01-3.46-8.78 11.74 1.7 19.32-11.86 11.53-20.88-2.83-3.28-6.64-4.46-10.56-6.01 2.18-12.41 7.59-28.77 20.85-33.11 5.45-1.78 10.15.33 15.1-3.13 5.22-3.64 6.76-10.68 3.96-16.37-3.22-6.52-13.39-8.52-19.43-11.64l-.49-.62c-.86-4.51-1.12-9.41-2.5-13.79-2.73-8.68-9.82-14.39-12.28-23.71-2.08-7.9-5.14-20.5-6.11-28.43-.47-3.82-1.14-12.69 2.65-14.98 3.11-1.88 9.09-2 12.64-1.73 11.53-14.2 23.74-28.01 37.91-39.61l.53 4.57c-12.89 10.76-24.71 22.64-36.54 34.52-1.33 1.69 1.35 2.97 2.35 4.42 7.32 10.68 6.12 25.56 7.29 37.82 2.89 30.47 26.23 58.34 30.97 88.51 15.23 15.09 28.41 32.17 40.03 50.18l1.15.67c3.05-2.43 5.68-7 5.95-10.91.33-4.75-3.62-9.72-2.08-14.95 1.13-3.83 4.2-7.51 5.64-11.2 6.66-17.13-7.51-25.56-13.28-39.68-5.4-13.2-7.3-27.89-12.25-41.26l-1.91.96c-.28-1.18 1.33-1.36 1.23-2.43s-2.93-6.15-3.72-7.32c-2.79-4.14-5.99-6.89-10.8-8.4l-4.94 4.72 3.35-5.04c-.02-.76-7.07-2.86-6.71-5.27.29-1.49 4.23.43 5.15.6 1.5.27 3.11.13 4.61.54l2.2-3c-5.23-4.56-10.21-9.02-13.65-15.18l-12.22 12.48c-.13-.87.61-1.4 1.05-2.06 1.48-2.2 3.51-4.71 5.19-6.8 7.87-9.82 16.66-18.81 25.66-27.59l1.95 3.34c-4.81 4.63-10.09 8.83-14.92 13.43-.68.65-4.02 3.67-3.58 4.32L198.16 194l13.25-14.13 1.39-.17 1.28 2.83-14.15 13.25 12.2 16.97c36.92-44.14 91.15-74.63 148.35-82.94 10.69-1.55 24.74-2.98 35.46-2.49 2.01.09 3.93.77 5.97.51l-28.41 3.49c-54.73 8.97-105.52 33.36-146.74 70.15-1.79 1.6-13.92 12.85-13.83 13.83l9.6 18.73 1.36.79c24.11-32.77 59.83-58.23 98.13-71.98 25.93-9.31 53.24-13.52 80.86-12.46l-4.13.9c-52.31 3.94-102.93 23.76-143.89 56.21-11.04 8.75-21.64 18.58-30.97 29.01 7.04 13.61 14.17 27.09 23.81 39.06.52.64 2.41 3.37 3.09 3.21 2.28-.64 10.29-9.16 9.81-10.84-.15-.52-1.61-2.44-2.39-2.4l-2.16 2.4c.22-1.78 2.38-2.23 1.72-4.33-.32-1.01-2.92-3.64-3.76-4.92-2.4-3.68-3.94-6.52-4.96-10.88-.32-1.38.18-2.94-.93-3.86l-9.12 9.1-.23-.71 9.8-12.28c1.89-11.58 8.39-23.5 20.53-26.49 2.77-.68 6.55-.42 8.51-1.09 2.17-.74 11.43-8.11 14.46-10.01 30.97-19.44 67.14-29.85 103.85-29.54l6 .95c-41.42 2.96-82.48 16.25-116.6 39.82 5.63 1.87 10.34 5.82 13.43 10.83l.64.16c29.99-20.07 65.75-30.56 102.05-28.74-.09.7-2.09.81-2.7.9-4.41.62-8.89.87-13.3 1.58-29.7 4.76-58.64 15.07-83.84 31.45.39 3.13 1.34 5.8 1.01 9.05-.15 1.47-.88 2.42-.96 3.36-.25 2.95.32 5.94-.5 8.85l20.31-13.52c12.47-7.12 25.73-12.07 39.67-15.52 2.49-.62 5.84-.77 8.09-1.51 1.83-.61 4.76-3.97 7.28-5.19 6.23-3.01 18.64-4.4 25.64-4.59 2.48-.07 4.65-.03 6.92 1.04 1.98 3.11-7.27 6.59-9.53 6.66l1.91.95c-2.03-.5-10.78 1.13-10.03 4 .66 2.51 8.6 1.57 8.11 3.92-.45.76-.99.61-1.68.73-2.73.48-6.32.75-9.07.43-4.39-.52-7.69-4.03-11.8.3l-11.04 15.11c13.79-4.12 27.96-7.49 42.4-8.22l.79-1.13 4.24-117.48c-2.35-1.7-3.8-3.44-3.78-6.53h-5.24c-1.98 11.32-15.09 5.13-13.94-4.34l-15.36 1.92 1.26-2.81 14.1-.54c-1.21-9.46 11.97-15.61 13.93-4.34l5.26.02V86.1l-2.81.07c-2.27 9.95-14.25 6.04-13.98-2.94l-18.17 1.85-.54-2.09 18.24-1.21c.23-2.78.48-5.91 2-8.31 3.61-5.69 11.63-4.31 12.46 2.5l2.82.06V65.71c0-1.53 4.28-4.12 5.79-4.37V48.99C399.9 45 402.23 28.3 416.59 24.7c.5-5.01 1.72-10.83 7.2-12.47 8.62-2.58 11.66 5.92 12.3 12.84 14.32 2.69 16.34 20.79.94 23.66v12.84c2.84.56 5.82 2.03 5.72 5.3l3.06.04c.33-4.56 4.21-7.09 8.54-5.65 8.38 2.79 7.54 21.68-2.27 21.68-3.43 0-6.37-2.37-6-5.97h-3.36v14.39l5.22-.06c.48-2.65 1.71-5.17 4.64-5.67 10.34-1.75 11.59 12.86 7.41 19.16 3.86-.5 15.29 2.93 18.13 1.57.32-.15.6-.34.8-.63l6.54-34.29-.25-1.23c-2.15-1.12-13.04-.9-13.66-3.16l7.57-53.85C365.85-2.39 250.07 31.45 162.24 103.31 3.82 232.92-37.7 458.78 66.89 636.23c72.9 123.68 208.94 204.48 353.74 204.56zm62.72-780.8c.82-1.02 2.46-9.34 2.87-11.29 2.34-11.06 3.83-22.35 3.98-33.68-1.37 1.27-1.97 4.04-2.52 5.87-1.98 6.54-3.52 14.07-4.6 20.84-.77 4.82-.86 13.59-2.1 17.57-.37 1.2-4.63 4.65-5.17 5.87-.09.21-.12.79.23.71 1.69-1.92 5.88-4.12 7.3-5.89zm64.93-32.01l-28.55-7.22-12.76 51.56c-.69 1.09-2.37.83-3.58.77-2.99-.15-6.59-1.34-9.6-1.83l-.6.7-6.62 35.66c1.58 1.44 16.09 3.74 19.48 4.55 6.74 1.61 15.56 4.94 21.95 5.88 1.28.19 2.61.24 3.89.06l12.54-34.47-12.27-4.33 16.11-51.33zm-136.77 16.3c1.04-4.2 1.08-8.46.5-12.72-.1-.72-.07-1.48-.97-1.67l-.5 10.34.97 4.06zm146.36-12.95c-1.28-.26-.83.32-1.19.94-3.95 6.72-7.44 16.64-9.98 24.11-1.5 4.42-2.72 11.83-4.56 15.59-1 2.04-4.77 3.58-5.86 5.89 2.04-.93 6.18-3.1 7.64-4.59 1.79-1.83 5.66-12.73 6.76-15.79 3.06-8.48 5.84-17.22 7.19-26.16zM409.11 41.41c.56-2.82.97-5.92-.23-8.63-1.63 2.28-1.68 6.58.23 8.63zm35.03-8.64c-1.25-.14-.76.02-.97.7-.84 2.72-.39 5.22.02 7.94 1.25.14.76-.02.97-.7.84-2.72.39-5.22-.02-7.94zm164.54 19.25l-24.83-10.55-20.29 47.84c-1.99 1.22-9.81-3.07-12.37-3.27l-12.91 34.2c.46.98 1.39 1.55 2.32 2.02 6.28 3.2 15.51 5.8 22.4 8.79 3.4 1.47 9.62 5.3 12.62 6.09.98.26 2.5.53 3.38 0l17.27-31.7c.12-.89-.18-.57-.61-.82-1.8-1.04-9.45-4.01-9.76-5.6-.07-.34-.13-.66.02-.99l22.76-46.01zm-10.16 42.5c1.24-1.11 5.3-8.55 6.46-10.57 3.7-6.42 10.77-19.03 12.54-25.85.14-.55.48-1.85-.39-1.81-2.12.11-19.13 32.43-20.66 36.91l-6.93 5.07c.31.63 1.31.04 1.78-.14 1.11-.44 6.59-3.05 7.2-3.6zM458.06 70.67c2.03-8.1-9.64-12.82-11.03-3.84.86-.34.99-1.52 1.88-2.19 2.29-1.73 5.68-.84 7.15 1.55l1.99 4.48zm45.11-6.72c-1.43-2.83-2.96-.68-1.19 0 .28.11.82-.04 1.19 0zm137.47 5.78l-27.45 43.59c-2.24.63-7.43-3.96-9.74-4.54-.52-.13-.81-.24-1.22.24l-17.88 31.07c-.09.88.73 1.78 1.36 2.31 3.27 2.73 10.71 6.08 14.81 8.7 5.82 3.72 11.49 7.72 17.15 11.67L672 91.94c.37-1.35-3.91-3.99-5.07-4.85-8.42-6.24-17.52-11.65-26.31-17.35zm-235.37 6.22c-1.33-9.27-13.2-3.22-11.03 4.32l2.19-4.76c1.52-2.06 3.4-3.02 5.99-2.21 1.57.49 1.77 1.9 2.85 2.66zm27.82 26.87l4.81-27.34c-.69-.12-.65.83-.81 1.34-2.56 8.17-3.29 17.45-5.41 25.78l1.42.23zm-11.02 9.12L418 90.82l-4.08-14.87c1.51 11 3.84 22.05 6.85 32.73.25.88.54 2.81 1.3 3.25zm139.64-32.15l-1.2-1.43c-1.31.91-.18 1.61 1.2 1.43zM460.45 95.62c1.22-5.24-4.06-11.72-9.28-8.08-1.35.94-1.91 2.07-1.75 3.76 1.08-.76 1.28-2.17 2.85-2.66 2.73-.85 4.67.28 6.19 2.5l1.99 4.48zm216.72-.44l-54.43 69.85c-.21 1.06 2.01 3.02 2.79 3.77 5.29 5.06 13.24 11.83 18.97 16.54 3.13 2.57 6.11 3.48 9.7 5.22l25.04-24.23c.22-1.25-7.23-6.44-7.17-8.61l.24-1.14 34.26-36.34-.64-1.62c-3.34-2.57-26.97-23.89-28.78-23.44zm-273.82 5.24c-1.74-8.9-12.41-4.49-11.51 3.36 1.36.25.79-.33 1.08-1.05 2.29-5.7 6.21-7.86 10.43-2.3zm13.44 12c-.67-2.82-1.35-5.69-2.38-8.41-.28-.73-.66-2.4-1.44-2.63.64 3.68 1.5 8.03 3.83 11.03zm31.12-10.97h-4.41l-.58.38-.21 1.46 5.76.48-.55-2.33zm165.62 2.33c.49-.5-.95-1.92-1.43-1.43s.95 1.92 1.43 1.43zm-180.9 1.45c-1.37-1.47-2.17 5.63-1.91 6.23l1.91-6.23zm5.75-.01c-1.24-.23-.85.22-1.18.95-.84 1.85-1.12 4.27-1.69 6.24 1.68-1.77 2.44-4.86 2.87-7.19zm11.28.48c-1.91-.39-4.9.29-6.96 0v7.44c0 1.38-3.77 3.24-3.86 4.31l4.36 108.9c.08 1.7-.45 9.05.43 9.65l32.44 5.99c.83-9.49 3.15-18.89 7.81-27.21 1.1-1.96 5.25-7.02 5.64-8.29.62-2-.93-3.49.74-5.96.86-1.27 1.83-1.08 2.82-1.99-12.39-18.01-2.93-44.14 12.47-57.09 20.59-17.33 51.95-1.58 56.03 23.16.28 1.68-.24 4.05.37 5.39.5 1.09 9.91 7.49 11.76 9.35 5.38 5.4.06 5.42-3.79 8.7 1.34 5.08 3.7 10.6 4.2 15.84.49 5.12.43 7.37-3.91 10.37-5.23 3.62-11.12 3.37-17.15 2.77l.08 4.72c1.66 1.26 3.63.75 5.31 1.16 12.53 3.08 19.86 12.7 29.41 20.5 8.76 7.14 18.2 13.53 27.34 20.16.81-.51-.2-1.05-.49-1.43-7.26-9.48-16.41-18.54-25.18-26.64l.71-.23c9.89 7.39 19.43 15.39 27.85 24.46 3.73 4.02 7.68 10.18 11.27 13.68a5.71 5.71 0 0 0 1.91 1.2c.12-2.3-.15-4.65 0-6.95.35-5.21 2.38-12.13 2.42-16.83 0-.57.06-1.12-.27-1.64-9.07-10.95-18.78-21.34-29.03-31.19 2.21.86 4.31 2.68 6.19 4.12 8.51 6.54 16.25 14.18 23.81 21.78.62-3.46 2.7-14.96 1.43-17.74-.37-.82-5.28-3.96-6.48-5.04-3.87-3.47-7.78-8.16-7.74-13.61-.21-.34-6.85-1.42-7.86-1.5-4.64-.35-10.28.86-14.79 1.91-.37.09-.3.95-.6.96-1.36.08-5.42-2.83-6.67-3.86-5.54-4.56-6.26-12.84-1.46-18.23 3.22-3.62 8.26-4.44 12.89-4.74 1.25 1.95 3.62 2.27 5.35 3.78 1.12.99 1.35 2.08 2.78 2.98 3.17 2.02 7.88 2.43 11.38 3.74.44-6.19 3.86-10.89 10.56-9.12l-1.19-1.92c2.87 2.21 5.68 3.5 9.35 3.84-45.56-43.09-106.56-69.24-168.74-77.18-4.03-.51-9.47-1.48-13.37-1.55-2.02-.04-3.86 1.11-5.63.91-1.48-.17-3.1-1.65-3.97-1.83zm224.82 52.78l10.53-2.17c6.3-5.94 12.87-11.84 18.75-18.2 1.28-1.39 10.04-11.23 10.06-12.01 0-.31-.7-.88-1.44-.49-1.19.63-5.39 4.56-6.72 5.76-8.11 7.36-15.3 15.79-22.78 23.76l-8.4 3.35zM433.58 533.7l-.46-203.7-1.96-144.87-.7-50.65-.26 70.32 2.4 295.09c.01 1.13.51 2.18.52 3.32.11 9.53-.41 19.34-.02 28.81.02.58-.36 1.78.47 1.67zm-13.91-3.36l2.64-394.9c-.8 16.87-.47 33.73-.7 50.65l-2.44 223.55.02 119.02.47 1.67zm16.8-386.25v-8.16h-.48v8.16h.48zm-22.08 91.17l1.68-95.97c-.56 8.08-.42 16.17-.7 24.26l-2.44 62.34c-.09 3.12.1 6.26.02 9.38h1.44zm262.92-20.21c-.48.41-4.52-.71-4.23 1.19 2.02 1.97 7.15 10.9 9.42 11.26.67.11 1.21-.08 1.74-.47l28.14-21.32c.37-1.55-7.94-8.31-5.06-10.79l40.09-32.36-16.55-18.49-38.16 34.35-.96.04-7.87-7.48-24.04 23.51.76 7.16 14.05 2.98c1.21 1.99 1.67 2.54 3.97 3.26l-1.29 7.17zm-238.92 20.68c2.35-.07.95-2.22.93-3.58-.21-23.37-1.06-46.75-1.88-70.09-.04-1.14-.49-2.18-.52-3.32-.03-1.19.39-12.26-.22-12.26-.34 6.61-.36 13.31-.26 19.94.24 15.61 1.11 31.38 1.48 46.98.18 7.45-.42 14.93.46 22.33zm256.25-66.21l.94-.72-.47-1.2-.94.72.47 1.2zm14.39 27.82c2.87-.52 6.64-.07 9.33-.5 2.85-.45 20.67-14.45 24.01-17.26 2.2-1.86 8.22-6.66 9.63-8.6.47-.65.89-1 .69-1.94-9.62 5.54-18.45 12.29-27.1 19.2-1.73 1.38-6.57 6.31-7.94 6.93-1.11.5-4.12.7-5.66 1.06-.77.18-2.71.34-2.96 1.11zm58.31-7.55l-43.1 29.27c-3.63 1.46-5.22-5.45-7.3-7.31-.44-.39-.66-.68-1.32-.41l-28.7 20.77c-.4.41-.48.92-.49 1.46-.01 1.73 6.52 10.92 7.92 13.24 3.91 6.52 7.41 13.28 11.53 19.67l.97.43 80.66-44.61-.16-1.29c-2.24-3.55-18.17-31.08-20.02-31.22zm-271.37 39.23c.8.7 8.8-5.53 10.02-6.53 1.63-1.33 6.38-5.11 7.27-6.64.97-1.67.43-3.79-.49-5.35-4.49 1.01-7.56-.94-11.26-3.07-.56 2.61-5.25 2.65-5.8 3.34-.29.37-1.11 4.71-1.18 5.54-.38 4.41.26 8.5 1.44 12.71zm231.77-19.67h-.95v1.43h.95v-1.43zm9.6 189.52c-4.12-58.39-23.51-115.09-57.19-162.81-2.23-3.16-14.92-20.46-17.07-21.32-1.6-.64-4.14-.45-5.87-1.08.81 2.56.6 5.05-.39 7.53-.53 1.33-1.74 2.3-1.99 3.77s.14 7.11.55 8.52c.29.98 11.03 13.65 12.77 16.02 29.94 40.84 47.01 91.21 47.17 142.12l22.01 7.25zM365.92 225.66c-17.2 4.95-33.8 11.9-49.09 21.2-4.68 2.85-13.68 8.27-17.36 11.91-2.94 2.9-4.22 7.07-7.92 10.32-4.96 4.35-13.25 5.16-15.14 11.73-.91 3.15-.69 8.42 1.47 11.06.58.71.45.36 1.04.09 1.72-.77 4.31-3.21 6.25-4.32 5.36-3.06 11.83-4.52 16.72-7.27 3.2-1.81 7.36-6.18 10.62-8.57 5.18-3.8 11.63-7.19 16.44-10.91s9.29-9.43 13.94-13.41c6.32-5.4 13.56-9.6 18.97-16.06l4.07-5.76zm425.42 2.93l-81.38 43.34c-.27.29-.41.63-.46 1.02-.21 1.52 6.18 14.01 7.3 16.68 2.67 6.38 4.85 12.96 7.59 19.31l34.36-12.73-3.11-10.73.72-.75 51.33-21.14c.42-.51.1-.95-.01-1.46-.62-2.72-3.79-8.8-5.13-11.69-3.44-7.4-7.35-14.66-11.2-21.85zm-376.95 7.15c-1.26-1.45-1.87 4.53-1.91 5.04-.3 4.03.15 8.41.01 12.49l-7.24 266.74c-.1 4.06-.08 8.22.26 12.26l8.87-296.53zm32.63 293.16l-2.85-140.84-3.36-121.39c-1.52-8.82.24-19.6-.95-28.31-.14-1-.41-1.76-1.46-2.13l8.63 292.69zm266.81-138.19c-5.17-53.28-24.4-105.49-57.1-147.78l5.98 39.35c17.26 29.75 27.77 63.51 29.6 98.04 6.65 4.19 14.24 7.25 21.51 10.39zm-305.19-144.9c-14.07 1.19-28.16 4.15-41.52 8.63-3.71 1.25-12.47 4.15-15.35 6.25-3.19 2.32-7.75 9.03-10.79 12.25-13.25 14-30.06 24.39-45.75 35.34-1.48 1.03-7.41 4.94-7.49 6.36-.05.91.82 2.6.92 3.87.28 3.62.06 6.89-2.01 9.98-9.76 14.2-23.8 27.45-33.21 41.64-2.33 3.51-3.07 7.99-4.03 12.08 5.06 7.94 9.13 16.64 13.27 25.13 9.58 19.64 23.92 46.83 29.47 67.46 1.31 4.86 2.46 7.71-.41 12.32-5.6 8.99-19.73 9.96-29.22 9.15-1.44-.12-3.17-.52-4.56-.95-.85 1.14 8.12 18.03 9.51 20.47 9.1 16.02 21.76 31.87 35.34 44.31 1.89 1.73 12.02 10.55 13.58 10.94 2.63.65 6.35-4.01 7.7-6 11.86-17.43 15.25-65.65 8.59-85.18-2.03-5.96-6.26-12.77-13.46-12.33-3.49.21-6.94 3.35-10.13-.54-.73-.89-3.74-8.22-3.98-9.45-1.01-5.19 4.79-8.63 6.09-13.32-6.37-13.08-8.93-27.77-10.04-42.23-1.28-16.83-2.03-35.77 2.64-52.05 12.84-44.83 61.17-64.51 103.86-68.64l.99-35.49zm52.78 2.88l-17.75-2.88 1.44 34.54 6.94-19.2c2.57-4.55 5.24-9.12 9.37-12.46zm347.9 23.03c-11 2.63-21.56 6.68-32 10.95-2.82 1.16-8.02 4.31-10.59 4.78-1.59.29-3.02-.32-4.65-.4-.78-.04-3.28-.35-3.62.5 3.33 0 6.86 2.29 10.09 1.72 8.92-1.59 31.24-11.51 39.34-16.34.52-.31 1.32-.49 1.43-1.21zM402.88 558.65h-10.8c-1.67 0-3.31-3.32-3.16-5.04.16-1.81 2.45-4.07 4.12-4.07h10.32l1.47-55.85c-.21-.75-10.02-1.29-11.78-1.74-.67-.17-1.5.02-1.68-.95l8.66-1.24 7.18-202.69c-18.68 1.13-36.82 6.74-53.74 14.4-.11.89 1 .42 1.45.25 7.51-2.72 14.03-5.5 21.97-7.31 6.62-1.5 16.21-3.32 22.89-3.03.58.03 1.78-.37 1.67.47-34.27 6.25-74.26 23.48-85.9 59.25-6.47 19.86-4.88 59.11.84 79.31 1.6 5.64 4.93 8.7 1.48 14.66-1.06 1.83-7.41 9.91-7.42 11.12l3.02 6.92c13.59-4.37 22.72 5.88 25.13 18.27.83.12.5-1.12.43-1.62-1.15-7.79-4.57-15.68-10.51-20.92 7.19 2.87 11.36 11.32 13.56 18.34 7.7 24.54 4.08 78.66-14.03 98.5-1.08 1.19-3.07 3.45-4.81 3.35 4.28-4.63 8.4-11.81 9.86-17.97.12-.49.63-1.57-.26-1.46-4.21 11.73-15 24.1-27.12 12.57L295 581.5c3.13 5.25 5.1 11.37 4.13 17.57-1.18 7.52-10.65 23.37-14.03 31.56-8.71 21.11-12.98 42.96-11.76 65.95l1.91 6.96c-2.18-23.98 1.98-48.07 11.92-69.9l13.52-26.54c-2.72 9.23-7.49 17.74-10.91 26.75-9.88 26.02-13.42 53.63-7.47 81.12 2.2 10.16 4.83 14.71 11.66 22.41 14.28 16.13 33.67 27.43 53.99 34.3 5.29 1.79 12.96 4.31 18.37 5.15.51.08 1.67.51 1.55-.36-11.85-3.46-25.22-8.64-35.38-15.73-.22-.15-1.51-.78-.84-1.08 20.04 7.87 41.41 11.41 62.86 12.95l18.95.49.02-60.72c-1.1-15.07-7.08-29.11-9.96-43.78-1.49-7.61-2.26-15.38-2.54-23.13l-10.08-.96c-.11-.68.85-.69 1.33-.82 3.23-.81 7.31-.96 10.66-1.1v-83.97zm176.44-268.54c-.51-.41-2.82-1.46-3.2-1.11l-4.72 20.78c35.4 46.83 45.75 108.47 29.43 164.92-.88 3.03-3.27 8.08-3.59 10.81-.12 1.06.4.72 1.18.7 5.14-.17 15.06-2.78 20.5-3.98 10.48-2.32 20.87-5.06 30.89-8.95-.08-5.45-1.67-11.05-2.18-16.58-1.89-20.28-.08-41.34 4.55-61.18 2.53-10.85 6.39-21.28 9.79-31.86l1.97-.51c-4.3-18.62-10.69-36.65-18.79-53.91-7.57.71-14.34-2.65-21.52-4.39 14.59 25.23 23.74 54.33 23.49 83.74l.4 2.38-.86 8.87c-2.18-24.91-8.12-49.9-18.16-72.77-2.6-5.93-5.86-12.65-9.12-18.23-.85-1.46-3.09-5.67-4.26-6.3l-27.01-8.73 10.47 13.76c18.28 26.49 27.21 57.34 26 89.64-.02.58.36 1.79-.47 1.67-3.63-34.09-14.76-66.48-34.16-94.67-2.09-3.03-8.24-12.16-10.62-14.09zm-129.9 259.43h9.84c.26 0 2.55 1.11 2.89 1.42 2.28 2.05 1.05 7.69-1.46 7.69h-11.28v83.25c.31.49.66.62 1.2.72 2.82.51 6.2.4 9.11.97.7.14 1.49 0 1.68.95l-10.08.96c.77 23.99-10.83 45.7-12.49 69.32l.02 57.36c40.66-2.64 90.16-13.06 106.41-55.54 8.13-21.26 6.59-44.08 1.89-65.94-.82-3.83-2.09-7.56-2.73-11.42 2.27 2.83 3.93 6.84 5.36 10.23 9.02 21.37 12.92 45.4 7.08 68.18-1.03 4.03-2.64 7.82-3.8 11.79l2-3.51c15.94-37.74 3.58-81.97-16.49-115.63-10.23-17.16-24.66-31.91-31.59-50.94-9.09-24.96-10.53-70.62.56-94.94 1.56-3.42 3.76-6.45 5.21-9.9-6.26 7.86-10.17 17.43-13.08 26.98-1.69 5.57-2.53 11.53-4.17 16.94-.19.64-.04 1.49-.98 1.66-.46-15.69 1.21-30.91 7.74-45.28 4.44-9.76 11.11-18.1 14.82-28.37 6.6-18.27 9.3-55.18 3.6-73.67-8.18-26.51-34.04-43.08-58.31-53.26-.12-.85 1.09-.48 1.62-.42 7.99.88 16.17 4.56 23.81 6.66.99-.74-12.87-6.25-13.8-6.59-9.2-3.41-18.79-5.96-28.43-7.8l6.93 198.19 8.91 1.42c-.2.96-.99.81-1.68.95-1.67.32-11.58 1-11.78 1.74l1.47 55.84zm377.65-229.85c.5-.52-2.29-9.83-2.74-11.39-.52-1.81-3.92-13.3-4.73-13.51l-54.58 17.66c-1.4-.44-2.94-7.59-3.64-9.35-.21-.54.32-.78-.73-.66l-34.12 12.45-.24.73c2.01 6.74 3.81 13.57 5.54 20.39.66 2.61 3.23 15.85 4.31 16.8.45.4.82.57 1.43.52l34.8-7.72c.09-2.18-3.12-10.63-1.34-11.9l56.03-14.02zm-137.72 59.03c-3.1-23.79-9.94-47.92-19.59-69.89-1.52-3.46-3.82-8.96-5.75-12-.27-.42-.45-1.07-1.05-1.11-.02 7.2-6.15 10.34-11.93 12.7 8.61 18.31 14.73 37.83 17.3 57.98 6.65 4.64 13.66 8.89 21.02 12.33zm83.02-74.85c-.48-.49-1.93.94-1.43 1.43s1.93-.94 1.43-1.43zM596.2 486.62c20.2-56.34 10.26-122.83-26.8-169.79-2.41 8.59-4.84 17.21-7.67 25.68-2.04 6.09-5.58 17.97-8.5 23.13-.44.78-1.39.86-1.54 1.39-.17.59.45 1.89.46 2.8.24 19-.22 42.08-5.44 60.34-.85 2.97-5.17 12.34-5.16 14.06.03 3.32 5.97 7.97 6.09 11.58.04 1.32-2.78 8.7-3.58 10.1-3.25 5.73-7.52 1.39-11.83 1.57-8.07.33-11.9 9.55-13.56 16.23-4.62 18.65-2.16 71.44 12.87 85.22 8.52 7.81 10.49-5.46 18.16-1.36 1.88 1.01 7.42 7 8.71 6.72 1.72-.38 11.33-10.94 13.39-12.74-1.07 2.55-2.94 4.95-4.6 7.15-1.98 2.62-4.17 5.14-6.4 7.55-.18 1.07 4.38 3.11 2.48 7.73-.41 1-1.67 1.66-2.25 2.55-2.85 4.38-2.76 10.49-1.22 15.33l1.43-.25c8.68-7.19 17.74-14.33 24.92-22.95-21.63-26.32-33.23-59.52-37.82-93.08l1.1-.77c15.51 1.68 31.2 3.98 46.77 1.83zm228.96-158.28c-11.1 1.22-21.94 3.63-32.73 6.37-3.03.77-8.02 2.96-10.75 3.2-2.27.2-4.52-1.1-6.71-1.37-.52-.06-1.74-.41-1.62.43 4.04.98 6.31 3.18 10.74 2.83 9.77-.78 28.16-5.94 37.5-9.53 1.14-.44 2.94-.84 3.59-1.92zm-51.35 23.51l-34.08 6.95-2.15 1.21c-.3.52-.26 1.08-.25 1.66.05 4.69 2.16 12.71 2.83 17.85.69 5.27.74 11.07 1.56 16.19.16.98.49 2.99 1.39 3.44l35.68-2.74.66-.63c-.09-1.58-1.63-10.92-.02-11.31l58.69-6.23-3.36-25.44-57.35 9.65c-3.26-.29-2.87-7.99-3.59-10.6zm10.56 2.88h-.95v1.92c.95-.26 1.08-1.02.95-1.92zm-46.55 25.67v18.95h1.92c.07-7.39-1.34-14.72-1.92-22.07-1.36.38-.02 2.64 0 3.12zm95.97 6.48c-9.55-.16-19.05.02-28.55.96-4.46.44-11.94 2.42-15.85 2.31-2.71-.07-5.55-3.09-8.39-2.56 2.7.73 5.4 3.91 8.03 4.45 1.91.39 5.49.19 7.59.13 10.5-.29 21.08-2.03 31.43-3.6l5.74-1.69zm-53.74 19.67c-.1-1.39.64-3.6-1.2-3.84l-17.51.96 5.58 1.37 13.13 1.51zm60.94 5.76l-32.65 1.18-11.48 34.09 43.2 2.91.93-38.18zm-524.02 31.66c2.01-6.08-3.95-11.23-5.28-17.02l-3.35-12.24c.26 5.79 2.01 11.35 3.49 16.89l5.13 12.37zm356.31-13.91h7.2c3.42 0 9.4 1.78 12.57 3.27 3.49 1.64 6.36 4.43 9.98 5.85 1.23-.82.46-2.32.11-3.47-1.79-5.84-8.29-12.22-14.5-12.84-5.29-.53-13 1.47-16.09 5.99l.74 1.2zm71.63 11.17c-2.59.28-7.02 1.84-9.17 3.3-.84.57-3.85 2.94-2.25 4.01 7.36.05 14.91.96 21.54 4.37 2.19 1.13 9.77 8.67 9.15 2.39-.78-7.89-11.58-14.89-19.27-14.07zM211.4 551.93c-1.96-12.94-3.36-25.97-2.88-39.1-2.52-17.08-10.26-32.89-16.38-48.88l-14.32-10.86c3.95 33.15 14.14 65.43 30.62 94.37l2.96 4.47zm628.13-94.5l-45.49-3.3c-6.87 15.01-15.95 28.97-26.47 41.66l6.49.99c.65-1.96.8-10.97 3.3-11.03l57.87 9.57 4.29-37.89zM733.5 493.4c-4.78-.18-9.4 1.61-14.14 1.94-11.78.8-19.74-1.74-28.58-9.37-1.15-.99-8.87-9.63-10.07-8.4-.28 10.09 6.9 20.96 15.21 26.29.69.44 3.33 1.46 3.43 1.62.84 1.37-1.14 2.03 3.18 2.33 9.38.65 19.65-2.67 26.88-8.67.92-.77 5.2-4.61 4.09-5.75zm95.01 9.6c-6.94-2.1-13.98-4.07-21.09-5.54-5.84-1.2-18.16-1.96-22.68-3.71-1-.39-5.6-4.66-6.13-4.18 2.56 2.91 3.82 5.61 7.68 6.96 9.69 3.37 28.29 6.3 38.64 6.95.78.05 3.26.41 3.59-.47zm-421.8 46.54h10.56l.48-55.66c-2.94-.14-5.98.39-8.84-.42l-2.2 56.08zm35.75-55.66c-2.36.24-5.04-.18-7.44 0l.48 55.66h10.08c-.19-18.71-.92-37.49-1.44-56.14-.7-.28-1.34.44-1.68.48zm-21.35 55.66h10.56l-.73-55.67c-2.94.83-6.39.7-9.35 0l-.48 55.66zm351.74-46.06l-10.55-2.18c-7.34 7.85-15.45 14.81-24.52 20.6-1.7 1.09-8.77 4.49-9.44 5.2-.78.83-1.98 6.02-1.33 7.09l34.55 12.48c.57 0 2.31-9.98 3.93-10.51.42-.14.87-.11 1.3-.05l54.04 17.26 6.67-24.42-55.59-14.23c-2.64-1.09 1.34-10.71.94-11.25zm8.64 6.71c-.48-.49-1.93.94-1.43 1.43s1.93-.94 1.43-1.43zm-114.28 3.41c-6.07 2.65-11.41 2.94-17.94 2.85-.51 0-5.81-1.16-5.01.69.58 1.34 4.9 4.46 6.38 5.14 7.42 3.38 14.81 2.21 20-4.17l-3.42-4.51zm-51.28 9.07c-.83-.83-7.84 3.35-9.27 3.92-5.78 2.32-9.75 2.48-15.94 2.33-1.74-.04-3.17-.98-5.02-.01-1.31 1.95 6.5 6.08 8.02 6.6 10.28 3.52 20-2.6 22.21-12.85zm-32.14 183.77c8.14-3.87 15.91-8.76 23.38-13.81 47.69-32.21 84.65-79.09 106.89-132.07 1.56-3.72 12.29-30.75 11.29-32.13-8.23 3.64-17.86 6.37-26.87 5.28-2.33 17.06-6.81 34.2-15.28 49.27-7.37 13.11-20.78 28.46-36.8 29.9-8.53.77-16-1.6-23.91-4.26-12.19 15.56-26.35 29.48-42.11 41.44l-.35 1.33c1.94 5.2 1.99 11.21 3.29 16.45.11.43-.28 1.02.7.72 1.37-.42 7.81-5.12 9.52-6.32 18.47-12.95 34.76-28.69 50.23-45.01l-5.56 8.11c-15.24 19.12-33.46 35.76-53.69 49.48-.89 2.44.19 5.09.26 7.41.1 3.57-.47 8.18-.02 11.54.09.67-.26.83.71.71 28.27-16.83 53.25-38.33 75.58-62.37-.86 2.21-2.68 4.31-4.12 6.19-19.47 25.32-44.95 46.62-72.2 63.12-1.53 1.24-.8 3.33-.93 5.06zm175.63-154.02c-4.49-.48-32.71-13.06-34.53-12.26-.56.25-1.02 1.05-1.33 1.58-2.22 3.69-4.74 12.75-6.62 17.37s-4.93 9.9-6.35 14.28c-.36 1.12-.97 2.31-.36 3.49l82.02 43.14c6.23-11.29 12.05-22.88 16.59-34.96l-51.82-21.37c-1.91-2.14 2.56-8.46 2.4-11.28zm55.18 7.68c-5.64-2.47-11.25-5.04-17.02-7.21-6.57-2.47-19.22-5.04-24.37-7.78-.7-.38-5.8-5.5-6.11-5.17l4.6 6.68c12.14 4.86 28.26 12.49 41.29 13.9.53.06 1.73.43 1.62-.42zm-397.33-1.45h-10.56v83.49l10.56-.48v-83.01zm14.4 0h-10.56v83.01c3.47-.72 7.1-.71 10.56 0v-83.01zm3.84 83.01c1.99.04 4-.07 5.99 0 .73.03 4.56 1.19 4.56-.24v-82.05l-.72-.72h-9.84v83.01zm331.58-80.61c-.28-.28-1.43.4-1.43.72 0 1.33 2.15 0 1.43-.72zm-95.97 17.75c1.05-.96-4.47-6.29-5.27-6.96-9.47-7.98-23.44-11.78-34.52-4.75-7.01 4.45-14.92 14.7-14.91 23.23.66.74 10.16-7.26 11.36-8.07 11.26-7.53 19.21-8.32 32.39-5.7 3.67.73 7.15 2.46 10.94 2.25zm-84.16 1.47c-7.46 9.44-15.38 18.54-24.73 26.18l7.89 16.51c11.47-8.15 22.1-17.51 31.89-27.62l-15.05-15.06zm201.73 46.05l-80.93-44.04c-1.46-.21-2.73 2.41-3.43 3.58-2.37 3.96-4.34 8.44-6.73 12.46-1.67 2.82-9.88 14.85-10.15 16.75-.12.82-.19 1.74.47 2.36l29.03 20.82 6.81-9.01 45.01 29.61c7.38-10.29 14.33-21.16 19.91-32.53zm-185.7-30.24c-8.44 11.94-19.35 22.2-30.67 31.5l6.43 17.43c15.09-11.11 29.5-23.17 42.45-36.73l-18.2-12.2zm80.45 25.53c-.71.36-1.39.83-1.95 1.39-3.63 3.62-8.26 11.13-11.82 15.53-1.76 2.17-10.95 11.87-11.03 13.49-.02.41 0 .79.24 1.14l25.98 24.93c2.67-.79 6.73-8.59 9.28-7.42l38.16 34.32 16.55-18.94-40.82-32.62c-1.59-2.41 6.11-8.74 5.11-10.33l-29.7-21.49zm80.77 44.52c-7.67-7.72-16.78-13.95-25.76-20.06-2.54-1.73-7.55-4.05-9.51-5.84-2.15-1.95-2.7-5.78-5.03-7.68 1.12 2.4 1.77 6.08 2.98 8.29 1.88 3.41 21.14 16.31 25.55 19.07 3.62 2.27 7.75 5.01 11.77 6.22zm-360.03-19.6c-2.24.62-1.59 4.97 1.24 4.18 2.24-.62 1.59-4.97-1.24-4.18zm14.39-.01c-2.62.76-1.48 4.95 1.24 4.19 2.27-.63 1.54-4.99-1.24-4.19zm13.22.54c-2.11 2.09 1.97 5.25 3.48 2.76 1.4-2.3-1.65-4.58-3.48-2.76zm17.51 3.12c2.07-2.09-1.03-5.19-3.12-3.12-1.86 1.84 1.28 4.97 3.12 3.12zm269.32 3c-.48-.49-1.93.94-1.43 1.43s1.93-.94 1.43-1.43zm-64.9 3.9c-6.12 4.94-11.67 10.78-17.62 16.02-2.04 1.79-11.32 8.68-11.82 10.3-.11.37-.25.7-.1 1.09l21.98 28.45c.52.44.91.22 1.43-.02 2.15-.96 7.1-7.34 9.61-5.77l32.66 38.45 18.65-16.78-34.64-36.43c-1.89-2.59 6.84-8.2 6.84-9.22l-26.99-26.09zM418.71 788.97c1.47-14.42 1.2-28.94 1.42-43.44.28-17.5 2.07-35.49-3.1-52.52l-7.43-22.07c.83 8.81 4.01 17.16 5.61 25.81 3.07 16.59 1.24 35.18 1.56 52.18.2 10.8.94 21.82 1.45 32.61.09 1.91-.07 3.84 0 5.76.02.58-.36 1.78.47 1.67zM693.2 674.29c.35 2.86.76 7.45 2.39 9.84 2.12 3.11 10.26 10.5 13.43 13.44 5.39 5 11.16 9.73 17.04 14.14.58-.52.92-.6.49-1.44-.16-.31-3.02-3.45-3.6-4.08-7.92-8.82-17.46-16.7-26.41-24.45l-3.35-7.44zm-73.53 14.02c-1.24-.43-2.31-.04-3.43.45-3.88 1.7-11.52 8-15.71 10.68-2.62 1.68-15.81 8.83-16.52 10.37-.17.38-.34.72-.25 1.15l44.38 77.06 33.76-21.36-29.19-41.76c0-1.57 6.94-6.14 8.63-6.97l-21.68-29.62zm64.4 5.18h-1.43v.95h1.43v-.95zm-.96 58.05c.74-.69-8.84-13.47-9.88-14.82-4.9-6.37-10.26-12.45-15.76-18.31l-2.18-8.61c.08 3.25-.28 7.69 1.03 10.72 1.05 2.44 6 8.33 7.89 10.82 3.85 5.04 12.21 16.02 16.96 19.5.66.48.97.9 1.94.7zm-62.38 40.78l-39.11-72.44c-2.3 6.27-3.87 12.74-6.55 18.88-3.48 7.98-8.22 15.39-13.37 22.37l1.21.46 20.41 48.01 37.4-17.27zm22.56-64.29c-.9-.12-1.66 0-1.92.95h1.92v-.95zm-68.63 85.41c-1.76-10.29-5.95-20.47-9.99-30.07-1.43-3.39-5.03-9.04-4.89-12.37.07-1.73.75-4.04.91-5.83.05-.54.44-1.72-.42-1.61-.16 2.83-2.51 6.46-2.8 9-.37 3.3 7.98 23.48 9.91 27.79 1.85 4.13 3.81 8.26 6.09 12.16.37.63-.08 1.21 1.19.94zm-39.35-29.27c-7.96 4.03-15.77 8.73-24.45 11.05l8.14 35.01 28.31-7.2-12.01-38.86zm-31.67 13.91l-3.8 1c1.39 9.33 3.7 18.6 6.68 27.56l2.4 5.51c.18-11.56-3.03-22.83-5.28-34.07zm-72.93 42.71c15.91.24 31.75-1.21 47.53-3.1l-4.07-31.47-1.47-.49-36.15 2.52c-.93 3.33-3.53 5.54-5.35 8.33l-.49 24.22z" fill="#033249"/><g fill="#fff"><path d="M420.63 840.79c-144.81-.08-280.84-80.88-353.74-204.56C-37.7 458.78 3.82 232.92 162.24 103.31c87.83-71.86 203.61-105.7 316.88-90.16L471.55 67c.62 2.26 11.51 2.03 13.66 3.16l.25 1.23-6.54 34.29c-.21.29-.49.48-.8.63-2.84 1.36-14.27-2.07-18.13-1.57 4.18-6.3 2.92-20.91-7.41-19.16-2.94.5-4.16 3.03-4.64 5.67l-5.22.06V76.92h3.36c-.37 3.6 2.57 5.97 6 5.97 9.81 0 10.65-18.89 2.27-21.68-4.33-1.44-8.21 1.09-8.54 5.65l-3.06-.04c.1-3.27-2.88-4.74-5.73-5.3V48.68c15.41-2.88 13.39-20.98-.93-23.66-.64-6.93-3.68-15.42-12.3-12.84-5.48 1.64-6.7 7.46-7.2 12.47-14.37 3.59-16.69 20.3-1.2 24.29v12.35c-1.5.25-5.78 2.84-5.78 4.37v10.32l-2.82-.06c-.83-6.81-8.85-8.19-12.46-2.5-1.53 2.4-1.77 5.53-2 8.31l-18.24 1.21.54 2.09 18.17-1.85c-.27 8.98 11.71 12.89 13.98 2.94l2.81-.07v14.39l-5.26-.02c-1.96-11.26-15.14-5.11-13.93 4.34l-14.1.54-1.26 2.81 15.36-1.92c-1.16 9.47 11.95 15.67 13.94 4.34h5.24c-.02 3.09 1.43 4.84 3.78 6.53l-4.24 117.48-.79 1.13c-14.44.73-28.61 4.1-42.4 8.22l11.04-15.11c4.12-4.33 7.42-.81 11.8-.3 2.74.32 6.33.05 9.07-.43.69-.12 1.23.03 1.68-.73.5-2.35-7.45-1.41-8.11-3.92-.75-2.87 7.99-4.5 10.03-4l-1.91-.95c2.26-.07 11.51-3.56 9.53-6.66-2.27-1.07-4.44-1.11-6.92-1.04-7 .19-19.41 1.57-25.64 4.59-2.52 1.22-5.46 4.59-7.28 5.19-2.24.74-5.59.9-8.09 1.51-13.94 3.45-27.2 8.4-39.67 15.52l-20.31 13.52c.83-2.91.25-5.89.5-8.85.08-.94.81-1.89.96-3.36.33-3.25-.62-5.92-1.01-9.05 25.2-16.38 54.14-26.68 83.84-31.45 4.41-.71 8.89-.96 13.3-1.58.61-.09 2.61-.2 2.7-.9-36.3-1.83-72.06 8.67-102.05 28.74l-.64-.16c-3.09-5.02-7.81-8.96-13.43-10.83 34.13-23.58 75.19-36.86 116.6-39.82l-6-.95c-36.7-.31-72.88 10.1-103.85 29.54-3.03 1.9-12.29 9.28-14.46 10.01-1.97.67-5.74.4-8.51 1.09-12.14 2.99-18.64 14.91-20.53 26.49l-9.8 12.28.23.71 9.12-9.1c1.12.91.61 2.48.93 3.86 1.02 4.35 2.56 7.19 4.96 10.88.83 1.28 3.44 3.91 3.76 4.92.66 2.1-1.5 2.54-1.72 4.33l2.16-2.4c.78-.04 2.24 1.88 2.39 2.4.48 1.68-7.53 10.2-9.81 10.84-.68.16-2.57-2.57-3.09-3.21-9.64-11.97-16.77-25.46-23.81-39.06 9.34-10.43 19.93-20.26 30.97-29.01 40.96-32.45 91.58-52.26 143.89-56.21l4.13-.9c-27.63-1.06-54.93 3.15-80.86 12.46-38.3 13.75-74.02 39.21-98.13 71.98l-1.36-.79-9.6-18.73c-.09-.98 12.04-12.23 13.83-13.83 41.22-36.79 92.01-61.18 146.74-70.15l28.41-3.49c-2.05.27-3.97-.42-5.97-.51-10.72-.49-24.77.94-35.46 2.49-57.2 8.3-111.44 38.8-148.35 82.94l-12.2-16.97 14.15-13.25-1.28-2.83-1.39.17-13.25 14.13-15.53-12.45c-.43-.65 2.9-3.67 3.58-4.32 4.83-4.61 10.11-8.8 14.92-13.43l-1.95-3.34c-9 8.78-17.79 17.77-25.66 27.59-1.68 2.1-3.72 4.6-5.19 6.8-.44.66-1.18 1.19-1.05 2.06l12.22-12.48c3.44 6.17 8.42 10.62 13.65 15.18l-2.2 3c-1.5-.42-3.11-.27-4.61-.54-.93-.17-4.87-2.09-5.15-.6-.36 2.4 6.69 4.5 6.71 5.27l-3.35 5.04 4.94-4.72c4.82 1.51 8.01 4.26 10.8 8.4.79 1.18 3.62 6.2 3.72 7.32s-1.51 1.25-1.23 2.43l1.91-.96c4.95 13.37 6.85 28.06 12.25 41.26 5.77 14.12 19.94 22.55 13.28 39.68-1.43 3.69-4.51 7.37-5.64 11.2-1.54 5.24 2.41 10.2 2.08 14.95-.28 3.91-2.91 8.48-5.95 10.91l-1.15-.67c-11.62-18.01-24.8-35.09-40.03-50.18-4.74-30.17-28.08-58.04-30.97-88.51-1.16-12.26.03-27.14-7.29-37.82-1-1.45-3.68-2.73-2.35-4.42 11.84-11.88 23.66-23.76 36.54-34.52l-.53-4.57c-14.18 11.6-26.38 25.41-37.91 39.61-3.55-.27-9.52-.16-12.64 1.73-3.79 2.29-3.12 11.16-2.65 14.98.98 7.93 4.03 20.53 6.11 28.43 2.45 9.32 9.55 15.03 12.28 23.71 1.38 4.38 1.64 9.28 2.5 13.79l.49.62c6.04 3.11 16.22 5.12 19.43 11.64 2.81 5.69 1.26 12.72-3.96 16.37s-9.65 1.35-15.1 3.13c-13.26 4.33-18.67 20.7-20.85 33.11 3.93 1.55 7.73 2.72 10.56 6.01 7.78 9.02.21 22.58-11.53 20.88-1.22 4.77 1.82 5.61 3.46 8.78 3.06 5.92.15 12.25-.12 18.31s2.47 14.84 4.33 20.66c8.7 27.22 25.92 49.82 46.94 68.7-.28 37.75 11.65 73.59 31.57 105.18 2.05 3.25 5.79 7.25 7.27 10.48 2.5 5.48 5.92 17.06 7.56 23.14 1.33 4.94 2.69 10.36.96 15.35-41.16-44.4-65.7-103.49-69.35-164.09-.84-.11-.45 1.09-.47 1.67-.09 2.07.03 4.16 0 6.24-.89 59.43 24.75 117.31 67.18 158.37.39.37.91.53 1.36.78.5.85-1.64 6.55-1.65 8.39-.03 6.93 9.5 12.75 13.16 18.73 4.15 6.77 5.34 14.44 8.64 21.11 2.33 4.69 6.4 3.58 7.54-.8 1.18-4.51-.04-15.84-.89-20.73-2.43-14.16-9.8-27.01-9.92-41.66 5.13 4.41 10.26 8.84 15.83 12.71.39.27.93 1.29 1.44.48-3.43-3.13-6.87-6.23-10.09-9.59-1.48-1.54-7.3-7.57-7.87-8.93-.85-2.05-1.14-8.18-1.26-10.74-.28-6.13.24-12.36.02-18.49 9.41 10.48 19.09 20.47 30.71 28.55.39.27.93 1.29 1.44.48-11.9-11.41-22.55-24.02-32.15-37.43V518.3l10.65 17.43c8.01 11.51 18.93 23.35 30.18 31.72 1.71 1.27 3.75 2.85 5.72 3.63-19.12-18.9-35.88-41.25-46.29-66.23-2.39-5.75-4.46-11.57-5.53-17.74l20.31 7.16c10.71 24.41 26.11 46.7 45.66 64.82 2.32 2.15 4.89 4.08 7.22 6.24.5.46 1.94.43.95 1.43-1.05-.07-2.01-.06-3 .36-.82.35-12.02 9.81-12.91 10.84-3.89 4.53-.35 6.01 1.68 9.27 6.14 9.89-4.94 25.44-9.12 34.86-15.07 33.93-20.62 71.86-8.77 107.79 19.91 60.38 84.34 76.47 141.45 78.22.19 1.53 5.13 6.99 5.13 7.45v25.19zm-6.24-827.21h-7.2v.48h7.2v-.48zm-8.16.48c-51.66.79-103.4 12.79-150.52 33.5C45.74 139.85-45.32 388.7 49.13 597.84c62.31 137.97 199.15 234.24 352.07 238.63l1.67-.47c-27.62-1.05-55.48-5.57-82.16-12.62-250.06-66-374.46-351.45-259.91-583.02C124.91 110.75 258.89 20.44 404.56 14.54c.58-.02 1.78.36 1.67-.47zm-1.92 22.07c-14.74-.11-29.56.32-44.14 2.15 1.12 1.66.75 2.7 3.11 2.69 7.62-.04 17.54-3.14 25.44-3.4l11.51-.49 4.08-.95zm-71.93 20.19c6.27-1.76 13.35-2.4 19.55-4.2 9.88-2.87 7.37-14.47-.71-14.86-.87-.04-2.2.31-3.15.45-8.99 1.38-18.41 4.38-27.38 6.2-2.46 1.67-4.01 3.79-4.18 6.85 2.8 11.36 3.56 24.06 6.46 35.29.7 2.71 1.81 5.47 4.93 6.11 7.32 1.51 7.74-4.02 12.44-7.01 6.44-4.09 13.12-1.82 15.75 5.21 3.42 9.12.83 18.6-10.05 19.2-5.39.3-10.55-3.78-15.32-1.41-5.08 2.53-4.61 10.32.25 13.09 6.73 3.83 18.97 2.43 25.98-.3 15.34-5.96 19.29-21.87 13.68-36.48-5.87-15.28-21.79-18.7-35.39-10.91l-2.84-17.23zm-19.24-9.15c-9.77 1.98-19.09 5.62-28.56 8.63l-5.51 2.4c4.16-.97 9.81 1.39 13.45.75 6.13-1.07 13.52-5.76 20.07-6.57l.54-5.21zm91.17 11.99c-18.8-.27-37.68.47-56.24 3.49-2.94.48-6.94 1.07-9.73 1.79-.62.16-.79-.4-.73.71.02.47.47 2.7.72 2.64 4.61-2.57 9.55-1.52 14.4-1.92 7.26-.6 15.2-3.28 22.63-3.76l28.96-2.94zm-125.84 3c-16.31 2.06-28.89 15.8-23.29 32.64 6.5 19.53 16.37 34.26 39.23 24.08 18.61-8.29 17.92-21.58 10.66-37.98-5.52-12.47-11.14-20.69-26.6-18.74zm-19.07 4.2c-12.12 5.26-24.08 11.34-35.03 18.7l5.27 2.65 21.77-11.35 7.99-10zm56.61 3.35l-10.06 2.9 1.45 4.75 9.57-2.38-.97-5.28zm35.04 19.67c-2.8-4.59-9.75-1.66-11.52 2.4l11.52-2.4zm-144.92 48.47l52.17 23.88c6.74 1.41 13.61-5.36 9.46-11.86l-41.03-59.74c-5.88-3.83-13.14.87-11.26 7.91l25.68 38.85-52.17-23.87c-7.54-1.16-13.25 5.69-8.68 12.51l39.97 58.4c6.36 5.51 15.3-1.22 11.21-8.81l-25.35-37.27zm119.49-42.7c-.12-.12-2.24-.9-3.05-1.52-.63-.48-1.06-1.65-1.55-1.78-.62-.16-7.14 1.82-7.31 2.61l.4 4.99c3.47-1.53 7.2-2.26 10.81-3.35.52-.16 1.5-.15.7-.96zm-114.21-1.92l-20.89 14.86-.7 1.45 4.92 1.36 15.97-10.94c1.41-1.59.43-4.67.7-6.73zm40.3 2.39l-11.78 6.23c-.14.3 2.51 4.95 3.75 4.25l9.95-5.22-1.92-5.27zm-30.24 18.25c-.38-.27-6.43 3.97-7.14 4.59-.54.47-1.18.74-1 1.64l4.96 1.83 5.54-3.32-2.36-4.73zm101.75.95l-3.35 1.43 3.35.96v-2.39zm-70.54 5.28l3.11 5.21 8.89-4.98-4.07-4.06-7.93 3.83zm64.19-.39l-38.92 15.82c-5.19 4.49-1.78 11.81 4.88 11.15l37.69-15.13c5.92-3.6 3.12-12.6-3.64-11.84zm-44.04 15.75l-7.67 4.07 3.34 4.35c4.11-.84 2.53-1.93 2.99-4.21.29-1.43.77-2.87 1.34-4.22zm-124.28 48.45l20.61-21.85 18.77-16.75c.97-1.29-.55-4.08-2.22-3.18-.53.29-1.17.83-1.66 1.23-9.91 8.16-18.56 19.9-27.33 29.29l-8.17 11.26zm69.1-36.46v.71l1.2 1.2 1.18-.72-1.68-1.19h-.71zm25.91 11.52l-5.41-1.86-8.76 7.14c-.4.95 1.37 4 2.68 3.64.65-.18 9.61-6.83 10.89-7.84.38-.3.88.01.61-1.09zm-85.58 97.08c-.59-.63-2.19-1.58-3.01-2.03l-61.59-28.14c-7.18-1.76-12.96 3.67-11.42 10.94l13.29 36.52-37.06 14.31c-6.64 3.9-5.55 13.25 1.4 16.16 19.29 7.91 37.72 18.09 56.96 26.05 1.64.68 4.29 2.08 5.89 2.28 6.63.8 11.65-5.67 9.55-11.96-1.04-3.11-3.11-4.25-5.82-5.69-11.34-6.02-24.6-10.84-36.33-16.45-.53-.25-3.95-1.53-3.19-2.33l24.1-8.77c2.78-1.34 4.97-4.18 5.19-7.29.34-4.8-6.36-18.92-8.19-24.48-.22-.66-1.25-3.22-.95-3.61 12.56 5.42 24.97 12.14 37.58 17.36 4.33 1.79 7.06 3.69 11.7.98 4.93-2.89 5.75-9.72 1.89-13.85zm-60.8 150.96l-59.07-7.86c-11.04 1.35-11.74 15.42-.52 17.82 21.38 4.59 45.42 4.91 67.05 9.29 6.15-.4 8.25-3.94 9.29-9.46 4.05-21.42 5.06-44.21 9.13-65.72-.75-5.47-3.14-8.06-8.48-9.17-21.25-4.42-44.73-4.86-66.17-9.21-10.6-.1-13.63 13.66-3.52 17.47l58.98 8.44-1.88 15.31-59.22-8.12c-9.88 1.02-11.88 13.75-2.68 17.47l58.97 8.45L97.18 407zM114 450.7c12.35.09 12.35-18.14.72-18.23-2.34-.02-14.39 2.71-16.24 3.91-3.66 2.38-3.47 5.97-4.12 9.79l-55 42.89c-4.8 5.21-2.26 13.48 4.69 15.02l66.34 18.11c.79 3.38 3.8 6.53 7.32 7.08 2.51.39 15.38-2.39 17.56-3.81 5.46-3.55 4.77-12.62-1.28-15.36-2.94-1.33-4.95-.86-7.99-.41l-12.01-59zm-50.87-9.6v22.31c0 .09.51 1.42.72 1.68l1.57-1.73-2.29-22.26zm23.51 6.23l-.95-6.23c.15 1.76-.22 3.81 0 5.52.09.7.36 1.49.96.71zm-44.62 34.55l2.68-2.13c-1.69-12.11-3.19-24.25-3.64-36.5-.02-.58.36-1.78-.48-1.67l-.44 14.58 1.88 25.72zm186.66 161.7c-49.83-45.13-83.2-105.46-93.91-172.15l-3.49-28.89c-.89 19.12.66 39.46 4.94 58.15.44 1.92 1.09 5.66 1.88 7.24.67 1.33 2.38 2.34 3.27 3.93 2.52 4.53.78 6.85.97 10.98.08 1.82 1.7 5.81 2.37 7.75 14.02 40.69 43.56 82.75 77.8 108.86 1.89 1.44 3.97 3.27 6.19 4.12zM50.56 510.29l-4.7-.83c14.59 77.18 56.11 148.34 116.37 198.4l9.34 6.73c-12.04-11.74-24.24-23.26-35.28-35.98-41.67-47.98-71.81-106.1-85.74-168.33zm135.9 187.03c-35.91-32.58-66.22-71.63-87.27-115.46-9.99-20.79-17.91-42.64-23.81-64.96l-5.04-1.43C85.3 584.7 124.52 648.16 179.53 692.5l6.94 4.81zm-86-174.08c-1.53-.06-3-.86-4.48-1.04-.8-.09-.75-.09-.7.7 15.78 59.7 50.88 113.94 99.12 152.33l6.94 4.81c-46.95-41.9-82.56-96.37-100.87-156.8zm26.97 8.54l-5.75.97c15.71 47.42 44.86 90.04 83.27 121.86l9.35 6.72c-17.64-16.61-34.1-34.52-48.09-54.35-16.18-22.94-29.79-48.58-38.77-75.2zm46.55 184.73c-.35-.78-1.05-1.59-1.92-1.43.35.78 1.05 1.59 1.92 1.43zm239.45 119.96h-10.08v.48h10.08v-.48zm-10.55-277.82v83.97c-3.35.14-7.43.29-10.66 1.1-.48.12-1.45.14-1.33.82l10.08.96c.27 7.75 1.04 15.52 2.54 23.13 2.88 14.67 8.86 28.72 9.96 43.78l-.02 60.72-18.95-.49c-21.45-1.54-42.82-5.08-62.86-12.95-.66.3.62.92.84 1.08 10.16 7.08 23.53 12.26 35.38 15.73.11.87-1.04.44-1.55.36-5.4-.84-13.07-3.36-18.37-5.15-20.32-6.87-39.71-18.18-53.99-34.3-6.82-7.7-9.46-12.25-11.66-22.41-5.95-27.49-2.41-55.1 7.47-81.12 3.42-9.01 8.19-17.52 10.91-26.75l-13.52 26.54c-9.94 21.82-14.09 45.92-11.92 69.9l-1.91-6.96c-1.22-22.99 3.05-44.84 11.76-65.95 3.38-8.18 12.85-24.04 14.03-31.56.97-6.2-1-12.32-4.13-17.57l10.72-9.33c12.12 11.54 22.91-.83 27.12-12.57.89-.11.38.97.26 1.46-1.46 6.16-5.58 13.34-9.86 17.97 1.74.1 3.72-2.16 4.81-3.35 18.11-19.84 21.72-73.96 14.03-98.5-2.2-7.03-6.37-15.47-13.56-18.34 5.94 5.24 9.36 13.13 10.51 20.92.07.5.4 1.75-.43 1.62-2.41-12.39-11.54-22.64-25.13-18.27l-3.02-6.92c.01-1.21 6.36-9.29 7.42-11.12 3.45-5.96.12-9.03-1.48-14.66-5.72-20.2-7.31-59.44-.84-79.31 11.64-35.77 51.64-53 85.9-59.25.11-.84-1.09-.45-1.67-.47-6.68-.3-16.28 1.52-22.89 3.03-7.94 1.8-14.46 4.59-21.97 7.31-.45.16-1.56.63-1.45-.25 16.92-7.66 35.06-13.27 53.74-14.4l-7.18 202.69-8.66 1.24c.19.97 1.02.78 1.68.95 1.76.45 11.57.98 11.78 1.74l-1.47 55.85h-10.32c-1.66 0-3.95 2.26-4.12 4.07s1.49 5.04 3.16 5.04h10.8zm-18.24-45.1c-4.8 11.25 13.2 14.79 12.48 2.17s-14.62-10.7-21.6-3.38c-17.81 18.65-7.55 50.55-17.18 73.03-2.06 4.81-7.96 15.26-14 10.24 14.86.4 6.42-19.89-2.99-11.53-2.64 2.35-2.26 8.28-1.48 11.43 2.85 11.56 16.01 6.4 21.73-.16 15.82-18.16 9.43-43.28 14.17-64.53 1.38-6.2 3.78-13.21 8.88-17.27zm64.78 35.99l-1.47-55.84c.2-.74 10.11-1.42 11.78-1.74.7-.14 1.49 0 1.68-.95l-8.91-1.42-6.93-198.19c9.64 1.84 19.23 4.39 28.43 7.8.93.34 14.79 5.85 13.8 6.59-7.64-2.09-15.83-5.78-23.81-6.66-.53-.06-1.73-.43-1.62.42 24.27 10.18 50.13 26.76 58.31 53.26 5.7 18.49 3 55.39-3.6 73.67-3.71 10.27-10.38 18.61-14.82 28.37-6.54 14.36-8.2 29.58-7.74 45.28.94-.17.78-1.02.98-1.66 1.64-5.41 2.48-11.37 4.17-16.94 2.9-9.56 6.82-19.13 13.08-26.98-1.45 3.45-3.65 6.48-5.21 9.9-11.08 24.33-9.64 69.98-.56 94.94 6.93 19.04 21.35 33.78 31.59 50.94 20.07 33.66 32.43 77.89 16.49 115.63l-2 3.51c1.16-3.97 2.76-7.76 3.8-11.79 5.85-22.78 1.94-46.81-7.08-68.18-1.43-3.39-3.09-7.4-5.36-10.23.64 3.87 1.9 7.6 2.73 11.42 4.69 21.87 6.24 44.68-1.89 65.94-16.25 42.48-65.76 52.9-106.41 55.54l-.02-57.36c1.66-23.62 13.26-45.33 12.49-69.32l10.08-.96c-.2-.96-.99-.81-1.68-.95-2.91-.57-6.29-.46-9.11-.97-.54-.1-.9-.23-1.2-.72v-83.25h11.28c2.5 0 3.74-5.65 1.46-7.69-.35-.31-2.63-1.42-2.89-1.42h-9.84zm58.55 46.06c-4.67 4.6-10.5-3.41-12.57-7.35-9.81-18.76-3.45-41.73-10.34-61.64-3.09-8.92-11.21-22.04-22.33-20.15-8.67 1.48-10.03 15.63-2.4 17.04 4.44.82 8.39-1.65 8.33-6.36 0-.54-1.13-3.79.19-3.11 1.88.96 5.37 8.46 6.13 10.66 5.28 15.15 2.48 30.59 5.29 46.05 2.04 11.2 11.46 35.41 26.52 31.11 9.09-2.59 8.81-21.39-1.24-19.51-8.88 1.67-6.58 14.5 2.41 13.25z"/><path d="M408.64 245.81l-.99 35.49c-42.69 4.13-91.03 23.81-103.86 68.64-4.66 16.28-3.92 35.23-2.64 52.05 1.1 14.46 3.67 29.15 10.04 42.23-1.3 4.7-7.1 8.14-6.09 13.32.24 1.23 3.25 8.56 3.98 9.45 3.19 3.89 6.64.76 10.13.54 7.2-.44 11.43 6.37 13.46 12.33 6.66 19.53 3.27 67.74-8.59 85.18-1.35 1.99-5.07 6.65-7.7 6-1.55-.39-11.69-9.2-13.58-10.94-13.58-12.44-26.24-28.29-35.34-44.31-1.39-2.44-10.36-19.34-9.51-20.47 1.39.43 3.12.83 4.56.95 9.49.81 23.63-.16 29.22-9.15 2.87-4.61 1.72-7.46.41-12.32-5.54-20.63-19.88-47.82-29.47-67.46-4.14-8.49-8.21-17.19-13.27-25.13.95-4.09 1.7-8.57 4.03-12.08 9.41-14.19 23.45-27.45 33.21-41.64 2.07-3.08 2.29-6.35 2.01-9.98-.1-1.27-.97-2.97-.92-3.87.08-1.41 6.01-5.32 7.49-6.36 15.69-10.95 32.51-21.34 45.75-35.34 3.04-3.21 7.6-9.92 10.79-12.25 2.87-2.1 11.63-5 15.35-6.25 13.36-4.48 27.44-7.44 41.52-8.63zm41.02-140.11c.87.18 2.48 1.66 3.97 1.83 1.77.2 3.61-.95 5.63-.91 3.9.07 9.33 1.03 13.37 1.55 62.18 7.94 123.18 34.09 168.74 77.18-3.67-.33-6.48-1.63-9.35-3.84l1.19 1.92c-6.7-1.76-10.12 2.93-10.56 9.12-3.5-1.3-8.2-1.72-11.38-3.74-1.42-.9-1.65-2-2.78-2.98-1.72-1.51-4.1-1.83-5.35-3.78-4.64.29-9.67 1.12-12.89 4.74-4.8 5.39-4.08 13.66 1.46 18.23 1.25 1.03 5.31 3.93 6.67 3.86.29-.02.23-.88.6-.96 4.51-1.05 10.14-2.27 14.79-1.91 1.01.08 7.65 1.16 7.86 1.5-.04 5.46 3.86 10.15 7.74 13.61 1.2 1.08 6.11 4.22 6.48 5.04 1.27 2.79-.81 14.28-1.43 17.74-7.56-7.6-15.29-15.24-23.81-21.78-1.88-1.45-3.97-3.26-6.19-4.12 10.25 9.85 19.95 20.24 29.03 31.19.32.51.27 1.07.27 1.64-.03 4.7-2.06 11.62-2.42 16.83-.16 2.3.11 4.65 0 6.95-.71-.27-1.37-.67-1.91-1.2-3.59-3.5-7.54-9.66-11.27-13.68-8.41-9.07-17.95-17.07-27.85-24.46l-.71.23c8.78 8.1 17.92 17.16 25.18 26.64.29.38 1.29.92.49 1.43-9.14-6.64-18.59-13.02-27.34-20.16-9.55-7.79-16.88-17.41-29.41-20.5-1.68-.41-3.65.1-5.31-1.16l-.08-4.72c6.03.6 11.92.85 17.15-2.77 4.34-3 4.4-5.25 3.91-10.37-.5-5.24-2.86-10.76-4.2-15.84 3.86-3.28 9.17-3.29 3.79-8.7-1.85-1.86-11.27-8.26-11.76-9.35-.61-1.34-.09-3.71-.37-5.39-4.07-24.74-35.44-40.49-56.03-23.16-15.39 12.96-24.85 39.08-12.47 57.09-.99.91-1.96.72-2.82 1.99-1.67 2.47-.12 3.96-.74 5.96-.39 1.27-4.54 6.33-5.64 8.29-4.66 8.33-6.98 17.73-7.81 27.21L443.66 236c-.88-.6-.35-7.95-.43-9.65l-4.36-108.9c.09-1.07 3.86-2.94 3.86-4.31v-7.44c2.06.29 5.05-.39 6.96 0zM596.2 486.62c-15.56 2.15-31.26-.15-46.77-1.83l-1.1.77c4.58 33.56 16.19 66.76 37.82 93.08-7.19 8.62-16.25 15.76-24.92 22.95l-1.43.25c-1.54-4.84-1.62-10.94 1.22-15.33.58-.89 1.84-1.55 2.25-2.55 1.89-4.62-2.67-6.66-2.48-7.73 2.23-2.42 4.42-4.93 6.4-7.55 1.66-2.2 3.53-4.6 4.6-7.15-2.06 1.8-11.67 12.36-13.39 12.74-1.28.28-6.82-5.71-8.71-6.72-7.67-4.1-9.64 9.17-18.16 1.36-15.03-13.78-17.49-66.57-12.87-85.22 1.65-6.68 5.49-15.9 13.56-16.23 4.31-.18 8.57 4.16 11.83-1.57.79-1.4 3.62-8.77 3.58-10.1-.12-3.61-6.06-8.26-6.09-11.58-.01-1.72 4.31-11.09 5.16-14.06 5.22-18.26 5.68-41.34 5.44-60.34-.01-.91-.63-2.21-.46-2.8.15-.53 1.1-.61 1.54-1.39 2.92-5.16 6.46-17.04 8.5-23.13 2.83-8.47 5.26-17.09 7.67-25.68 37.07 46.96 47 113.46 26.8 169.79zm-16.88-196.51c2.38 1.93 8.53 11.06 10.62 14.09 19.4 28.2 30.53 60.58 34.16 94.67.83.11.45-1.09.47-1.67 1.21-32.31-7.72-63.16-26-89.64L588.1 293.8l27.01 8.73c1.18.63 3.41 4.83 4.26 6.3 3.26 5.58 6.52 12.3 9.12 18.23 10.04 22.88 15.98 47.87 18.16 72.77l.86-8.87-.4-2.38c.25-29.41-8.9-58.52-23.49-83.74 7.17 1.75 13.94 5.11 21.52 4.39 8.1 17.26 14.49 35.29 18.79 53.91l-1.97.51c-3.4 10.58-7.25 21.01-9.79 31.86-4.63 19.84-6.44 40.9-4.55 61.18.51 5.52 2.1 11.12 2.18 16.58-10.02 3.89-20.4 6.62-30.89 8.95-5.44 1.2-15.35 3.82-20.5 3.98-.78.03-1.3.36-1.18-.7.32-2.73 2.71-7.79 3.59-10.81 16.32-56.45 5.97-118.09-29.43-164.92l4.72-20.78c.39-.34 2.69.7 3.2 1.11zm4.47 416.33c.13-1.74-.6-3.83.93-5.06 27.24-16.49 52.73-37.8 72.2-63.12 1.45-1.88 3.26-3.97 4.12-6.19-22.33 24.04-47.31 45.55-75.58 62.37-.98.12-.62-.04-.71-.71-.45-3.36.12-7.97.02-11.54-.07-2.32-1.15-4.97-.26-7.41 20.23-13.72 38.45-30.36 53.69-49.48l5.56-8.11c-15.47 16.32-31.76 32.07-50.23 45.01-1.71 1.2-8.14 5.9-9.52 6.32-.98.3-.59-.29-.7-.72-1.3-5.23-1.34-11.24-3.29-16.45l.35-1.33a229.8 229.8 0 0 0 42.11-41.44c7.91 2.66 15.38 5.03 23.91 4.26 16.02-1.44 29.43-16.79 36.8-29.9 8.47-15.07 12.95-32.21 15.28-49.27 9 1.09 18.63-1.64 26.87-5.28 1 1.38-9.73 28.41-11.29 32.13-22.24 52.98-59.2 99.86-106.89 132.07-7.47 5.04-15.24 9.94-23.38 13.81zm35.88-18.13l21.68 29.62c-1.7.83-8.64 5.39-8.63 6.97l29.19 41.76-33.76 21.36-44.38-77.06c-.09-.43.08-.77.25-1.15.71-1.54 13.9-8.69 16.52-10.37 4.19-2.68 11.83-8.98 15.71-10.68 1.11-.49 2.19-.88 3.43-.45zm139.75-135.89c.15 2.82-4.31 9.14-2.4 11.28l51.82 21.37c-4.54 12.08-10.37 23.68-16.59 34.96l-82.02-43.14c-.61-1.18 0-2.37.36-3.49 1.42-4.38 4.53-9.78 6.35-14.28s4.39-13.68 6.62-17.37c.32-.53.78-1.33 1.33-1.58 1.82-.81 30.04 11.78 34.53 12.26zm31.92-323.83c3.85 7.19 7.76 14.45 11.2 21.85 1.34 2.89 4.51 8.97 5.13 11.69.12.51.44.95.01 1.46l-51.33 21.14-.72.75 3.11 10.73-34.36 12.73c-2.73-6.35-4.91-12.93-7.59-19.31-1.12-2.67-7.51-15.16-7.3-16.68.05-.39.19-.74.46-1.02l81.38-43.34zm-24-38.8c1.85.14 17.79 27.67 20.02 31.22l.16 1.29-80.66 44.61-.97-.43c-4.12-6.39-7.63-13.15-11.53-19.67-1.39-2.33-7.93-11.51-7.92-13.24 0-.55.09-1.05.49-1.46l28.7-20.77c.66-.27.88.02 1.32.41 2.08 1.86 3.66 8.77 7.3 7.31l43.1-29.27zm21.35 436.53c-5.57 11.37-12.52 22.24-19.91 32.53l-45.01-29.61-6.81 9.01-29.03-20.82c-.67-.62-.59-1.54-.47-2.36.27-1.9 8.48-13.92 10.15-16.75 2.38-4.03 4.36-8.51 6.73-12.46.7-1.17 1.97-3.79 3.43-3.58l80.93 44.04zM677.17 95.18c1.8-.44 25.43 20.87 28.78 23.44l.64 1.62-34.26 36.34-.24 1.14c-.06 2.17 7.39 7.37 7.17 8.61l-25.04 24.23c-3.6-1.75-6.57-2.65-9.7-5.22-5.73-4.71-13.68-11.47-18.97-16.54-.78-.75-3.01-2.71-2.79-3.77l54.43-69.85zm-36.53-25.45c8.79 5.7 17.88 11.11 26.31 17.35 1.16.86 5.44 3.5 5.07 4.85l-54.33 70.83-17.15-11.67c-4.1-2.62-11.54-5.96-14.81-8.7-.64-.53-1.45-1.42-1.36-2.31l17.88-31.07c.41-.48.7-.37 1.22-.24 2.31.58 7.5 5.17 9.74 4.54l27.45-43.59zm96.7 329.14l-22.01-7.25c-.16-50.92-17.23-101.29-47.17-142.12-1.74-2.37-12.49-15.03-12.77-16.02-.41-1.41-.8-7.07-.55-8.52s1.46-2.44 1.99-3.77c.98-2.48 1.2-4.97.39-7.53 1.73.63 4.27.45 5.87 1.08 2.15.86 14.84 18.15 17.07 21.32 33.68 47.71 53.07 104.42 57.19 162.81zM548.28 27.98l-16.11 51.33 12.27 4.33-12.54 34.47c-1.28.18-2.61.13-3.89-.06-6.39-.94-15.21-4.27-21.95-5.88-3.39-.81-17.9-3.11-19.48-4.55l6.62-35.66.6-.7c3.01.48 6.62 1.68 9.6 1.83 1.21.06 2.89.32 3.58-.77l12.76-51.56 28.55 7.22zm60.4 24.04l-22.76 46.01c-.15.34-.09.65-.02.99.32 1.59 7.96 4.56 9.76 5.6.43.25.72-.07.61.82L579 137.14c-.89.54-2.4.27-3.38 0-3-.79-9.21-4.62-12.62-6.09-6.9-2.98-16.12-5.59-22.4-8.79-.93-.47-1.86-1.04-2.32-2.02l12.91-34.2c2.57.2 10.39 4.49 12.37 3.27l20.29-47.84 24.83 10.55zm165.13 299.83c.72 2.62.34 10.32 3.59 10.6l57.35-9.65 3.36 25.44-58.69 6.23c-1.61.39-.06 9.72.02 11.31l-.66.63-35.68 2.74c-.9-.44-1.23-2.46-1.39-3.44-.82-5.12-.87-10.93-1.56-16.19-.67-5.14-2.78-13.16-2.83-17.85 0-.58-.05-1.13.25-1.66l2.15-1.21 34.08-6.95zm53.26-32.16l-56.03 14.02c-1.78 1.27 1.42 9.72 1.34 11.9l-34.8 7.72c-.61.05-.98-.13-1.43-.52-1.08-.95-3.65-14.19-4.31-16.8-1.73-6.82-3.53-13.64-5.54-20.39l.24-.73 34.12-12.45c1.05-.12.52.12.73.66.69 1.76 2.24 8.91 3.64 9.35l54.58-17.66c.81.2 4.21 11.7 4.73 13.51.45 1.56 3.24 10.87 2.74 11.39zM653.72 657.08l26.99 26.09c0 1.02-8.73 6.63-6.84 9.22l34.64 36.43-18.65 16.78-32.66-38.45c-2.5-1.57-7.46 4.81-9.61 5.77-.52.23-.91.46-1.43.02l-21.98-28.45c-.15-.39-.01-.72.1-1.09.5-1.62 9.78-8.51 11.82-10.3 5.95-5.24 11.5-11.08 17.62-16.02zm29.72-35.47l29.7 21.49c1 1.58-6.7 7.91-5.11 10.33l40.82 32.62-16.55 18.94-38.16-34.32c-2.55-1.17-6.61 6.63-9.28 7.42l-25.98-24.93c-.24-.35-.26-.73-.24-1.14.08-1.62 9.28-11.32 11.03-13.49 3.56-4.4 8.19-11.91 11.82-15.53.57-.56 1.24-1.03 1.95-1.39zm-6.13-406.56l1.29-7.17c-2.3-.72-2.76-1.27-3.97-3.26l-14.05-2.98-.76-7.16 24.04-23.51 7.87 7.48.96-.04 38.16-34.35 16.55 18.49-40.09 32.36c-2.88 2.49 5.43 9.24 5.06 10.79l-28.14 21.32c-.53.39-1.07.58-1.74.47-2.28-.36-7.4-9.29-9.42-11.26-.29-1.9 3.75-.78 4.23-1.19zm-56.58 577.27l-37.4 17.27-20.41-48.01-1.21-.46c5.15-6.98 9.89-14.39 13.37-22.37 2.68-6.14 4.25-12.61 6.55-18.88l39.11 72.44zm152.12-288.84c.4.54-3.58 10.16-.94 11.25l55.59 14.23-6.67 24.42-54.04-17.26c-.43-.06-.88-.09-1.3.05-1.62.53-3.36 10.51-3.93 10.51l-34.55-12.48c-.65-1.07.55-6.26 1.33-7.09.67-.71 7.74-4.11 9.44-5.2 9.07-5.79 17.19-12.75 24.52-20.6l10.55 2.18zm-59.02-112.77c-7.28-3.14-14.87-6.2-21.51-10.39-1.83-34.53-12.33-68.29-29.6-98.04l-5.98-39.35c32.7 42.29 51.92 94.5 57.1 147.78zm125.7 66.72l-4.29 37.89-57.87-9.57c-2.5.07-2.65 9.07-3.3 11.03l-6.49-.99c10.51-12.69 19.6-26.65 26.47-41.66l45.49 3.3zM365.92 225.66l-4.07 5.76c-5.41 6.46-12.65 10.66-18.97 16.06-4.66 3.98-9.34 9.86-13.94 13.41S317.67 268 312.5 271.8c-3.26 2.39-7.42 6.77-10.62 8.57-4.89 2.76-11.36 4.21-16.72 7.27-1.94 1.11-4.53 3.55-6.25 4.32-.59.26-.46.62-1.04-.09-2.15-2.64-2.37-7.91-1.47-11.06 1.89-6.57 10.18-7.38 15.14-11.73 3.7-3.24 4.98-7.42 7.92-10.32 3.69-3.64 12.68-9.06 17.36-11.91 15.29-9.3 31.89-16.25 49.09-21.2zm64.79 615.13l.49-24.22c1.81-2.79 4.41-5 5.35-8.33l36.15-2.52 1.47.49 4.07 31.47c-15.79 1.89-31.63 3.34-47.53 3.1zm410.28-428.48l-.92 38.18-43.21-2.91 11.48-34.09 32.65-1.18zm-151.64-33.59c-7.35-3.44-14.37-7.69-21.02-12.33-2.57-20.15-8.69-39.67-17.3-57.98 5.79-2.36 11.91-5.5 11.93-12.7.6.04.78.68 1.05 1.11 1.93 3.05 4.23 8.54 5.75 12 9.65 21.97 16.49 46.1 19.59 69.89zM211.4 551.93l-2.96-4.47c-16.49-28.94-26.67-61.22-30.62-94.37l14.32 10.86c6.12 15.99 13.86 31.8 16.38 48.88-.48 13.13.92 26.16 2.88 39.1zm323.91 232.24l12.01 38.86-28.31 7.2-8.14-35.01c8.68-2.32 16.49-7.03 24.45-11.05zm67.68-188.09l18.2 12.2c-12.95 13.56-27.36 25.62-42.45 36.73l-6.43-17.43c11.32-9.3 22.23-19.56 30.67-31.5zm-185.72-37.43v83.01l-10.56.48v-83.49h10.56zm18.24 83.01v-83.01h9.84l.72.72v82.05c0 1.44-3.83.27-4.56.24-1.99-.07-4 .04-5.99 0zm-3.84-83.01v83.01c-3.46-.71-7.08-.72-10.56 0v-83.01h10.56zm155.29 21.62l15.05 15.06c-9.79 10.11-20.41 19.47-31.89 27.62l-7.89-16.51c9.35-7.63 17.27-16.74 24.73-26.18zM733.5 493.4c1.11 1.13-3.17 4.98-4.09 5.75-7.23 6-17.5 9.31-26.88 8.67-4.32-.3-2.34-.96-3.18-2.33-.1-.16-2.74-1.18-3.43-1.62-8.31-5.33-15.49-16.2-15.21-26.29 1.19-1.23 8.92 7.41 10.07 8.4 8.84 7.63 16.8 10.17 28.58 9.37 4.74-.32 9.36-2.12 14.14-1.94zm-312.39 56.14l.48-55.66c2.95.69 6.4.82 9.35 0l.73 55.67h-10.56zm-14.4 0l2.2-56.08c2.86.81 5.9.29 8.84.42l-.48 55.66h-10.56zm264.41 29.26c-3.79.21-7.28-1.52-10.94-2.25-13.19-2.62-21.13-1.83-32.39 5.7-1.2.8-10.71 8.8-11.36 8.07 0-8.53 7.9-18.78 14.91-23.23 11.08-7.03 25.04-3.23 34.52 4.75.8.67 6.32 6 5.27 6.96zm-228.66-84.92c.33-.03.98-.75 1.68-.48l1.44 56.14H435.5l-.48-55.66c2.4-.18 5.08.24 7.44 0zm-8.88 39.82c-.84.11-.45-1.09-.47-1.67-.39-9.48.13-19.28.02-28.81-.01-1.13-.51-2.19-.52-3.32l-2.4-295.09.26-70.32.7 50.65 1.96 144.87.46 203.7zm-13.91-3.36l-.47-1.67-.02-119.02 2.44-223.55c.23-16.91-.1-33.77.7-50.65l-2.64 394.9zm-5.28-294.6l-8.87 296.53c-.34-4.04-.36-8.2-.26-12.26l7.24-266.74c.13-4.08-.32-8.46-.01-12.49.04-.51.65-6.49 1.91-5.04zm32.63 293.16l-8.63-292.69c1.05.38 1.32 1.13 1.46 2.13 1.19 8.71-.56 19.49.95 28.31l3.36 121.39 2.85 140.84zm-28.31 260.07c-.84.11-.45-1.09-.47-1.67v-5.76l-1.45-32.61c-.32-17 1.51-35.59-1.56-52.18-1.6-8.64-4.78-17-5.61-25.81l7.43 22.07c5.17 17.03 3.38 35.02 3.1 52.52-.23 14.5.04 29.02-1.42 43.44zm77.26-559.95c-1.18-4.21-1.82-8.3-1.44-12.71.07-.83.89-5.17 1.18-5.54.55-.7 5.24-.73 5.8-3.34 3.7 2.13 6.77 4.09 11.26 3.07.92 1.55 1.46 3.67.49 5.35-.89 1.53-5.64 5.31-7.27 6.64-1.22.99-9.22 7.22-10.02 6.53zm-34.55 19.67c-4.13 3.34-6.79 7.91-9.37 12.46l-6.94 19.2-1.44-34.54 17.75 2.88zm283.49 192.54c7.69-.82 18.49 6.18 19.27 14.07.62 6.28-6.95-1.26-9.15-2.39-6.64-3.41-14.18-4.32-21.54-4.37-1.6-1.07 1.41-3.44 2.25-4.01 2.15-1.47 6.58-3.03 9.17-3.3zm-71.63-11.17l-.74-1.2c3.09-4.52 10.8-6.52 16.09-5.99 6.21.62 12.71 7 14.5 12.84.35 1.15 1.11 2.65-.11 3.47-3.62-1.42-6.49-4.21-9.98-5.85-3.16-1.49-9.15-3.27-12.57-3.27h-7.2zm-57.35 92.61c-2.2 10.25-11.92 16.37-22.21 12.85-1.52-.52-9.33-4.66-8.02-6.6 1.84-.97 3.27-.03 5.02.01 6.19.14 10.16-.01 15.94-2.33 1.43-.57 8.44-4.75 9.27-3.92zM483.35 59.99c-1.43 1.77-5.61 3.97-7.3 5.89-.36.08-.33-.5-.23-.71.54-1.22 4.8-4.67 5.17-5.87 1.24-3.98 1.33-12.76 2.1-17.57 1.08-6.76 2.61-14.29 4.6-20.84.56-1.83 1.16-4.6 2.52-5.87-.15 11.33-1.65 22.62-3.98 33.68-.41 1.95-2.05 10.27-2.87 11.29zM667.21 513.6l3.42 4.51c-5.18 6.39-12.58 7.55-20 4.17-1.48-.68-5.8-3.79-6.38-5.14-.8-1.85 4.5-.7 5.01-.69 6.53.09 11.87-.2 17.94-2.85zM557.87 31.33c-1.35 8.94-4.13 17.67-7.19 26.16-1.1 3.06-4.97 13.96-6.76 15.79-1.46 1.49-5.6 3.66-7.64 4.59 1.09-2.31 4.86-3.85 5.86-5.89 1.84-3.76 3.06-11.17 4.56-15.59 2.54-7.47 6.03-17.39 9.98-24.11.37-.62-.09-1.21 1.19-.94zm16.79 782.11c-1.27.26-.83-.32-1.19-.94-2.28-3.91-4.24-8.04-6.09-12.16-1.92-4.3-10.28-24.48-9.91-27.79.29-2.54 2.64-6.17 2.8-9 .86-.11.46 1.08.42 1.61-.16 1.79-.83 4.1-.91 5.83-.14 3.34 3.46 8.98 4.89 12.37 4.04 9.6 8.23 19.78 9.99 30.07zm23.86-718.92c-.61.55-6.09 3.16-7.2 3.6-.46.18-1.47.77-1.78.14l6.93-5.07c1.54-4.48 18.54-36.8 20.66-36.91.86-.04.53 1.26.39 1.81-1.77 6.82-8.84 19.43-12.54 25.85-1.16 2.02-5.23 9.45-6.46 10.57zm84.59 657.02c-.97.21-1.28-.21-1.94-.7-4.75-3.49-13.12-14.46-16.96-19.5-1.9-2.49-6.84-8.38-7.89-10.82-1.31-3.03-.95-7.47-1.03-10.72l2.18 8.61c5.5 5.86 10.86 11.94 15.76 18.31 1.04 1.36 10.63 14.13 9.88 14.82zm81.1-85.41c-4.02-1.21-8.14-3.96-11.77-6.22-4.42-2.76-23.67-15.66-25.55-19.07-1.22-2.2-1.86-5.88-2.98-8.29 2.33 1.91 2.88 5.73 5.03 7.68 1.97 1.79 6.97 4.11 9.51 5.84 8.98 6.11 18.09 12.33 25.76 20.06zM814.6 560.1c.12.85-1.09.47-1.62.42-13.03-1.41-29.15-9.04-41.29-13.9l-4.6-6.68c.31-.34 5.4 4.79 6.11 5.17 5.15 2.75 17.8 5.31 24.37 7.78 5.77 2.17 11.38 4.74 17.02 7.21zm-5.28-288.38c-.11.72-.91.89-1.43 1.21-8.1 4.83-30.43 14.75-39.34 16.34-3.23.57-6.76-1.71-10.09-1.72.34-.85 2.84-.54 3.62-.5 1.63.08 3.06.69 4.65.4 2.58-.47 7.77-3.63 10.59-4.78 10.43-4.27 21-8.32 32-10.95zm-100.29-74.38c.26-.77 2.2-.93 2.96-1.11 1.54-.36 4.55-.56 5.66-1.06 1.38-.62 6.21-5.55 7.94-6.93 8.64-6.92 17.48-13.66 27.1-19.2.2.94-.22 1.29-.69 1.94-1.41 1.94-7.43 6.75-9.63 8.6-3.34 2.81-21.16 16.81-24.01 17.26-2.69.43-6.46-.02-9.33.5zM693.2 674.29l3.35 7.44c8.95 7.76 18.49 15.63 26.41 24.45.57.64 3.44 3.78 3.6 4.08.43.84.09.91-.49 1.44-5.88-4.41-11.65-9.13-17.04-14.14-3.17-2.94-11.31-10.32-13.43-13.44-1.63-2.39-2.04-6.98-2.39-9.84zM828.51 503c-.33.88-2.81.52-3.59.47-10.34-.65-28.95-3.58-38.64-6.95-3.86-1.34-5.12-4.05-7.68-6.96.53-.48 5.13 3.79 6.13 4.18 4.52 1.76 16.84 2.51 22.68 3.71 7.12 1.47 14.15 3.44 21.09 5.54zm-3.35-174.66c-.65 1.08-2.45 1.48-3.59 1.92-9.34 3.59-27.72 8.74-37.5 9.53-4.43.36-6.7-1.85-10.74-2.83-.12-.84 1.11-.49 1.62-.43 2.19.27 4.45 1.57 6.71 1.37 2.72-.24 7.72-2.43 10.75-3.2 10.79-2.74 21.64-5.15 32.73-6.37z"/><path d="M674.48 158.48l8.4-3.35c7.48-7.98 14.67-16.4 22.78-23.76 1.33-1.2 5.53-5.13 6.72-5.76.74-.39 1.44.17 1.44.49-.02.78-8.77 10.62-10.06 12.01-5.88 6.36-12.45 12.26-18.75 18.2l-10.53 2.17zm159.31 228.4l-5.74 1.69c-10.34 1.57-20.93 3.31-31.43 3.6-2.1.06-5.68.26-7.59-.13-2.63-.54-5.33-3.72-8.03-4.45 2.84-.53 5.68 2.48 8.39 2.56 3.91.1 11.4-1.87 15.85-2.31 9.49-.94 19-1.12 28.55-.96zm-330.15 411.2c2.24 11.24 5.45 22.5 5.28 34.07l-2.4-5.51c-2.98-8.96-5.29-18.23-6.68-27.56l3.8-1zm-89.25-562.82h-1.44l-.02-9.38 2.44-62.34c.28-8.09.14-16.18.7-24.26.15 31.96-1.42 63.99-1.68 95.97zm24 .47c-.88-7.4-.28-14.88-.46-22.33l-1.48-46.98c-.1-6.63-.08-13.33.26-19.94.61 0 .19 11.07.22 12.26s.48 2.18.52 3.32l1.88 70.09c.01 1.36 1.42 3.5-.93 3.58zm-16.32-123.79c-.76-.44-1.05-2.38-1.3-3.25-3.01-10.68-5.34-21.73-6.85-32.73L418 90.83l4.07 21.12zm357.98 294.61l-13.13-1.51-5.58-1.37 17.51-.96c1.84.24 1.09 2.45 1.2 3.84zm-463.08 37.42l-5.13-12.37c-1.49-5.54-3.24-11.11-3.49-16.89l3.35 12.24c1.33 5.8 7.29 10.95 5.28 17.02zm116.12-341.15l-1.42-.23c2.12-8.33 2.86-17.61 5.41-25.78.16-.5.13-1.45.81-1.34l-4.81 27.34zm27.36-7.2l-1.99-4.48c-1.51-2.23-3.46-3.35-6.19-2.5-1.57.49-1.77 1.9-2.85 2.66-.17-1.69.39-2.82 1.75-3.76 5.22-3.64 10.5 2.84 9.28 8.08zm-57.1 4.8c-4.22-5.55-8.14-3.4-10.43 2.3-.29.72.28 1.3-1.08 1.05-.9-7.85 9.77-12.25 11.51-3.36zM737.82 380.4c-.03-.48-1.37-2.74 0-3.12.58 7.35 1.99 14.68 1.92 22.07h-1.92v-18.96zM405.27 75.95c-1.08-.76-1.28-2.17-2.85-2.66-2.59-.8-4.47.15-5.99 2.21l-2.19 4.76c-2.17-7.54 9.7-13.59 11.03-4.32zm52.79-5.28l-1.99-4.48c-1.48-2.39-4.86-3.28-7.15-1.55-.89.67-1.02 1.84-1.88 2.19 1.38-8.99 13.06-4.27 11.03 3.84zm-46.55-26.39l-.97-4.06.5-10.34c.9.19.87.95.97 1.67.58 4.27.54 8.53-.5 12.72zm20.28 602.78c1.83-1.81 4.89.46 3.48 2.76-1.52 2.49-5.6-.67-3.48-2.76zm17.51 3.12c-1.84 1.86-4.97-1.28-3.12-3.12 2.09-2.07 5.18 1.03 3.12 3.12zm-30.73-3.66c2.78-.81 3.51 3.55 1.24 4.19-2.72.76-3.87-3.43-1.24-4.19zm-14.39.01c2.82-.78 3.48 3.56 1.24 4.18-2.82.78-3.48-3.56-1.24-4.18zm39.96-613.76c.41 2.72.86 5.22.02 7.94-.21.68.28.84-.97.7-.41-2.72-.86-5.22-.02-7.94.21-.68-.28-.84.97-.7zm-35.03 8.64c-1.91-2.06-1.87-6.35-.23-8.63 1.2 2.71.79 5.81.23 8.63zm38.8 60.04l.55 2.33-5.76-.48.22-1.46.58-.38 4.41-.01zm-31.12 10.97c-2.33-3-3.19-7.36-3.83-11.03.79.23 1.16 1.89 1.44 2.63 1.04 2.72 1.71 5.58 2.38 8.41zm21.59-7.2c-.43 2.34-1.19 5.43-2.87 7.19.57-1.98.85-4.39 1.69-6.24.33-.73-.06-1.18 1.18-.95zm-5.75.01l-1.91 6.23c-.25-.6.55-7.7 1.91-6.23zm3.36 30.7h.48v8.16h-.48zm67.18-71.98c-.38-.04-.91.11-1.19 0-1.77-.68-.24-2.83 1.19 0zm281.2 290.78c.12.89 0 1.66-.95 1.92v-1.92h.95zm-65.75 298.45c.49.5-.95 1.92-1.43 1.43s.95-1.92 1.43-1.43zm53.75-349.31c.49.5-.95 1.92-1.43 1.43s.95-1.92 1.43-1.43zM613.53 103.78c-.48.49-1.93-.94-1.43-1.43s1.93.94 1.43 1.43zm167.96 406.41c.49.5-.95 1.92-1.43 1.43s.95-1.92 1.43-1.43zm-138.2 217.84v.95h-1.92c.26-.95 1.02-1.08 1.92-.95zM561.71 79.79c-1.38.19-2.51-.52-1.2-1.43l1.2 1.43zm205.38 481.26c.73.72-1.43 2.05-1.43.72 0-.32 1.15-.99 1.43-.72zm-72.45-391.53l-.48-1.2.95-.72.47 1.2-.94.72zm-12 523.97h1.43v.95h-1.43zm44.15-484.14h.95v1.43h-.95z"/></g><path d="M406.23 14.06c.11.84-1.09.45-1.67.47-145.67 5.91-279.65 96.22-343.76 225.83-114.55 231.57 9.85 517.02 259.92 583.02 26.68 7.04 54.54 11.57 82.16 12.62l-1.67.47c-152.92-4.38-289.76-100.65-352.07-238.63-94.46-209.14-3.4-457.99 206.57-550.28 47.12-20.71 98.86-32.71 150.52-33.5zM97.18 407.01l1.88-15.28-58.97-8.45c-9.2-3.72-7.2-16.45 2.68-17.47l59.22 8.12 1.88-15.31-58.98-8.44c-10.11-3.81-7.09-17.57 3.52-17.47 21.44 4.34 44.92 4.79 66.17 9.21 5.34 1.11 7.72 3.7 8.48 9.17-4.08 21.51-5.09 44.3-9.13 65.72-1.04 5.52-3.14 9.06-9.29 9.46-21.63-4.37-45.67-4.7-67.05-9.29-11.22-2.41-10.52-16.48.52-17.82l59.07 7.86zM114 450.7l12.01 59c3.04-.45 5.05-.92 7.99.41 6.05 2.74 6.74 11.81 1.28 15.36-2.18 1.42-15.05 4.2-17.56 3.81-3.52-.55-6.53-3.71-7.32-7.08l-66.34-18.11c-6.95-1.53-9.49-9.81-4.69-15.02l55-42.89c.65-3.82.46-7.41 4.12-9.79 1.85-1.2 13.9-3.93 16.24-3.91 11.62.1 11.63 18.32-.72 18.23zm-14.88 14.87l-33.59 25.9 40.78 11.04-7.2-36.94zm58.86-209.52c3.85 4.13 3.04 10.96-1.89 13.85-4.64 2.72-7.37.82-11.7-.98-12.61-5.22-25.02-11.94-37.58-17.36-.3.39.73 2.94.95 3.61 1.83 5.57 8.53 19.68 8.19 24.48-.22 3.11-2.41 5.95-5.19 7.29l-24.1 8.77c-.77.8 2.65 2.07 3.19 2.33 11.73 5.61 25 10.43 36.33 16.45 2.71 1.44 4.79 2.58 5.82 5.69 2.1 6.29-2.92 12.76-9.55 11.96-1.6-.19-4.25-1.6-5.89-2.28-19.24-7.96-37.67-18.14-56.96-26.05-6.96-2.91-8.04-12.26-1.4-16.16l37.06-14.31-13.29-36.52c-1.54-7.26 4.24-12.7 11.42-10.94l61.59 28.14c.82.45 2.42 1.4 3.01 2.03zm48.15-118.2l25.35 37.27c4.09 7.59-4.85 14.32-11.21 8.81l-39.97-58.4c-4.57-6.82 1.14-13.67 8.68-12.51l52.17 23.87-25.68-38.85c-1.88-7.04 5.38-11.74 11.26-7.91l41.03 59.74c4.15 6.49-2.71 13.27-9.46 11.86l-52.17-23.88zm126.25-81.53l2.84 17.23c13.6-7.79 29.52-4.37 35.39 10.91 5.61 14.61 1.67 30.52-13.68 36.48-7.01 2.72-19.26 4.12-25.98.3-4.85-2.76-5.32-10.56-.25-13.09 4.77-2.37 9.93 1.7 15.32 1.41 10.89-.6 13.47-10.09 10.05-19.2-2.64-7.03-9.32-9.3-15.75-5.21-4.7 2.99-5.13 8.52-12.44 7.01-3.11-.64-4.23-3.4-4.93-6.11-2.89-11.23-3.65-23.93-6.46-35.29.17-3.05 1.73-5.17 4.18-6.85 8.97-1.82 18.39-4.82 27.38-6.2.95-.15 2.28-.49 3.15-.45 8.08.39 10.59 11.99.71 14.86-6.2 1.8-13.28 2.44-19.55 4.2zm-53.91 5.84c15.45-1.95 21.08 6.28 26.6 18.74 7.26 16.4 7.95 29.69-10.66 37.98-22.85 10.18-32.72-4.55-39.23-24.08-5.6-16.84 6.98-30.58 23.29-32.64zm.48 13.92c-6.52.8-11.01 5.2-9.85 12 .42 2.46 5.99 14.85 7.57 16.91 5.46 7.12 19.2 1.43 18.11-7.55-.34-2.83-6.04-15.81-7.84-18.08-2.24-2.83-4.37-3.72-7.99-3.28zM50.56 510.29c13.93 62.22 44.07 120.35 85.74 168.33 11.04 12.71 23.24 24.24 35.28 35.98l-9.34-6.73c-60.26-50.06-101.79-121.22-116.37-198.4l4.7.83zm135.9 187.03l-6.94-4.81c-55-44.34-94.22-107.8-109.19-177.03l5.04 1.43c5.9 22.32 13.83 44.16 23.81 64.96 21.05 43.83 51.36 82.88 87.27 115.46zm42.22-53.74c-2.22-.86-4.3-2.68-6.19-4.12-34.24-26.11-63.78-68.17-77.8-108.86-.67-1.94-2.28-5.94-2.37-7.75-.19-4.13 1.55-6.46-.97-10.98-.88-1.59-2.6-2.6-3.27-3.93-.79-1.58-1.44-5.32-1.88-7.24-4.29-18.69-5.83-39.03-4.94-58.15l3.49 28.89c10.71 66.69 44.08 127.02 93.91 172.15zM100.46 523.24c18.31 60.43 53.93 114.9 100.87 156.8l-6.94-4.81c-48.24-38.38-83.34-92.63-99.12-152.33-.05-.79-.1-.79.7-.7 1.48.18 2.95.98 4.48 1.04zm26.97 8.54c8.98 26.62 22.59 52.26 38.77 75.2 13.99 19.83 30.45 37.74 48.09 54.35l-9.35-6.72c-38.41-31.81-67.56-74.44-83.27-121.86l5.75-.97zm189.44-412.07c6.76-.77 9.56 8.24 3.64 11.84l-37.69 15.13c-6.65.66-10.06-6.66-4.88-11.15l38.92-15.82zM259.4 66.36l-7.99 10-21.77 11.35-5.27-2.65c10.95-7.36 22.91-13.45 35.03-18.7zm144.91-7.2l-28.96 2.94c-7.43.48-15.37 3.16-22.63 3.76-4.85.4-9.79-.65-14.4 1.92-.25.06-.7-2.16-.72-2.64-.06-1.11.11-.55.73-.71 2.79-.72 6.79-1.31 9.73-1.79 18.56-3.02 37.44-3.76 56.24-3.49zm-91.17-11.99l-.54 5.21c-6.56.8-13.95 5.5-20.07 6.57-3.64.63-9.3-1.72-13.45-.75l5.51-2.4c9.47-3.01 18.78-6.65 28.56-8.63zM148.55 183.91l8.17-11.26c8.77-9.39 17.42-21.13 27.33-29.29.48-.4 1.13-.95 1.66-1.23 1.67-.9 3.19 1.89 2.22 3.18l-18.77 16.75-20.61 21.85zm62.86-90.68c-.27 2.06.71 5.14-.7 6.73l-15.97 10.94-4.92-1.36.7-1.45 20.89-14.86zm192.9-57.1l-4.08.95-11.51.49c-7.9.25-17.83 3.36-25.44 3.4-2.36.01-1.99-1.03-3.11-2.69 14.59-1.83 29.4-2.26 44.14-2.15zm-152.6 59.49l1.92 5.27-9.95 5.22c-1.24.7-3.89-3.95-3.75-4.25l11.78-6.23zM42.02 481.88l-1.88-25.72.44-14.58c.83-.11.45 1.09.48 1.67.45 12.25 1.95 24.38 3.64 36.5l-2.68 2.13zm201.54-322.91c.28 1.11-.22.79-.61 1.09-1.28 1.01-10.24 7.66-10.89 7.84-1.31.36-3.08-2.7-2.68-3.64l8.76-7.14 5.41 1.86zm9.12-38.87l7.93-3.83 4.07 4.06-8.9 4.98-3.1-5.21zm63.33-50.39l.97 5.28-9.57 2.38-1.45-4.75 10.05-2.91zm9.61 25.44c.8.81-.18.8-.7.96-3.61 1.09-7.34 1.82-10.81 3.35l-.4-4.99c.18-.79 6.69-2.76 7.31-2.61.49.12.93 1.29 1.55 1.78.81.62 2.93 1.4 3.05 1.52zm-104.15 18.72l2.36 4.73-5.54 3.32-4.96-1.83c-.19-.9.45-1.16 1-1.64.71-.62 6.76-4.86 7.14-4.59zm51.36 21.59c-.57 1.34-1.06 2.78-1.34 4.22-.46 2.28 1.12 3.37-2.99 4.21l-3.34-4.35 7.67-4.07zm78.22-46.08l-11.52 2.4c1.77-4.06 8.72-6.99 11.52-2.4zM63.13 441.1l2.29 22.26-1.57 1.73c-.2-.26-.72-1.59-.72-1.68V441.1z" fill="#033249"/><path d="M403.36 836.47h10.08v.48h-10.08z"/><path d="M323.22 114.82v2.4l-3.36-.97 3.36-1.43zM86.64 447.33c-.59.78-.87 0-.96-.71-.22-1.71.15-3.76 0-5.52l.95 6.23zM407.19 13.58h7.2v.48h-7.2zM217.65 147.45h.71l1.68 1.2-1.19.71-1.2-1.2v-.71z" fill="#033249"/><path d="M173.98,716.51c-.87.16-1.57-.65-1.92-1.43.87-.16,1.57.65,1.92,1.43Z"/><path d="M384.64 513.55c-5.1 4.05-7.49 11.07-8.88 17.27-4.74 21.25 1.66 46.37-14.17 64.53-5.72 6.56-18.88 11.73-21.73.16-.78-3.16-1.17-9.08 1.48-11.43 9.41-8.37 17.85 11.92 2.99 11.53 6.04 5.02 11.94-5.43 14-10.24 9.63-22.48-.63-54.38 17.18-73.03 6.98-7.31 20.85-9.72 21.6 3.38s-17.28 9.08-12.48-2.17zm123.33 82.05c-8.99 1.25-11.3-11.58-2.41-13.25 10.04-1.89 10.32 16.91 1.24 19.51-15.06 4.3-24.48-19.91-26.52-31.11-2.81-15.46-.01-30.9-5.29-46.05-.77-2.2-4.26-9.71-6.13-10.66-1.32-.67-.2 2.57-.19 3.11.06 4.71-3.88 7.19-8.33 6.36-7.63-1.42-6.27-15.57 2.4-17.04 11.12-1.89 19.24 11.23 22.33 20.15 6.89 19.91.52 42.88 10.34 61.64 2.06 3.94 7.9 11.95 12.57 7.35z" fill="#033249"/><path d="M99.12 465.57l7.2 36.94-40.78-11.04 33.59-25.9zm-5.76 29.26l-3.59-17.75-2.62 2.59 2.2 14.24 4.01.91zM278.95 76.08c3.62-.45 5.75.44 7.99 3.28 1.8 2.27 7.5 15.25 7.84 18.08 1.09 8.98-12.66 14.67-18.11 7.55-1.57-2.05-7.14-14.44-7.57-16.91-1.17-6.8 3.32-11.19 9.85-12zm6.84 9.94c.51-.58-1.97-5.04-2.69-5.21l-10.3 4.06c-.28 1 .68 5.19 1.76 5.43l11.23-4.29z" fill="#fff"/><path d="M93.36 494.83l-4.01-.91-2.2-14.24 2.62-2.59 3.59 17.74zM285.79 86.02l-11.23 4.29c-1.08-.24-2.04-4.43-1.76-5.43l10.3-4.06c.71.17 3.2 4.63 2.69 5.21z" fill="#033249"/></svg>