<?xml version="1.0" encoding="utf-8"?>
<svg xmlns="http://www.w3.org/2000/svg" version="1.0" viewBox="0 0 3545 3545">
  <path d="M1737 .6c-186.7 4.7-354.2 33.5-523.5 89.8-292.9 97.5-551.7 267.2-759.7 498.1C255.5 808.7 115 1077.4 47.1 1366.1 22 1472.6 7.4 1579.8 1.9 1696c-1.6 32.8-1.6 120.2 0 153 9 192 44.8 369.2 109.4 542C219 2678.9 394.8 2928.2 632 3129.1c226.2 191.6 507.7 326.5 801.5 384.3 71.7 14.1 136.1 22.6 222 29.2 27.3 2.2 182.8 3.2 215 1.5 248.3-13.4 482-75.5 703.5-187.2 204.2-102.9 386.5-244.9 538.6-419.4 161.4-185.3 282.4-402.5 355.4-638 42.8-138.4 68.1-280.8 76.1-429 .7-13.8.9-50.5.6-107.5-.4-90-.6-94.5-5.7-151-22.3-246.7-98.1-488.8-221.8-709-110.4-196.4-261.1-373.3-439.7-516.1-99.2-79.4-203.1-145.6-317.5-202.3C2337.6 74.2 2099 12.8 1850.5 2.1c-25-1.1-93.4-2-113.5-1.5m50.5 53.4c-2 .8-2 .9.1.9 3.8.2 11 3.1 14.6 6.1 8.7 7.2 15.6 22.3 18.2 39.9l1.2 8.3 5.4 1.8c12.9 4.1 24.1 11 31.6 19.3 13.1 14.5 15.5 37.4 5.7 54.4-5.5 9.6-20.2 19.5-33.2 22.5l-5.1 1.1v52.4l5.9 2.2c7.9 2.9 14.6 8.9 16.8 15.2l1.8 4.9h12.5v-3c0-11.1 11.6-21 24.6-21 8.9 0 15 2.4 20.9 8.4 8.8 8.9 12.6 19.9 12.6 37.1.2 22.1-6.6 36.6-20.3 43.5-6.6 3.3-13.9 3.9-21 2-8.4-2.4-16.7-12.1-16.8-19.8V327h-13v58h22v-2.8c0-4.1 4.7-12.9 8.4-15.7 8.3-6.3 19.7-7.3 29.4-2.4 13.6 6.8 20.5 21.2 20.5 42.9 0 11.5-1.7 20.2-5.8 28.6-1.4 2.8-2.5 5.3-2.5 5.6s3.7.8 8.3 1.2c4.5.4 19 2.1 32.2 3.7 24.6 3.1 34.5 3.4 37 .8 1.4-1.4 28.8-147.9 27.9-148.8-.3-.3-10.7-1.9-23.2-3.7-12.5-1.7-24.6-3.7-27-4.3-5.7-1.6-8.5-4.4-7.8-7.9.3-1.5 7.6-52 16.1-112.2 8.6-60.2 15.8-109.6 16-109.8.4-.4 42.8 5.8 43.4 6.3.2.3-2.1 8.5-5.2 18.3-8.6 26.9-14.2 50.8-20.2 85.6-3.8 22.5-8.1 56-9.1 71.1-.6 8.8-1 10.4-3.3 13.1-9.4 11.1-21.9 26.2-23.1 27.9-1.9 2.5.2.9 19.9-15.5 17.4-14.5 15.5-10.8 22.5-42 11.9-52.7 18.2-96.7 19.3-136.3.6-21.2.7-21.7 2.7-21.7 9.6 0 121.6 22.3 121.6 24.2 0 2.4-53.2 217.4-54 218.2-2.3 2.3-11.2 1.7-32.9-2.3-12.3-2.3-22.5-4.1-22.6-3.9s-7.1 33.5-15.4 74.1c-11.5 55.7-15 74.2-14.1 75.2 2.5 3 10.5 5.4 31 9.4 42.8 8.4 84.8 18.5 123 29.7 23 6.7 28.4 7.7 32.5 6.4 3-1 3.6-2.5 28.8-72.1 14.2-39.1 25.6-71.4 25.3-71.7-.3-.2-9.7-3.3-20.9-6.7-22-6.6-29-9.8-29.5-13.1-.2-1.7 66-210 67.2-211.1.5-.6 35.8 10.7 36.9 11.7.5.4-1.4 5.2-4.2 10.8-18.6 37.2-37.8 88.8-52.6 141.9-5.1 18.3-5.6 19.5-9.2 22.5-7.9 6.9-25.3 23-25.3 23.5 0 .3 1-.1 2.3-.9 37.6-24.1 35.8-22.8 38.4-28.7 22.4-50.2 44.3-116.4 52.8-159.1 1-4.7 1.8-8.6 1.9-8.7 1-1.1 105.7 38.3 107.7 40.5.3.4-18.6 45.7-42 100.7-47.2 110.8-42.7 102-52.1 100.3-2.5-.5-12.7-3.8-22.8-7.4s-18.6-6.4-18.8-6.1c-.3.2-12.6 31.9-27.4 70.3-17.9 46.2-26.8 70.7-26.5 72.1.8 3.5 6.8 6.8 22.1 12.4 36.3 13.2 81.5 32.2 116.4 49.1 13.3 6.4 20 9.1 23.7 9.5 5.1.6 5.1.5 7.6-3.3 2.8-4.4 70.2-127 71.2-129.5.5-1.3-3.3-3.5-17.9-10.7-18.6-9.2-25.6-13.9-25.6-17.2 0-1.6 91.6-184.1 95.7-190.8l1.4-2.3 15.7 8.2c8.6 4.4 15.9 8.3 16.1 8.5.2.1-3.2 5.6-7.6 12.1-24.6 36.6-56.1 94.7-74.3 137-2.1 5-3.2 5.9-18.1 16.3-8.8 6.1-15.9 11.3-15.9 11.5 0 .7 3.5-.8 22.1-9.8l17.6-8.4 8.8-14.4c27.5-44.9 56.6-101.4 69-133.9 1.6-4.1 3-7.7 3.1-7.8.5-.8 47.2 25.1 76.6 42.5 11.1 6.6 17.5 10.9 17.2 11.7-.4.6-25.7 41.5-56.2 91l-55.6 89.8-4-.5c-5.3-.6-8-1.8-26.1-12.1-8.2-4.6-15.3-8.2-15.6-7.8-1.4 1.5-75.2 130.6-75.6 132.2-.9 3.2 6.8 9.2 24.8 19.4 31.2 17.8 68.3 41.5 97.8 62.6 13 9.3 17 11.5 18.1 10.3.4-.4 51.1-67 112.5-147.8 61.5-80.9 112.1-147.4 112.6-147.9.9-1 20.5 13.3 20.2 14.7 0 .5-50.6 65.9-112.4 145.4s-112.8 145.2-113.2 146c-2.3 3.9 2.3 8.9 23.3 25.8 17.1 13.8 37.9 31.7 53.9 46.5 6.9 6.3 14.8 13.6 17.6 16.2 3.5 3.2 7.7 5.7 13.1 7.8 4.3 1.7 11.9 5 16.7 7.2l8.8 4.2 51.2-51.2 51.2-51.2-14.7-14.7c-13-13.2-17.8-19.1-17.8-22.1 0-1.4 144.8-155.7 146.1-155.7.6 0 6.4 4.9 13 11l11.8 11-2.8 2.5c-1.5 1.4-8.6 7.4-15.7 13.5-23.8 20.3-76.9 74.7-99.4 101.8-3 3.6-5.8 6.6-6.2 6.6-1.8.2-34.8 12.4-34.4 12.8.5.6 39.2-6.4 41-7.4 5.4-3 58.1-54.4 79.9-77.8 11.9-12.8 34.4-39 39.3-45.8l2-2.9 30.4 30.9c16.8 17 32.8 33.6 35.7 36.9l5.2 6-79.4 72c-43.6 39.5-80.2 72-81.4 72.2-3.6.6-8.3-3.3-21.1-17.3-6.7-7.5-12.7-13.4-13.1-13.3-.5.2-23.5 22.2-51.3 49l-50.4 48.7 2 5.3c1.6 4 2.1 7.5 2.1 14l-.1 8.8 3.7.9c2 .6 15.3 3.7 29.6 7.1s26.8 6.3 27.7 6.6c1.2.4 1.5 1.3 1.2 3.7-.5 3.1-.4 3.2 6.5 6 3.9 1.6 7.1 3.2 7.1 3.6 0 1-4.6 23.5-5.5 27.4-.7 2.6-.9 2.7-8.6 2.7-7.5 0-7.9.1-8.5 2.4-.5 2 .5 3.9 4.8 9.3 3 3.7 10.2 13.2 16 20.9 11.4 15.1 14.7 18.4 18.5 18.4 1.5 0 22.3-15 62.2-45 33-24.7 60.2-45.4 60.6-45.9.3-.6-4.6-8.1-10.9-16.7-11-14.8-14.6-21.4-13.3-24.7.4-1.1 158.5-128.9 169.2-136.8 1-.7 21.5 23.9 21.5 25.8 0 .6-3.3 3-7.2 5.3-33.3 19.7-85.8 59.1-130.2 97.8-5.2 4.6-7.9 6.1-11 6.6-5.6.8-33.7 6.8-33.4 7.1.2.2 9.9-.1 21.5-.5l21.3-.9 15.7-10.7c42.1-28.6 88.5-65.4 116.2-92 5.7-5.4 10.5-9.3 10.9-8.8s9.5 12.7 20.2 26.9c19.7 26.3 37.5 51.1 38.6 53.8.4 1.1-24 18.1-91 63.6-50.3 34.1-92.1 62.1-93 62.1-3.1 0-9.1-6.8-18.8-21.3-7.1-10.6-10.3-14.6-11.1-13.9-.7.5-26.8 19.5-58.2 42.2-31.3 22.7-58.7 42.6-60.7 44.2-6.7 5.3-6.1 7 12.9 36.3 14.6 22.6 29.2 47 44.8 75 7 12.6 13.9 24.9 15.2 27.2 1.3 2.4 3.7 5 5.4 5.9l3.1 1.5 168.5-93.1c92.7-51.2 168.6-93 168.8-92.8.7.9 13.4 24.5 13.7 25.5.3 1.2-32.6 18.8-259.1 139.1-57.8 30.7-80.7 43.3-81.4 45-.9 1.8 0 4.3 5.1 15 7.6 15.9 22.5 48.4 26.4 57.7 4.2 10 26.3 67.2 27.8 72 1.6 5.1 2.7 6.5 5.2 6.5 1.1 0 33.4-12 71.8-26.6l69.8-26.6-4.5-12.7c-9.6-26.6-10.4-30.2-8-33.4 1.4-2 2.6-2.5 73.2-31.4 30.3-12.4 74.6-30.5 98.6-40.4 24-9.8 44.1-17.9 44.6-17.9 1.2 0 14.7 32.8 26.3 63.9 10.3 27.7 23 63.8 23 65.4 0 1.2-222.8 74.7-226.2 74.7-3.6 0-6.7-6-12.5-24-3.1-9.9-6.1-18-6.7-18s-32.5 11.4-71 25.2c-53.6 19.4-70.2 25.8-71.3 27.5-1.3 1.9-.9 3.8 3.6 19 5.7 18.9 21.6 81.7 28.5 112.4 4.6 19.9 6.4 25.1 9.8 27.2 1.2.8 19.1-2.9 73.5-15.1 39.5-9 72.5-16.6 73.4-17 1.5-.6 1.3-2.5-2.2-18.2-4-18.3-4.7-26.5-2.6-29.3.8-1.1 21-6.7 61.7-17.1 33.3-8.5 84.6-21.6 114-29.2 29.4-7.5 54.7-13.9 56.1-14.2l2.7-.4 6.5 26.9c9.7 39.6 24.4 110.9 23.2 112.2-.6.5-1.5.7-102 17.6-47.3 8-97.6 16.6-111.7 19-14.1 2.5-26.3 4.3-27 4-3.1-1.2-5.1-7.4-8.3-25.2-1.9-10.2-3.6-18.8-3.9-19-.3-.3-33.5 6.3-73.8 14.7-53.2 11-73.7 15.7-74.6 16.9-2 2.4-1 14.6 3.2 41.1 4.5 28 8.9 62.7 11.6 92 1.5 16 2.7 23.7 4 26.7 1.7 4 2.2 4.3 5.7 4.3 4.5 0 142.9-10.9 145.8-11.5 2.1-.4 2.1-.6.8-16.2-1.6-18.9-1.4-29.7.7-31.7 1.1-1.1 17.7-3.2 61.5-8 33-3.6 87.6-9.6 121.2-13.2 33.7-3.7 61.5-6.5 61.8-6.2 2.2 2.2 11.8 139.8 9.9 141.7-.3.3-19.5 1.1-42.7 1.7-23.2.7-53 1.5-66.3 1.9l-24 .7-9.4 32.7c-10.6 37.2-19.9 65.3-30.6 92.5-4.1 10.4-7.3 19-7.1 19.2s40.1 2.7 88.8 5.6c48.6 2.8 88.6 5.3 88.7 5.4.5.3-1.6 27.6-2.1 28.1-.3.2-171-12.7-183.6-14l-3.4-.3-5.7 12.1c-23.4 49.7-61 108.8-96.3 151.4-4.7 5.8-8.5 10.6-8.3 10.8.1.2 5.8 1.4 12.6 2.8 8.6 1.8 12.6 2.2 13 1.4.4-.6 1.9-8.4 3.4-17.5 3.3-19.9 4.1-22.7 6.9-25.9l2.2-2.6 119 19.7c65.5 10.8 119.4 20 119.8 20.4 1.7 1.5-12.3 71.2-23.2 115.4-3.2 13-6 23.8-6.2 24s-52.4-12.8-115.9-29c-82.1-20.9-115.9-29.9-116.7-31.1-2.1-2.8-1.5-10.2 2.2-27.9 2-9.2 3.2-17 2.8-17.4-.9-.7-37.9-9-40.2-9-.8 0-9.6 8-19.5 17.8-36.9 36.2-72.7 62.9-112.9 84.2l-11.7 6.2-2.6 8.1c-3.6 11.5-4.1 17.6-1.8 20.3 1.3 1.5 23.7 9.9 71.4 26.8 38.2 13.5 70 24.6 70.7 24.6.6 0 1.6-1.5 2.2-3.3 9.6-30.9 11.3-35.6 13.6-38.1 2.1-2.2 3.1-2.7 5.3-2.1 6.3 1.6 221.8 70.9 222.6 71.6.9.8-3.7 15-16.6 50.9-8.6 24.1-30.6 79.8-31.8 80.5-.8.5-212.7-86.1-214.5-87.7-2.4-2.1-.7-10.6 5.4-27.7 3.4-9.5 6-17.5 5.9-17.7-.2-.2-32.2-12.3-71.2-26.9-66-24.8-70.9-26.5-73-25.2-3.2 2.1-5.5 7.1-16.2 36.2-10.4 28-23.8 60.5-36.6 88.5-7.5 16.7-10 25-8.1 27.6.4.5 76.6 40.7 169.3 89.3 92.7 48.5 168.8 88.6 169.3 89 1.1 1.1-13.5 27.3-15 26.7-.7-.3-76.2-41.5-167.8-91.6l-166.7-91.1-3 1.8c-3.4 2-4.8 4.2-22.5 36.8-14.3 26.1-31.7 55.3-46.9 78.8-10.4 16-13.5 22.8-11.7 25.7.8 1.2 36.2 26.9 119.7 86.8l4.6 3.3 10.4-15.8c10.5-16.1 16.5-22.8 19.5-22 1.8.5 178.8 119 181 121.2 1.2 1.1 0 3.3-7.9 14.7-5.1 7.3-9.4 13.5-9.6 13.7-.4.4-1.1-.1-19-15.2-29.8-25.2-70.1-53.9-112.8-80.4l-14.8-9.2-5.8-10.3c-7.8-14-14-24.4-14-23.7 0 .6 9.5 26.5 13.2 35.7 1.8 4.6 3.4 6.4 12.2 13.4 42 33.6 99.5 72.7 131.3 89.3l7.3 3.7-3.7 5.2c-20.1 27.8-57.1 75.6-58.5 75.6-1.2 0-167.1-131.8-168.1-133.6-1.7-3 1.7-9.6 12.3-24.2 6-8.3 11-15.5 10.9-15.9-.1-1.2-120.9-90.8-122.8-91.1-3.6-.6-8.4 4.5-23.7 24.9-19.8 26.3-41.1 52.6-62.5 76.9-15 17.1-18.9 22.6-18.9 26.4 0 1.4 108.8 106.5 110.6 106.9.5.1 6.7-6.2 13.8-14.1 13.5-14.8 18.1-18.6 21.5-18 1.1.2 37.3 32 80.5 70.7l78.5 70.4-1.9 2.6c-1.1 1.4-6.2 7-11.3 12.4l-9.2 9.9-10.2-11.4c-25.9-28.8-82.3-81.9-110-103.3-5-3.9-5.3-4.5-10.9-19-5.5-14.4-9.3-23.6-9.4-22.5 0 .3 2 9.9 4.5 21.4 2.8 13.2 5.1 21.6 6.2 23 10.6 12.5 52.8 54 76.8 75.4 13.3 11.8 40.4 34.1 45.9 37.7 1.4 1 2.6 2.1 2.6 2.6 0 1.3-32 33.8-53.6 54.5l-18.2 17.4-72.1-76c-48.4-51-72.1-76.6-72.1-78 0-3.7 1.9-6.2 16.3-20.8l14-14.3-54.3-53.7c-29.9-29.5-55.1-53.8-56.1-54-3.6-.6-8.8 3.5-28.4 22.3-29.3 28.2-53.3 49.5-81.2 72-10 8.1-16.3 15.1-16.3 18 0 .7 62.4 80.8 92.7 118.9l2.3 2.8 15.2-12.2c15.5-12.4 22.4-16.6 25.6-15.5 1.8.6 134.4 158.4 134.4 159.8-.1 1-24 20.7-25.1 20.7-.5 0-3-3.3-5.6-7.2-23.2-35-57.3-78.1-92.8-117.1l-7.8-8.6-2-9.3c-2.8-13.5-6.2-27.8-6.6-27.4-.2.2.1 9.7.8 21.2l1.1 20.9 8.1 11.5c26.8 38.2 62.9 82.7 88.9 109.5l10.7 11.1-8.2 6.4c-25.6 20-73.7 55.1-75.3 54.9-1.4-.1-119.9-168.3-120.2-170.6-.5-3.4 5.1-8.7 21-20.1 9.3-6.6 14.7-11.1 14.4-11.9-.3-.7-20.9-28.3-45.8-61.4l-45.3-60-4.8.4c-3.9.3-6.4 1.5-13.5 6.6-32.5 22.9-73 48.8-103.2 66-19.3 11-23.6 14-25.6 17.6l-1.6 3.1 90.7 158.8c49.8 87.4 90.9 159.4 91.1 160.1.4.8-4.1 3.8-12.3 8.4-7.1 3.8-13.6 7.3-14.4 7.6-1.2.4-20.2-33.6-82.9-148.3l-81.4-148.9-4.7 17.1c-15.5 56.3-37.8 102.6-69.6 144.9-7.4 9.7-7.9 10.7-5.8 10.7 1.4 0 3.1.9 3.9 2.2 3 4.6 83.6 196.2 82.9 196.9-1.7 1.6-33.7 13.9-34.3 13.2-.4-.5-1.9-5.8-3.4-11.8-8.3-32.6-29.4-88.2-51.1-134.5l-8.7-18.5 2.2-17.6c1.2-9.8 2.1-18.2 1.8-18.9-.2-.6-3.2 8-6.7 19.1l-6.4 20.3 8.7 26.1c7.7 23 22.1 60.7 31.6 82.5 4.6 10.7 20.2 42.4 24.3 49.6l3.6 6.2-9.7 3.7c-34 13-99.2 35-100.2 33.8-.4-.5-11.9-35.9-25.5-78.8-13.7-42.9-24.9-78.1-25-78.3-.1-.1-4.4 2.3-9.6 5.3-20.4 12.1-56 29-82.4 39.1-5.2 2-9.5 4.2-9.5 4.8s7.7 32.4 17 70.6c11.3 46.2 16.6 69.6 15.9 70.1-1.1.6-37.8 8.9-39.7 8.9-.5 0-1.2-5.7-1.6-12.7-.8-14.7-3.5-36.3-7.2-57.3-3.8-21.9-14.3-68.2-15.7-69.7-.8-.7-14.7 3.7-14.7 4.7 0 .5 2 10.7 4.5 22.7 8.3 40.4 16.4 70.3 26.7 98.6 2.7 7.6 4.8 14 4.5 14.3-1.8 1.9-123.1 22.4-124.4 21-.2-.1-4.4-29.2-9.3-64.6-5-35.5-9.2-64.6-9.4-64.7-.4-.5-51.1 2.5-79.6 4.7-27.8 2.1-60.8 4-69.7 4-5.1 0-5.3.1-6.7 3.4-2.6 6.2-11.4 19-16.5 24.1l-5.1 4.9v25.6c-.1 25.9-1.5 75.8-2.1 76.5-.4.3-26.7.8-36.6.6l-6.3-.1v-104.2l-5-5.7c-5-5.8-15-21.5-15-23.6 0-.8-7.6-1.5-25.7-2.4q-378.15-17.85-515.7-224.1c-41-61.6-64.3-132.7-72.8-222.5-2-21.6-1.7-87.4.5-109.5 6.4-63.2 19.9-117.7 43.7-177.5 9.5-23.9 15.7-37.7 36-80 23.8-49.6 25.2-53.3 25.8-66 .5-12.5-1.8-26.7-5.7-35-1.6-3.3-5.1-8.3-7.9-11-7.9-8-9.4-18.1-3.8-26.5 3.4-5.2 53.4-47.9 58.9-50.4 2.3-1.1 6.1-2 8.4-2l4.1-.1-3.6-3c-90.2-73.7-167.2-174.6-214.8-281.3-3.6-8.1-6.9-15.1-7.3-15.5-.5-.4-7-2.6-14.6-4.8-16.9-4.9-37.1-12.1-55.6-19.8-11.1-4.7-13.9-5.5-13.9-4.2.1 5.7 10.6 41.9 16.6 56.8 40.9 102.2 105.9 198.5 190.9 282.6 7.7 7.7 13.3 13.6 12.5 13.1-5-2.5-29.8-20.6-43-31.3-58.5-47.5-108.7-108.1-145.9-176.2l-9.6-17.5v136.4l14 19.4c30.6 42.2 63.8 81 103 120.2 14.3 14.3 25.3 25.6 24.5 25.1s-8.4-5.8-16.9-11.8c-38.4-27.3-85-71-119.4-112l-5.7-6.7v27.7c0 28 1.1 55.5 3.1 80.3.9 11.5 1.4 14 3.4 16.9 4.2 6.1 34.4 37.8 57.5 60.4 24.1 23.6 24.1 23.7-2.5 4.3-9.1-6.7-34.3-27.3-50.4-41.4l-3.8-3.2 3.3 22.7c5.2 35.1 5.8 37.5 17.9 74.3 20 60.6 25.1 86.5 26.2 131.1.5 23.1.4 25.1-1.5 31.5-5 16.4-18 22.2-26.9 12.1-1.8-2-4.7-8.5-7.7-16.7-14.6-40.3-18.3-49.7-24.1-61.6-10.6-22.2-20.1-34.8-43-57.3-21.8-21.5-24.8-34.2-14.9-63.4l2.4-7.1-24.3-24.5c-13.3-13.5-31.1-32.5-39.5-42.1-100.7-116.1-170.1-254.7-204.1-407.5-7.8-35.2-16.1-95.6-18.3-133.6-1.2-21.2-1.2-82.8 0-92.4.6-5.2 1-2.4 3 20.5 4.5 52.2 14 113 25.8 164.5 34 149.1 98.2 288.7 190.4 413.5 16 21.7 44.7 57.2 60.9 75.3l10.6 11.9 1.2-5.9c.7-3.2 1.2-10.5 1.3-16.3 0-18.6-4.1-35.8-17.9-75.1-4.9-14-11.2-33.3-14-42.9-2.9-9.6-5.6-18.5-6.1-19.7-.5-1.3-7.2-11.2-14.8-22-28.8-41.1-54.2-85.2-73.5-127.8-11.6-25.6-10.9-24-21.3-50.9-17.1-44.2-32.3-99-40.8-147.6-7.3-41-10.5-76.5-11.9-128.9l-.2-7.4-13.5-12.3c-15.7-14.2-45.9-44.6-58.1-58.4-60.7-68.4-104-146.4-128.3-230.8-5.8-19.9-12.5-48.4-13.3-56.8-.3-3 .9-16.3 3.2-34 3.5-26.4 3.7-29.6 2.7-36.8-1.5-9.9-6.3-20-13.6-28.1l-5.3-6-.8-9.8-.7-9.7h8.4c19.1 0 34.7-8.4 44.9-24.2 16.6-25.8 7.2-61.5-19.7-75.1-3.9-2-11.7-5.6-17.5-8.2-5.7-2.6-10.5-4.8-10.6-4.9-.2-.1.6-4.7 1.6-10.2 12.6-65.9 40.8-110 80.4-125.8 11.2-4.5 22.1-6.4 32.8-5.8 16.6.8 28.9-3.8 40.5-15.3 11.1-10.9 15.3-21.4 15.4-37.6 0-17.6-8.5-34.1-22.2-43.2-2.9-1.9-18.6-9.4-34.8-16.7s-29.9-13.6-30.3-14c-.5-.4-2.4-10.6-4.3-22.6-6.4-40.7-9.6-48.9-33.5-84.4-15.5-23-22.5-38.6-26.3-58.6-.8-4.4-2.4-13.1-3.6-19.4s-4.3-20.3-7-31c-9.6-38.3-13-56.1-14.5-76-1.3-16 2.9-37.6 8.4-43 5.9-6 23.1-10.3 42.4-10.5l13.9-.2 3.1-3.9c1.7-2.2 15.2-17.9 29.8-34.9 31.1-36.1 74.5-81.2 104.1-108l20.2-18.4 1.2 5.8c.7 3.2 2 7.4 3 9.2l1.7 3.3-5.4 4.6c-44 37.3-76.6 67.5-117.3 108.7-16.9 17.2-31.8 32.5-32.9 33.9l-2 2.6 3.4 3.2c4.8 4.4 10.1 11.2 13.9 17.6 7.8 13.2 15.3 37.7 18.6 60.5.9 6.6 2 12.3 2.4 12.8.3.4 8.1-9.1 17.2-21.1 26.9-35.5 66.8-80.8 103.4-117.8 17.6-17.6 34.2-33.9 37-36.2l5.1-4.2 4.8 7.1c2.5 3.9 4.3 7.5 3.8 7.8-.4.4-5.5 4.7-11.3 9.6-13.1 11.1-14 11.9-45 40.6-31.3 29-69.6 67.8-95.5 96.8L620 777.8l1.5 15.3c.8 8.5 2.4 29.1 3.5 45.9 1.3 19.5 2.7 33.8 3.9 39.7 8.9 41.2 39.3 118.7 90.4 230.4 18.5 40.3 22.9 53.6 30.7 91.7l3.7 18.3 15.4 15.7c39.6 40.3 76 84.4 115.9 140.2 9.9 13.9 35.5 51.6 37.8 55.6 1 1.8 1.2 1.8 4.2-1.1 7.7-7.3 17.7-24.5 20.5-35.2 2.3-8.9 1.9-16.2-2-30.7-1.9-7.2-4.3-17-5.4-21.9l-1.9-8.7 2.7-1.5c1.8-1 2.1-1.4.9-1.5-.9 0-1.9-.4-2.3-.9-.7-1.3 5.9-16.3 13.6-30.8 15.3-28.8 16.8-33.4 17.6-52.8 1.2-29.1-8.1-53.1-31.4-81.8-8.4-10.4-14-19.1-20.8-32.7-13.7-27.4-20.8-49.4-43-134-5.7-21.5-16.7-57.5-18-58.8-.3-.3-6.8 6.3-16 16.3-2.8 3.1.6-2.1 9.2-13.9 2.4-3.2 4.3-6.5 4.3-7.3 0-2.3-11.3-23.9-17.2-32.8-6.7-10.2-17.7-21.1-25.3-25.1-7.8-4.1-19.5-7.9-20.4-6.7-1.1 1.7-27.3 30.3-27.8 30.3-.2 0 2-3.3 5-7.3 15-20.4 18.9-25.8 18.6-26.1-.2-.2-2.2-1.1-4.4-2-6.3-2.7-18.1-10.4-20.9-13.7-6.3-7.4-1.8-9.3 12.7-5.4 5.9 1.6 13.8 2.9 18.7 3.2l8.5.4 3.8-4.8c2-2.6 3.7-5.3 3.7-5.9 0-.7-6.1-6.5-13.6-13-18.7-16.1-30.6-30-39.4-45.7l-3.3-5.9-9.4 9.4c-5.2 5.1-19.6 20.5-32 34.3-12.5 13.7-23.1 25.4-23.6 26-2.6 2.6 2-3.8 19.4-27 17.1-22.9 33.6-43.1 60.2-73.5 9.7-11 66.5-69 67.7-69 .3 0 2.5 2.9 4.9 6.5l4.5 6.6-2.5 2.4c-1.3 1.3-7.2 6.6-13 11.7-28.7 25.2-64.2 59.2-62.8 60.1.2.2 2.3 1.5 4.6 3 4.9 3.1 31.8 26.2 47.5 40.8 5.8 5.4 10.9 9.9 11.1 9.9.3 0 3.8-3.7 7.7-8.3 9.1-10.3 50.9-53.7 51.8-53.7.4 0 2.6 2.9 4.9 6.4l4.2 6.4-9.3 8.4c-14.6 13.1-43.7 40.2-48 44.6l-3.9 4.1 6.7 7.2c11.9 12.5 24.4 30.4 37.9 54.1 2.7 4.8 5.3 8.8 5.6 8.8.4 0 6.5-6.9 13.6-15.3 17.2-20.1 57-60.4 82.5-83.5 56.5-51 122.1-97.6 189-134.2 44.4-24.3 72.6-37.4 123.6-57.4 39.4-15.4 90.9-31.1 138.4-42.1 69.7-16.1 156.7-24.9 228.3-23 15.8.4 28.6.9 28.4 1.1-.2.3-13.4 1.5-29.3 2.9-31.3 2.7-33.6 2.9-71.3 8.1C1365.9 579.4 1158 671.3 983.5 817c-30.6 25.6-48.3 41.7-73.2 66.3-17 16.8-18.2 18.3-16.9 20.2.7 1.1 9.8 18.4 20.1 38.5 10.4 20.1 19.6 37.7 20.6 39.3l1.6 2.8 9.3-11.8c76.3-96.2 166.4-172 276-232.1 49.9-27.3 102.5-49.8 157.5-67.3 57.7-18.4 109.7-29.5 169-36.4 37.8-4.3 79.7-6.1 116.8-5 14.2.4 25.6.9 25.4 1.2-.3.2-12.8 1.5-27.8 2.9-34.1 3-82.3 9.8-116.4 16.3-223.9 42.7-422.1 149.2-585.8 314.9l-21.9 22.1 6.8 12.8c34.7 66.1 50.1 92.3 71.5 122 14.2 19.7 31.9 42.3 33.2 42.3 2.8 0 14.1-8.7 21.9-16.8 8.3-8.8 19.8-24.5 19.8-27 0-.8-1.7-3.5-3.7-6-2.1-2.6-3.9-4.9-4-5.1-.2-.3-3.8 2.9-7.9 7l-7.6 7.4 6.2-9.2c6.2-8.9 6.3-9.2 5-12.4-.8-1.7-3.8-6.1-6.8-9.8-11.4-13.9-20.2-28.9-25.5-43.8-2.9-8.1-5.7-21.5-5.7-27.7v-4.1l-13.3 13.5c-7.3 7.4-18.6 19.1-25.1 26-11.4 12-11.7 12.2-7 5.5 12-17.4 23.5-32.7 34.4-46 9.1-10.9 12-15.2 12.5-18.1 5.4-30.8 17.9-57.4 36.2-76.4 18.1-19 41.4-29.6 71.2-32.3l12.6-1.2 20.8-14.9c68-48.5 145.5-87.2 224.2-111.9 89.3-28.1 173.6-39.6 263.8-36 9.2.3 16.6.8 16.3 1-.2.2-11.7 1.5-25.7 2.9-140.2 13.9-264.7 50.8-383.9 113.8-22.3 11.8-57.3 32.4-74.3 43.8l-9.7 6.5 6.8 2.7c14.8 5.8 33.1 20.7 44.8 36.5l5.8 7.9 5.5-3.8c11.8-7.9 37.4-23.1 56.1-33.3 97.6-53.1 212.4-83.3 318.7-83.8 19.6-.1 54.7 1.1 54 1.8-.2.1-10.7 1.4-23.3 2.8-125.7 13.9-236.2 46.9-338.9 101.3-16.1 8.5-56.4 32-60.7 35.4-1.5 1.2-1.4 2 .8 10.8 4.3 16.6 4.3 28.8-.1 38.5-.9 2-1.5 8.8-1.8 20.5-.2 9.6-.8 18.4-1.2 19.4-.5 1.1 3.4-1.5 8.6-5.6 44.3-35.5 99.7-67.2 156.3-89.4 36.3-14.3 80.9-26.8 115.4-32.4 6.7-1.1 7.5-1.5 10.5-5.2 7.5-9.3 20.9-17.1 39.2-22.7 18-5.4 34.4-8.1 70.5-11.2 31.5-2.7 42.9-1.9 48 3.5 2.1 2.3 2.2 2.8 1 5.7-2.7 6.5-19.6 16.6-34.5 20.5l-7 1.9 7 .5c8.8.7 6.5 1.4-10.6 3.4-10.4 1.2-13.8 2-18.8 4.6-7.4 3.7-10.1 6.2-10.1 9.3 0 4.9 4.2 7 22.2 10.6 6.2 1.3 12.3 4.8 12.3 7.1 0 2.4-6.1 3.7-22.5 4.9-17.9 1.2-24.8.6-38.8-3.9-17-5.5-26.6-3.1-35.2 8.6-2.5 3.4-8.4 11.6-13.3 18.2-4.8 6.7-14.2 18.9-20.8 27.3-6.7 8.4-11.3 14.9-10.3 14.5 10.6-4.1 50.1-14.9 75.4-20.5 26.5-5.9 69.4-12.4 95.7-14.6l8.2-.7.5-5.1c.4-4.1 17.7-484 17.6-488.3 0-.6-1.3-1.7-3-2.4-6.3-2.6-10.8-9.6-12.5-19.3l-.6-3.7h-20.7l-.7 3.7c-2.4 13-13.4 21.1-27.2 20.1-8.6-.6-13.6-3.2-20-10.1-5.7-6.3-8.9-13.7-10.5-24.7-.6-4.1-1.2-7.6-1.3-7.8-.1-.1-14 1.6-30.8 3.8s-31 4-31.6 4c-.5 0-.1-2.7 1-5.9l2-6 6.2-.5c5.5-.5 47.8-2.6 52.1-2.6 1.1 0 1.6-.9 1.6-2.8 0-4.8 3.9-18.3 6.6-22.9 7.7-13.3 21.8-19.3 35.5-15.1 7.8 2.3 14.8 10.5 16.4 19.1l.7 3.7h20.8v-58h-11.8l-.7 3.7c-2.8 15.1-17.8 23.6-33.7 18.9-11-3.2-20.4-15.1-23.1-29.4l-1.2-6.2-6.5.6c-3.6.3-18.9 2.1-34 4s-28.8 3.5-30.4 3.7c-2.7.2-3-.2-4.7-5.2-1.1-3-1.8-5.5-1.6-5.7.1-.1 17.4-1 38.3-2l38.1-1.8.6-8.5c1.4-21.6 10.9-35.6 26.7-39.7 7.5-1.9 14.7-.7 21.2 3.6 5.4 3.6 8.5 8.2 10 14.8l1.3 5.2h11.5v-18.8c0-20 .8-24.8 4.7-30 2.7-3.6 10.9-8.7 16.6-10.2l3.7-1.1v-52.4l-6.7-1.8c-14.2-3.7-26-11.7-32-21.8-3.7-6.1-6.3-15.3-6.3-21.8v-4.4l-10.2.7c-48.4 3.1-70.8 5.1-106.3 9.6-22.5 2.8-45 5.7-50 6.5-13 2.1-12.6 2.2-15.7-4.3-1.7-3.5-2.3-5.9-1.7-6.3 2.5-1.5 32.9-4.1 75.4-6.4 39.5-2.2 50.4-2.5 77.1-1.9l31.2.7 1.1-5.3c4-18.7 18.3-32.8 41.1-40.5l6.5-2.2 1.7-10.1c4.6-26.3 13.6-38.7 32.1-43.7l5.2-1.4h-9c-42.1-.3-131.6 5.9-188.5 12.9-133.7 16.6-258.8 47-383.5 93.2-209.4 77.4-398.7 192.8-567 345.7-19.1 17.4-80 77.9-98 97.6-30.8 33.4-66.2 75.3-93.9 110.8-33.7 43.4-82.7 113.2-81.1 115.7.4.6.1.9-.7.8-.7-.2-1.2.5-1.2 1.4.1 1-.3 1.6-1 1.5-.6-.1-1 .6-1 1.5.1 1-.2 1.6-.6 1.3-1.1-.7-7.3 9.2-6.5 10.5.4.6.1.9-.7.8-.7-.2-1.2.5-1.2 1.4.1 1-.2 1.5-.7 1.3-1.1-.7-3.2 3.3-2.4 4.5.4.6.1.9-.7.8-.7-.2-1.2.5-1.2 1.4.1 1-.2 1.5-.7 1.3-1.1-.7-3.2 3.3-2.4 4.5.4.6.1.9-.7.8-.7-.2-1.2.5-1.2 1.4.1 1-.2 1.5-.7 1.3-1.1-.7-3.2 3.3-2.4 4.5.4.6.1.9-.7.8-.7-.2-1.2.5-1.2 1.4.1 1-.3 1.5-.9 1.1s-.8 0-.4 1 .2 1.6-.6 1.4c-.7-.1-1.1.6-1.1 1.6.1 1-.1 1.6-.4 1.3-.9-1-3.4 3.3-2.6 4.7.4.6.4.9-.1.5-1.2-1.1-3.8 2.9-2.9 4.5.4.6.4.9-.1.5-1.1-1.1-3.8 2.9-2.9 4.4.5.7.3.8-.6.3-1-.6-1.2-.4-.7.8.4 1 .2 1.6-.6 1.4-.7-.1-1.1.6-1.1 1.5.1 1-.3 1.5-.9 1.1-.7-.4-.8 0-.3 1.3.4 1 .4 1.5 0 1.1-1.1-1-3.6 3.1-2.8 4.6.4.6.4.9-.1.5-1.1-1.1-3.8 2.9-2.9 4.4.5.7.3.8-.6.3-1-.6-1.2-.4-.6 1.1.4 1 .4 1.5 0 1.1-1-1-3.6 3.1-2.8 4.5.5.7.3.8-.6.3-1-.6-1.2-.4-.7.9.4.9.3 1.4-.2 1.1-.9-.5-2.7 3.2-2.3 4.8.1.5-.3.5-.9.1-.9-.5-1-.2-.6 1 .4.9.3 1.5-.1 1.2-1.6-1-35.3 63.2-53.7 102.3-97.6 207.7-150.3 424.5-160.6 660.5-1.5 36-.6 140.5 1.5 173.1 9.2 138.6 30.7 260.8 68 387 103 348.4 314.8 654.6 604.6 874.2 163.6 123.9 348.8 217.9 541.5 274.9 138.2 40.9 273.3 63 426 69.8 17.5.8 24.6 1.4 18 1.5-26.5.2-90.3-2.5-127.5-5.4-262.3-21-507.5-100-735.1-236.6-142.5-85.5-279.6-199.5-392.4-326.4-127.3-142.9-231.1-310-304.5-489.5-62.6-153.2-103-317.5-119.5-486-9-92.9-10.4-191.4-4-285.5 13.1-190.7 57.8-380.7 129.4-549.7 17.8-41.9 48.7-106.6 69.1-144.3C325.4 824.9 402.8 715.4 496.9 611c21.4-23.7 73.2-76.3 97.1-98.5 193.8-180.1 421.1-311.3 670.7-386.9 51.7-15.7 73.1-21.4 117.8-31.5 99-22.3 203-35.9 305.5-40 28-1.1 102-1.2 99.5-.1m-307.3 110c11 5.2 16.9 14.1 17.6 26.6.4 7.2.1 8.9-2.1 13.7-3 6.6-8.7 12.6-14.8 15.4-2.4 1.2-23.7 6.3-47.4 11.4-23.6 5.1-43.3 9.5-43.7 9.8s2.2 16.4 5.7 35.6c3.6 19.3 6.5 35.1 6.5 35.2s4.2-2 9.3-4.7c25.9-13.6 59-15.9 84.9-5.9 31.2 12.1 52.5 41.7 60.8 84.6 2.4 12.3 2.9 33.8 1 44.4-9.7 55.5-57.8 90.1-125.5 90.3-17.3 0-26.8-1.4-40-6.1-16-5.8-23.3-14.6-24.3-28.9-.7-10.7 1.7-17.4 8.7-24.4 8.8-8.8 18.6-10.8 31.6-6.6 15.8 5.3 23.6 6.8 33.6 6.8 22.7 0 39.9-9.3 48.1-25.9l3.3-6.8-.1-15c0-12.3-.4-16.4-2.2-22.9-3-10.8-8.4-21.4-13.5-26.6-4.2-4.2-12.7-9.1-18.2-10.4-5.6-1.4-16.9-.7-23.7 1.4-9.4 2.9-16.8 8.3-29 21.3-9.6 10.3-11.2 11.6-16.3 13.2-14.9 4.6-31.6-2.2-37-15.2-.9-2-7.9-37.9-15.6-79.7-15-81.5-15-81.1-10.9-90.4 3.5-7.9 10.8-14.7 18.1-17.1 2.1-.7 29.1-6.8 60-13.6 62.3-13.8 65.4-14.2 75.1-9.5m-169.7 38.7c-.4 1-1 6.1-1.2 11.5l-.6 9.6-12.8 3.6c-7.1 2-27.4 8.6-45.1 14.7l-32.2 11.1-9.6-2.4c-8.1-2-12-2.3-27.2-2.3-9.7 0-17.5-.1-17.4-.2 2-2 61.3-22.4 103.6-35.6 7-2.2 40.9-11.5 42.4-11.6.4-.1.5.7.1 1.6m378.5 49.4c11.2.2 11.3.2 4.5 1-3.8.4-20.5 1.7-37 2.9-46.1 3.2-104.7 10.5-149.9 18.7-22.5 4.1-26.9 4.6-42.6 4.8-18.5.3-31.1 2.2-43.9 6.5-3.5 1.1-6.4 2-6.5 1.8-.5-.6-2.4-12.3-2.1-12.6.2-.2 10.8-2.3 23.6-4.8 60.4-11.5 153.7-19.8 213.4-18.8 16 .2 34.2.5 40.5.5m-484 14c22.2 5.2 40.8 19.3 54.4 41.2 4.6 7.3 26.6 56.5 31.9 71.2 6.4 18 7.9 39.5 3.8 55-8.9 33.3-37.5 59.6-80.2 73.9-15.7 5.3-26.9 6.9-42.4 6.3-14.1-.6-22.8-2.6-34.2-7.7-17.2-7.8-32.8-23.9-43.1-44.5-8.8-17.8-27.3-62.5-29.8-72-8.1-31.8-1.1-60.3 20.6-83.8 9.3-10 19.8-17.8 32.8-24.6 32.1-16.4 60-21.3 86.2-15m-124.4 23c-9.7 9.3-18 20-23.7 30.6-1.3 2.3-5.3 4.9-18 11.5-27.2 14.2-68.6 36.5-71.7 38.7l-3 2.1-6.7-4.5c-5.4-3.7-10.6-5.8-18.7-7.8-1.6-.4 27.8-17.6 62.2-36.2 20-10.9 48.4-25.4 63-32.2 14.6-6.7 26.7-12.3 26.8-12.3.2 0-4.4 4.6-10.2 10.1m243.6 16.4c.9 5 1.7 9.5 1.7 10.2.1.7-3.2 2.2-7.1 3.3-6.1 1.8-26.6 8.3-30.4 9.7-1.1.4-10.1-19.3-9.3-20.2 1.4-1.3 39.6-12.4 41.9-12.2 1 .2 2 2.9 3.2 9.2m132.9 63.7c3.6 1 12.5 7.5 11.6 8.4-.2.2-11.4 2.9-24.8 5.9-13.4 3.1-25.3 5.8-26.4 6.2-2.1.6 6.7-9.5 12.4-14.3 3.9-3.3 15-7.3 20-7.4 1.8 0 5.1.5 7.2 1.2M942.3 377c3 1.1 7 3.5 9 5.3 4 3.6 169.9 246.8 172.9 253.5 2.4 5.3 2.5 14.5.3 21.2-5.1 15.4-28.4 27-43.7 21.7-2.4-.8-50.4-22.7-106.8-48.7s-104-47.9-105.9-48.7l-3.4-1.5 1.8 2.9c1 1.5 24.7 36.5 52.8 77.7 28 41.1 51.8 76.9 52.9 79.4 3.1 6.8 2.2 18-1.9 25.3-9.3 16.6-32.2 20.3-45.7 7.6-4.9-4.7-169.4-245.8-172.9-253.5-3.2-7.1-3-16.1.6-23.4 6.5-13.2 24.7-22.7 38.3-20 3.6.8 43.8 18.7 110.3 49.3 57.5 26.5 106.1 48.8 107.9 49.6 3.2 1.3 3.1 1-5.1-10.9-35.1-51.1-97.4-143-99.1-146.3-3.1-5.9-3.4-16.4-.6-23.7 2.5-6.8 10.6-14.8 17.2-17.1 6.2-2.2 14.7-2.1 21.1.3m405.7 16.4c3.1 2.9 8 6.6 11 8.1l5.5 2.8-16.5 4.8c-9.1 2.6-20.5 6.2-25.4 7.8-4.9 1.7-9 3-9.2 2.8-.1-.1-.4-5.3-.6-11.5-.4-9.7-.2-11.5 1.1-12 2.4-.9 26.5-8 27.5-8.1.5-.1 3.5 2.3 6.6 5.3M886.8 397c-.9 5.2-.5 17 .8 20.3.4 1.1-6.3 6.1-24.3 18.3-13.6 9.2-29.8 20.5-35.9 25.1l-11.2 8.3-7.5-3.5c-4.2-1.9-9.3-3.9-11.4-4.3l-3.8-.8 14.1-11.2c11.3-9.1 79.5-58.3 80.1-57.8.1 0-.3 2.6-.9 5.6m170.5 17.2c2.6 6.1 4.6 11.2 4.4 11.4-1.4 1.4-44 23.3-44.6 22.9-.5-.2-3.7-4.6-7.1-9.6-5.8-8.4-6.1-9.3-4.5-10.3 3.7-2.2 46-25.5 46.6-25.5.3-.1 2.7 4.9 5.2 11.1m-123.4 74.9c2.8 4.1 5.1 8 5.1 8.5s-5.4 4.5-12 8.8l-12 7.9-10.3-4.7c-5.6-2.6-10.7-5-11.4-5.4s5.4-5.4 16-12.9c13-9.2 17.5-11.9 18.3-11 .6.7 3.4 4.6 6.3 8.8m419.5 5 .5 2.7-5.2-2.8c-2.9-1.6-7.2-3.4-9.7-4.1l-4.5-1.2 8.5-2.7 8.5-2.6.7 4c.4 2.3.9 5.3 1.2 6.7m-250.5 5 7.2 7.7-19 10.1c-10.5 5.5-19.5 10.1-20 10.1-1.4 0-14.6-19.3-13.5-19.7.5-.3 8.6-4.6 17.9-9.7 15.6-8.6 17.1-9.2 18.6-7.7.8.9 4.8 5 8.8 9.2m233.9 6.5c14.7 4.8 21.6 21.2 14.9 35.7-1.4 3-4.2 6.8-6.4 8.7-5.8 4.9-156.5 66.1-164.3 66.7-19.1 1.6-33.8-18.7-26.2-36 2.3-5.2 7.6-10.7 12.3-12.9 4.4-2.1 145.8-59.5 152.4-61.9 6.2-2.3 10.9-2.4 17.3-.3M1142 571.2c-3.2 5.7-5.2 14.5-4.8 21.3l.4 6.3-6.9 3.7c-3.7 2-7 3.5-7.1 3.4-1.8-2.2-12.6-19-12.6-19.6 0-.8 30.6-18 32.2-18.2.4-.1-.1 1.4-1.2 3.1m-224.8 49.9 6.2 3.1-2.9 2.4c-1.7 1.3-3.2 2.4-3.5 2.4-.6 0-7-9.7-7-10.5 0-.9.9-.6 7.2 2.6m94.2 43.2 10.9 5.2-8.9 5.9c-6.8 4.6-31 22.2-42.1 30.8-.7.6-2.9-1.6-6.7-7.1-3.1-4.3-5.6-8.1-5.6-8.4s7.3-6.3 16.3-13.4c21.6-17.2 23-18.3 24.2-18.2.6 0 5.9 2.4 11.9 5.2M397.5 947.5c3.3 1.3 62.9 28.4 132.5 60.3 141 64.6 133.7 60.7 140.2 74 3 6.1 3.3 7.4 3.3 16.2 0 8.7-.3 10.1-3.2 16.1-6.2 12.5-17.4 19.9-31.4 20.7-4.6.3-9.2-.1-11.5-.8-2.2-.7-42.7-19-90.2-40.7s-86.5-39.3-86.7-39.1 8.2 23.3 18.8 51.3l19.1 51v10c.1 8.8-.2 10.7-2.5 15.6-3.2 6.8-8.8 13.2-14.3 16.3-2.3 1.3-26.9 10.8-54.8 21.2-28 10.3-50.8 19.1-50.8 19.4s4.2 2.4 9.3 4.8c101.7 46.4 164.6 75.6 167.9 77.8 17.6 12.2 19.5 40.6 3.8 56.2-9.1 9-23.2 13.1-34.5 10.1-2.2-.6-62.7-27.9-134.4-60.7-139.3-63.8-136.3-62.3-142.6-72.1-6.3-10.2-7.2-24.4-2.2-35.4 3-6.5 10.4-14.4 16.1-17.1 2.1-1 37.7-14.4 78.9-29.7 41.3-15.4 75.2-28.1 75.3-28.2s-12.6-34.9-28.4-77.2l-28.6-77-.1-9c0-7.8.4-9.8 2.9-15.2 3-6.6 10.5-14.7 16.5-17.8 5.1-2.6 15-4.5 20.6-3.8 2.8.3 7.7 1.6 11 2.8m-49.3 463.1c99.2 13.7 142.7 20.1 146.4 21.5 12 4.5 22.4 18.6 23.2 31.3.4 7.2-37.9 285.9-40.3 292.5-4.9 13.9-19 24-33.5 24.1-8.5 0-285.2-38.4-290.8-40.4-13.8-4.9-24.2-19.7-24.2-34.5 0-9.7 3.2-18.1 9.5-24.9s12.7-10.6 21-12.3c5.7-1.1 12-.3 126 15.5 66 9.1 121.1 16.9 122.5 17.1l2.6.6 4.3-31.6c2.6-18.4 4-31.9 3.5-32.4-.5-.4-55.3-8.3-121.9-17.5-135.8-18.8-128.1-17.3-137.5-27.2-2.8-3-6.3-8-7.8-11.1-2.3-5-2.7-7.1-2.7-14.8.1-7.7.5-9.9 2.9-15.2 5.2-11.4 17.5-20.5 29.6-21.8 4.2-.5 33.8 3.3 125 15.9 65.7 9.1 120.4 16.8 121.6 17.1 2 .4 2.3-.6 6.6-31.3 2.4-17.4 4.2-32 3.9-32.3s-55-8.1-121.4-17.3c-84-11.6-122.5-17.3-126.2-18.7-10.3-3.9-19-14.1-22.2-26.1-2.9-11.2.3-23.9 8.2-32.7 7-7.8 17.6-13 26.3-13.1 2.4 0 67.8 8.8 145.4 19.6m150 399.6c24.2 11.2 29.7 42.1 10.9 60.8-5.3 5.3-11.1 8.2-19.6 10-3.3.7-6.4 1.6-6.8 2.1-.7.5 47.8 243.6 48.8 244.7.2.2 3.1-.2 6.4-.9 8.5-1.6 19.5-.7 25.4 2.1 7.5 3.6 14.9 11 18.3 18.2 2.6 5.6 2.9 7.4 2.9 15.8 0 8.2-.4 10.3-2.7 15.2-3.7 8-10.5 15-17.8 18.2-3.9 1.8-15.5 4.6-33.8 8.3-25.7 5.1-28.1 5.4-33.6 4.4-3.3-.6-8.3-2.2-11.2-3.6-7.2-3.5-15.7-12.9-17.9-19.7-1-2.9-2-5.6-2.4-6-.3-.4-64-17.8-141.6-38.8-97.5-26.4-142.3-38.9-145.3-40.7-6.2-3.5-11.7-9.5-14.9-16.1-2.5-5.1-2.8-6.7-2.8-16.2 0-9.4.3-11.1 2.7-16 1.5-3 4.5-7.2 6.6-9.3 2.2-2.1 54.9-43.7 117.2-92.5l113.3-88.7.2-8.5c.1-10.4 2.9-17.4 10.2-25.1 7.3-7.8 11.7-9.6 39.8-15.5 29.9-6.3 38.2-6.7 47.7-2.2m-225.7 57.3c1.4 20.9 3.5 45 4.6 53.5l1.9 15.5-3.7 3.2c-2.1 1.8-4.1 3.3-4.5 3.3-.5 0-.8-1.5-.8-3.3 0-1.7-.5-10.9-1.1-20.2-.9-14.4-.4-91.4.6-90.3.2.2 1.5 17.4 3 38.3m-91 45c1.8 17.7 10.1 85.5 11 89.6.5 2.3-.2 3.3-5.2 7.2-3.1 2.5-5.9 4.4-6.1 4.3-2.4-2.5-7.2-93.8-7.2-137.2 0-51 .9-54.4 3.7-13.4 1.2 18.4 3 40.7 3.8 49.5m184.1-62.8c.7 9.2 1.4 17.1 1.4 17.5s-.9 1.2-2 1.8c-2 1.1-2 .8-2-18.1 0-10.6.3-19 .6-18.6.3.3 1.2 8.1 2 17.4m190 16.9c4.7 57.3 14.9 124 27 177.4 7.5 33.3 9.3 40.1 18.9 73.5 45.3 156.8 123.3 304.4 227.9 431.4 35.2 42.7 77.5 88 113 121 24.6 22.9 27.4 25.5 25.6 24.4-9.4-6-49.1-36.9-65.9-51.2-67.5-57.9-119.6-115.9-173.3-193.1-35.1-50.4-75-123.4-99.7-182.5-7.3-17.6-22.6-58.3-26.6-70.9-4.5-14.4-4.6-15.1-3.3-19.5 2.2-7.6 1.7-23.4-1.1-31.4-2.6-7.6-8.6-17.1-13.5-21.4-1.8-1.6-3.6-3.4-3.9-4-1.5-2.4-9.9-41.4-14.6-67.8-10.7-59.7-15.9-125.3-14.5-185.3.3-17.2.8-31.1 1.1-30.9.2.3 1.5 13.9 2.9 30.3m-347.1 260.7 8 2.2 1.3 5.5c6.2 27.1 13.2 53.2 28.7 107.5 1.9 6.6 9.5 29.5 16.9 51C300 2399.9 346 2499.1 403.3 2595c25.2 42.2 59.6 94.4 80.7 122.5 7.4 9.9 19.2 25.7 26.2 35 16.2 21.8 59.7 74.3 78.8 95 40.2 43.8 52.8 57.1 77.6 81.1 15.9 15.5 38.4 36.6 49.9 46.9 28.7 25.6 29.6 26.7 10 12-31.7-24-42-32.3-71.5-58-85.3-74.3-160-157.7-225.8-251.8-29.4-42-61.8-94.1-81.9-131.8-7.2-13.4-16.3-30.4-20.2-37.6-6.4-12-35-73.3-42.3-90.8-35.4-84.6-69.7-195.7-83.7-271.6-1.7-9-3.3-17.4-3.6-18.7-.7-2.8.3-2.8 11 .1m111.1 30c.3.2 5.2 16.8 10.9 36.8 48.4 169.9 132.1 337.7 240.6 482.9 20.3 27.1 60.1 76.3 79.5 98.1 35.2 39.7 87.6 92.8 124.3 125.9 11.2 10.2 21.8 19.8 23.5 21.3 4 3.6-35.7-26.1-48.9-36.6-44.3-35.4-103.9-92.4-146.8-140.2-22-24.5-54.6-64.2-73.3-89-7.8-10.4-43.8-62-49.6-71-15.5-24.4-40.3-66.2-50.3-85-6.5-12.1-14.8-27.6-18.5-34.6-12-22.1-38.8-82.3-53.7-120.4-19-48.3-36.9-104.2-49.2-153.5-4.9-19.5-9.2-36.7-9.5-38.2l-.6-2.7 10.6 2.9c5.8 1.5 10.8 3 11 3.3m90.8 23.6c3.9 1.1 8.9 2.4 11.2 3 3.8 1 4.1 1.4 5.3 6.3.8 2.9 6.8 21 13.3 40.3 23.8 69.5 53 137.2 87.7 203.1 29.5 56.1 72.6 125.2 106.6 170.9 7.8 10.4 17.9 24.2 22.6 30.5s11.9 15.5 16 20.5c4.1 4.9 15.2 18.2 24.5 29.5 38.1 45.8 84.4 94.3 129.6 135.6 14.7 13.4 27 24.9 27.4 25.6.4.6-10.2-7.1-23.6-17.3-73.2-55.4-143-124-204.3-200.8-38.8-48.7-85.9-118.8-110.5-164.6-4.1-7.7-12.1-22.6-17.7-33-8.9-16.6-32.1-65.4-40.7-86-11.2-26.7-30.1-77.9-38.6-105-9.3-29.6-17.2-56.7-17.2-59.4 0-1.4.2-1.4 8.4.8m128.1 46.8c12.3 34.1 39.3 97 56.7 131.7 34.3 68.6 77.3 138.7 122.9 200.1 20.4 27.6 56.8 71.9 81.4 99.2 23.4 25.9 63.5 66.4 90.8 91.5 11.9 11.1 21.7 20.3 21.7 20.5s-5.3-3.6-11.7-8.3c-45.8-33.8-80.7-64-121.4-105.1-47.4-47.7-84.8-92.6-122.6-146.8-18.8-27.1-20.5-29.6-39.5-61-33-54.6-63.1-116.1-87.1-178.5-11.2-29.1-17.1-45.9-16.4-46.7.6-.5 17.4-4.1 19.8-4.2s2.9.6 5.4 7.6" style="fill: rgb(3, 50, 73);"/>
  <path d="M1716.9 137.7c-.7 4.8-1.2 14.9-1.2 22.3 0 14 1.9 31.8 3.3 30.3 1.6-1.7 3-15.6 3-30.3s-1.4-28.6-3-30.3c-.4-.5-1.3 3.1-2.1 8m-11 8.6c-1.7 6.7-1.5 22.9.4 28.7l1.4 4.5 1.3-3c2.9-6.6 2.1-33.1-1-35-.4-.3-1.4 1.9-2.1 4.8m146-2.8c-.9 2-1.3 7.5-1.3 16.5s.4 14.5 1.3 16.5l1.3 3 1.6-4c1-2.8 1.5-7.6 1.5-15.5s-.5-12.7-1.5-15.5l-1.6-4zm29.9 121.4c-7.9 2.6-13.8 9.5-13.8 16.2v3.4l1.8-3.4c.9-1.9 3.4-4.8 5.5-6.5 3.5-2.8 4.5-3.1 11.2-3.1 6.5 0 7.8.3 11.7 3 5 3.6 10.1 11.5 12.7 20 2.3 7.4 3.7 5.5 2.7-3.7-1.1-11.1-7.1-20.4-15.5-24.4-4.1-2-12.4-2.7-16.3-1.5m211.2 3.6c0 .8 1.3 2.1 2.9 2.9 2.5 1.3 3.1 1.3 4 .2s.7-1.8-1.1-3c-2.8-2-5.8-2.1-5.8-.1m-427.9 35.7c-1.8.5-5.7 3.3-8.6 6.1-6.4 6.5-8.5 12.1-8.5 22.6l.1 7.6 2.8-8.2c3.5-10.1 8.2-16.9 14.1-20.1 3.7-1.9 5.6-2.3 11.1-2 7.9.4 13 3.7 16 10.2 1.8 4 1.9 4 1.9 1.1 0-3.8-3.1-10.4-6.1-13.2-5.3-4.9-14.5-6.5-22.8-4.1m159 30.6c-5.3 21.8-12.1 54.4-16.1 77.4-1.7 9.5-3.3 18.3-3.5 19.5-.5 1.9-.1 2.3 2 2.3 1.4 0 2.5-.2 2.5-.3 0-.2 1.3-6.7 3-14.4 6.4-30.3 18-100.7 16.7-101.9-.2-.2-2.3 7.6-4.6 17.4m-94.5-9.8c1.9 17.9 13.8 75 23.9 114.5 7.1 27.7 9.3 35 9.4 32 .1-2.8-3.8-25.6-4.9-28-.5-1.1-1.1-4.7-1.5-8-1.3-13.4-20.2-94.3-25.9-111.5l-1.5-4.5zm608.4 9.3c0 1.6 3.2 4.7 4.8 4.7 1.8 0 1.4-3.1-.5-4.6-2.3-1.7-4.3-1.8-4.3-.1m-450.8 34.8c-5.3 2.7-9.2 8.2-9.8 14.1l-.5 4.3 1.4-3c1.9-4 7.7-9 12.2-10.5 8.1-2.7 18.7 1.9 24.2 10.6 1.7 2.7 4.1 8.2 5.3 12.1 1.2 4 2.4 7.3 2.7 7.3s.3-3.9.1-8.8c-.4-6.8-1-9.8-3-13.7-3.2-6-8-10.9-13-12.9-5.5-2.3-14.4-2-19.6.5m-232.7 36.8c-4.9 2.2-9.9 7-12.4 12-2.6 4.9-4.2 14.4-3.4 19.3l.6 4 2.4-7.5c4.6-14.9 12.9-22.8 23.6-22.8 8.6 0 15.3 4.2 18.2 11.6 1.3 3.3 1.7 0 .5-4.4-3.1-11.6-17.7-17.6-29.5-12.2m70.5 20.8c-.1 6 12.2 43.8 15.1 46.8 1.2 1.1 1 .5-2.8-15-3.1-12.8-12.2-36.3-12.3-31.8m108.2 3.4c-1.1 2.4-1.5 4.6-1 4.8 1.4.5 1.9-.3 2.8-4.5 1.2-5.4.4-5.5-1.8-.3m16.8 2.3v3.3l6.8.6c3.7.4 8.9.7 11.6.7 4 0 4.7-.3 4.2-1.6-.3-.9-.6-2.7-.6-4 0-2.4 0-2.4-11-2.4h-11zm704.6.4c-.8 1.3 2.3 5.2 4 5.2s1.8-1.4.4-4.1c-1.1-2-3.5-2.6-4.4-1.1m-752 12.9c-1.1 5-3.6 25.6-3.2 26 .5.5 6.6-24.6 6.6-27 0-2.8-2.8-1.9-3.4 1m21.6 10c-1.7 6.5-3.3 13.4-3.7 15.3l-.6 3.5 1.5-2.6c2-3.5 7-16.2 8.9-22.7l1.6-5.2h-2.3c-2.1 0-2.6 1-5.4 11.7m25.8 2.6c0 16.4-1.4 22.1-7 27.7-2.2 2.2-5.1 4.2-6.5 4.6l-2.5.6.6 10.2c.6 11 17.4 477.9 17.4 483.3 0 3.8-1.7 3.3 21 6.3 29.6 3.9 68.3 11.9 99 20.3 15.3 4.3 17 3.9 17-3.4 0-6.9 2.7-25.6 5.6-38.3 8.2-36.9 23.8-70.5 45.6-98.7 5.3-6.9 5.8-7.9 4.8-10.3-1.6-4.4-1.2-13.3.9-17.4 2.3-4.6 4.6-6.7 9.4-8.7 2-.8 3.7-1.7 3.7-1.9s-1.9-3.5-4.2-7.2c-22.1-36.3-26.1-82.5-11.3-127.9 5-15.1 18.7-42.6 28.8-57.7 31.6-47.4 67.5-72 110.5-75.7 32-2.8 71.9 9.1 101.5 30.3 10.7 7.5 28.6 28.6 39.9 46.8 13.5 21.7 22.3 48.7 21.7 66.5l-.2 6.2 12.9 9.7c24.9 18.7 42.8 34.5 45.7 40.6 1.4 2.9 1.4 3.5 0 5.9-2.1 3.6-9 8.8-18.3 13.8l-7.6 4.1 4.8 14.2c11.7 35.1 16.4 64.5 12.7 78.3-1.6 6-13.3 17.1-22.9 21.8-14.7 7.2-34.8 10.1-53.9 7.8-5.1-.7-9.5-1-9.6-.9-.2.2-.5 4.4-.7 9.4l-.4 9.1 4 2.1c2.3 1.1 7.1 2.3 10.8 2.6 25.7 2.4 56 19.1 86.2 47.6 31.6 29.8 89.6 75 154.6 120.5l8.5 6-6.4-8c-24.5-30.3-44.3-52-80.5-88-17.6-17.6-29.8-30.4-27.1-28.4 2.8 2 10.9 7.8 18 13 46 33.2 99.2 84.7 140 135.4 6.1 7.7 12.9 15.3 15 16.9l3.8 2.9-.7-7.9c-1-11.4 1-36.3 5-64.4 2-13.5 3.8-26.3 4.1-28.6.5-4 .3-4.3-13.5-21-28-33.9-69.5-78-105.2-111.8l-14.5-13.7 11.5 8.2c39.1 28 82.6 65.7 113.2 98.2 8.5 9 12.3 12.5 12.9 11.5 2.2-4.1 6.6-62.8 5.2-70.5-.7-3.7-1.6-4.7-9-10-30.8-22-48.5-45.1-49.8-64.7l-.4-6.1-17.3-3.2c-13.6-2.5-20.1-3.2-30.4-3.3-12.6 0-13.3.1-19.2 3-6.4 3.2-17.1 6-23.6 6-2.3 0-4.3.6-5 1.5-1.7 2.3-12.6 0-12.6-2.6 0-1.2-2.1-2.8-6.7-5-4.4-2.1-8.8-5.4-13.3-9.8-21.6-21.6-21.1-54.8 1.1-76.1 8.8-8.4 22.6-14 34.7-14 5.1 0 6.2-.3 6.2-1.6 0-1.4.8-1.6 5-1 6.6.9 8 1.5 8 3.5 0 1.1 2.2 2.8 6.2 4.7 5.7 2.7 18.1 13.3 20.4 17.5 1.5 2.6 22.3 10.7 35.7 13.9 7.1 1.6 13.4 3 14 3 .8 0 1.7-2.8 2.3-6.9 1.3-8 5.7-18.1 10.2-23.3 1.8-1.9 5.5-4.6 8.4-5.8 4.6-2 6.4-2.2 13.3-1.7 4.4.4 9.1 1 10.4 1.3 2.3.7 1.1-.6-15.9-16.6l-3.5-3.3 3.5 2.5c1.9 1.4 8.7 6.3 15 11 11.3 8.5 11.7 8.7 23.4 11.7 6.6 1.7 12.1 3 12.2 2.8.4-.4-20.5-19.2-37.6-33.8-187.9-160.7-428.3-261.2-695.5-290.8-30.1-3.4-31.5-3.4-36.4-1.7-7.2 2.6-15.9 2.1-22.5-1.3-4.7-2.5-7.2-3.1-15.3-3.6-5.4-.3-11.9-.8-14.5-1.1l-4.8-.5zm-28.9 93.3c0 1.1.3 1.4.6.6.3-.7.2-1.6-.1-1.9-.3-.4-.6.2-.5 1.3m-81.7 13.4c0 5.8.1 8.1.3 5.2.2-2.8.2-7.6 0-10.5-.2-2.8-.3-.5-.3 5.3m58.8 101.5c-.1 58.8.1 154.6.5 212.7l.6 105.8h4.7v-23.3c0-40.7-4.7-389.5-5.4-398.2-.1-2.2-.3 44.1-.4 103m23.9-91c-.3 13.7 8.4 409.4 9.1 410 .2.1 1.3.6 2.6.9 2.1.7 2.2.4 2.2-4.1 0-19.1-13.6-418.3-13.9-406.8M1735.2 678c-1.8 52-4.6 136.6-6.2 188s-3.1 99.3-3.4 106.3l-.6 12.8 2.7-.3c2.7-.3 2.8-.6 3-6.3 1.3-32.3 8.6-381.8 8.1-389.5-.2-3-1.8 37-3.6 89m27 2.2c-.7 47.5-1.7 124.5-2.2 171.3-.5 46.7-1.1 95.7-1.3 108.7l-.4 23.8h5.7V789c0-107.3-.1-195-.3-195s-.9 38.8-1.5 86.2m1135.3 24.9c-1.1 1.6.4 5.9 2 5.9 1.5 0 2-2.6.9-5.4-.7-1.8-2-2.1-2.9-.5" style="fill: rgb(3, 50, 73);"/>
  <path d="M2092 872.1c-1.9 4.4-6.9 7.8-13.6 9.1-3.3.6-6.4 1.2-6.9 1.3-2.4.6-6.5 24-6.5 37.1 0 13.4 4.6 36.2 8 39.8 2.1 2.2 54.4-38.4 67.4-52.3l4.9-5.3-.6-6.4c-.8-7.8-4.1-14.9-6.5-13.9-3.9 1.6-8.9 2.4-12.2 1.9-8.6-1.4-19.5-5.9-27.7-11.5-2.3-1.6-4.4-2.9-4.6-2.9-.3 0-1 1.4-1.7 3.1m939.5 5.9c-.9 1.5.6 6 2.1 6 .9 0 1.4-1.2 1.4-3.5 0-3.4-2-4.9-3.5-2.5m-288.1 20.2c1.5 5.4 1.7 11.8.6 17.3-1.4 6.9-5.9 17.4-9.5 22.1-2.4 3.2-2.4 3.2-1.5 17 1.7 24.2 1.5 23.5 7.7 30.6 17.4 19.8 42.1 52 62.9 81.8 16.3 23.4 18.1 26.1 33.9 52 56.8 92.7 102.9 209 125.4 316 13.3 63.3 18.7 112.6 21.4 193.9l.2 6.4 14.8 5.8c25.9 10.2 74 26 75.2 24.7 1.8-1.7-7.7-88.2-13.5-123.3-24.8-150.3-68.9-283-136.4-410.8-38-72-90.3-151.3-138.4-210.1-8.1-9.9-15.2-18.6-15.8-19.4-.7-1-22.9-6.1-27.3-6.2-.2 0 0 1 .3 2.2M1509 952c-87.1 26.5-164.7 65.3-241.5 121-17.7 12.8-17.5 12.6-23.1 22.5-13.7 24.5-36.2 43.8-59.9 51.5-6.3 2-7.9 3.1-15.6 10.7-8.2 8-8.8 9-11 16.2-1.8 5.9-2.4 10-2.4 18.1 0 9.8.3 11.1 3.8 20 2.1 5.2 4.2 9.9 4.7 10.3.4.5 3.8-1.5 7.5-4.4 17.6-13.8 46.8-28.4 82.9-41.4 6.8-2.5 9.8-4.4 21-13.8 27-22.5 62-47.6 92.1-66.2 9.8-6 13.8-9.5 36-31.4 26.2-25.7 43.3-40.6 63.8-55.3 16.1-11.6 28.6-22.5 38.8-34 9.5-10.6 24.4-29.8 23.2-29.8-.4.1-9.6 2.8-20.3 6" style="fill: rgb(3, 50, 73);"/>
  <path d="M2740 1016.9c0 1.3 4.3 28.4 13.9 87.6 3.3 20.3 7.2 45.7 8.6 56.4l2.6 19.3 14.7 27.1c20.8 38.5 34.7 68.9 51 111.2 27.1 70.5 45.3 145.2 53.8 221.5 1.8 16.8 3.4 33.4 3.4 37s.3 8.1.6 10.1l.6 3.6 27.7 13.6c25.4 12.5 53.4 25.4 59 27.2 2.3.7 2.3.6 1.7-4.1-3.2-25.1-9-67.7-10.2-74.9-9.2-54-18.7-96.8-31.6-142-34.1-120.2-86.9-234.9-155.8-338.5-16.5-24.7-40-57.2-40-55.1m-982.4 45.3c-.9 50-3.4 366-4.6 570.8-1 178.2-2.1 627.7-1.4 620 1.8-22.1 8.5-635.5 10.4-950.5.5-91.9 1.2-191.6 1.4-221.8l.5-54.7h-5.7zm41.8 40.5c.3 42.3.8 120 1.1 172.8 1.4 248.1 6.2 711 9 870.5 1.3 72.9 1.3 60.3 1-211-.5-291.3-1.3-442-4-733-.8-87.7-1.5-163.2-1.5-167.8v-8.2h-6.3zm-75.8-62.5c-1.1 21.5-10.2 345.1-15.1 532.8-7.8 299.8-15 622.5-14.3 639.5 1.1 27.1 20.9-619.6 30.2-984 2.5-96.3 4.7-181 4.9-188.3l.4-13.2h-5.5zm108.8 12c.4 13.4 2.7 102.1 5.1 197.3 5.3 205.8 11.6 425 18.5 644 5.3 167.2 11.7 347.5 11.9 336.7.7-36-14.9-675.9-24.9-1018.2-2.7-94.3-5-174.3-5-177.8v-6.2h-6.3zm-130.9-22.5c-1.6.2-10.4 1.3-19.5 2.4-66.5 8.1-132 25.5-195.7 51.9l-15.1 6.3-18.5 21.1c-45.8 52.2-62.9 68.2-109.5 102.1-11.2 8.1-27.9 20.6-37 27.7-9.2 7.2-25.9 19.1-37.2 26.6-37.4 24.7-44.4 29.5-54.3 37-5.3 4.1-9.9 7.7-10.1 8.1-.3.3.4 4.2 1.5 8.6 2.7 11.3 3.4 21.9 2 30.1-2.3 13.2-7.8 22.8-24.2 42.4-5.7 6.9-31.3 38.8-56.9 71s-52 65.3-58.6 73.6l-12.1 15-5.2 18.5c-7.2 25.6-7.1 24.3-2.1 30.9 6.1 8.1 52.8 101.8 88.7 178 60.5 128.4 93.1 212.3 91 234.3-.7 8.2-6.9 19-16.1 28.2-15.6 15.7-37.6 25.3-66.1 28.6-12.5 1.5-43.6.6-56.4-1.6-5.2-.8-9.7-1.4-10.1-1.3-2.3.9 27.7 62.5 43.4 89.3 25.3 43.1 54.3 83.4 85.9 119.5 14.7 16.7 48.9 51.1 66.1 66.3 19.2 17.1 47.5 39.7 49.6 39.7 3.4 0 12-5.3 17.7-10.9 20.4-20.2 38.6-63.8 49.2-117.6 8.5-43.4 12.3-85.9 12.4-139.5 0-32.9-.8-47.6-3.9-69.5-6.4-45.5-20.6-76-40.9-87.9-10.3-6.1-25.4-7.2-38-2.7-11.7 4.2-22.4 1.9-28.6-5.9-1.4-1.9-6-11.8-10-22-6-15.3-7.3-19.5-7.3-24 .1-6.6.9-8.3 11.9-24.4 9.1-13.4 13.5-21.4 13.5-24.4 0-1.1-2.6-7.7-5.9-14.8-26.1-57.6-38-138.1-38.4-259.9-.1-41.2.9-55.5 5.9-82.3 23.1-126.4 108.1-220.5 249.6-276.6 54.9-21.7 124.9-38.7 179.1-43.5 5.4-.4 10.1-1.1 10.5-1.5.3-.4 1.6-28.3 2.8-61.9 1.2-33.7 2.4-66.7 2.7-73.5.6-13.4 1.2-12.4-5.8-11.5m152.5 5c0 8.9 5 138.6 5.3 138.9.2.2 1.1-2.9 2.2-6.9 2.9-11.5 13.2-42.7 17.6-53.3 12.1-29.1 29.2-55.9 43-67.6 2.7-2.2 4.7-4.3 4.5-4.5-1.1-1.2-42.7-7.8-67.3-10.7l-5.3-.7zm1503 107.4c-39.9 10.9-96.1 32.1-143.2 54l-15.3 7.1-14.5-1.1c-8-.7-16.5-1.4-19-1.6-7.5-.8-2.1 1.1 17.9 6l18.3 4.6 17.2-5.7c46.8-15.5 87.8-32 124.1-50 24.1-11.9 33.9-17.4 31-17.3-1.1 0-8.5 1.8-16.5 4" style="fill: rgb(3, 50, 73);"/>
  <path d="M1677 1203c-73.8 9.9-142 30.4-201.9 60.6-22.3 11.3-26.3 14.3-6.1 4.5 58.9-28.3 137.4-47.6 202-49.6l16.5-.5-16.5 3.5c-103.9 21.8-191.1 59.2-252.5 108.1-13.7 10.9-39.4 36.5-50.2 50.1-32.8 41-54 91.1-60.7 143.8-3.1 24.3-3.9 47.6-3.3 97 1.3 99.3 8.2 150.8 26.7 197.5 2.1 5.2 4.3 12.2 5 15.4 1.7 8.2-.5 16-7.4 26.3-23 34.2-29.6 44.3-29.6 45 0 .4 2.6 7.4 5.8 15.6 5.1 13.2 5.9 14.7 7.7 14.2 11.6-3.7 18.5-4.7 29-4.2 18.1.8 30.8 6.3 43.6 18.9 14.2 13.8 24.8 34.6 32.3 62.8 2.5 9.5 1.7 2.1-1.4-13.5-8-39.4-22.7-67.1-43.3-81.6-3.9-2.7-6.7-4.9-6.3-4.9s4 1.5 7.9 3.3c35.5 16.6 59.5 64.8 68.2 137.2 5.2 43.2 4.4 108-2 161-7.7 63.1-25.3 122.4-47.6 160-11.5 19.5-28.9 38.7-41.7 46.2-4 2.4-7.4 4.3-7.6 4.3s3.8-4.2 8.9-9.3c13.1-13.2 22.2-27.7 32-51.2 4.4-10.6 13.5-37.5 13.5-39.8 0-.7-1.8 3.1-3.9 8.3-9.9 24.5-21.8 43.8-35 57-23.9 23.7-49.1 24.6-75.3 2.8l-4.8-3.9-23 19.6c-12.6 10.8-23 19.9-23 20.2s1.6 2.3 3.5 4.4c10.1 11.2 16.2 34.5 15.2 58.2-.7 17.4-2.9 23.6-25.9 71.2-18.9 39-28.3 59.9-37.5 82.8-18.5 46.8-31.5 94.3-38.2 140.7-4.6 31.4-5.6 46.8-5.5 87.5v39l2.7 10.1c4.2 16 4.7 16.3 3.9 2.9-.4-6.6-.6-28.9-.6-49.5.1-33.7.4-39.7 2.7-59 8.8-72.9 29.2-136.8 66.9-210 37.5-72.9 37.4-72.6 40.9-85.5 1.7-6.5 1.8-6.6 1.3-2-1.5 13-6 25.3-24.4 67-18.2 41.2-26.7 62.5-37 93.5-21.4 63.9-31 122.3-31 187.5 0 52.9 6.4 101.1 19.6 146.7 3.8 13.5 6.8 18.8 21.8 38.8 68.2 90.8 175.6 154.1 317 186.9 9.8 2.3 18.1 4 18.3 3.8.2-.3-1.6-.9-4.1-1.6-7.9-2-35.4-11.1-49.9-16.6-36.7-13.7-74.4-32.7-103.2-51.8-11.5-7.7-12.2-8.3-5.5-5.7 50.9 20.2 103.2 34.4 160 43.4 48.9 7.9 95.9 11.9 155.1 13.3l27.9.6v-125.5c0-79.2-.4-129.4-1-135.9-1.5-14.4-4.5-32.9-8.1-48.9-2.9-13.1-5.4-22.8-19.3-73.4-14.4-52.5-22.6-102-22.6-136.8v-9.6l-6.2-.7c-8.8-.9-33.8-4.5-36.7-5.2-2.4-.6-2.4-.6-.4-1.4 1.7-.6 20.8-3.3 47.1-6.5l4.2-.5v-346.8l-22.2-.3c-25.4-.3-27.8-1-33.2-8.6-7.6-10.8-2.1-25.5 10.9-29.1 2.3-.6 12.7-1.1 24.3-1.1 11.1 0 20.2-.1 20.3-.3.2-.9 6.5-233.3 6.3-233.5-.1-.2-6.6-1-14.5-1.8-18.6-1.9-41.8-5.3-43.7-6.3-1.5-.8 10-2.9 29.1-5.2l9.7-1.2.1-3.6c0-2 6.9-192 15.2-422.4l15.2-418.7-5.5.1c-3 0-11.6.9-19 1.9m-50 911.1c8.9 1.4 14.1 3.9 20.4 9.9 7.2 6.8 10.3 13.8 11.6 26.3 1.2 11.6.2 17.6-4.1 24-4.8 7.3-14.7 12.7-23.4 12.7-10.7 0-22.6-8.7-26-18.9-2.2-6.6-1.7-15.1 1.2-20.9 1.1-2.3 1.7-4.2 1.3-4.2s-2.9 2.4-5.7 5.2c-20.6 21.9-33.4 60.3-38.3 114.4-.6 6.7-1.5 27.6-2 46.5-.5 19.1-1.6 40.4-2.5 47.9-7.7 64.4-30.2 115.5-61.9 140.7-31.4 24.9-64.2 20.7-75.7-9.6-2.4-6.4-4.1-28.4-2.8-35.7 3.9-20.7 29.4-29.3 45.3-15.3 6 5.3 8.7 10.7 9.4 18.5.9 11.5-4.8 21.8-15.2 27.1-4.1 2.2-6.5 2.7-12.3 2.7-4 0-7.3.2-7.3.3s2 1.4 4.3 2.8c11 6.4 25.9-.3 38.7-17.5 18.1-24.5 29.8-62 35-112 .6-5.8 1.5-26.1 2-45.2 1.3-45.2 3.5-65.4 10.1-92.7 15.4-63 49.6-104.1 89.9-107.9.8-.1 4.4.3 8 .9m777-899.4c-2.1 10.5-10.8 47.6-14.9 63.8l-4.1 16 4 5.5c89.9 125.1 138.2 258.5 149.1 411.5 1.5 20.7 1.5 77.5 0 98-5.2 73.1-17.8 136.2-40 201.8-3.4 9.8-6.1 18-6.1 18.3 0 1.6 26.1-3.1 76.7-13.6 53.6-11.3 76.8-17.4 118-31.2 13.2-4.4 24.6-8.4 25.2-8.7.7-.5.3-4.7-1.4-13.5-3.5-18.1-7.1-44.8-9.2-67.6-2.4-27.3-2.4-90.3.1-118.5 5.1-57.7 14.6-109.4 30.2-163.2 7.1-24.6 29.4-91.6 31.2-93.6 1.1-1.2 2.6-1.7 4.2-1.5l2.6.4-4.7-20.1c-2.6-11-6.6-26.3-8.9-34-2.2-7.7-5.6-19.4-7.5-26-9.2-31.9-30.9-88.5-47.5-123.9l-9.8-21.1-15.4-.5c-13.7-.5-16.4-.9-25.8-3.9-14.7-4.7-47-13.9-47-13.4 0 .2 1 2 2.3 4.1 1.3 2 7.1 12.7 13 23.7 42.5 80 69.7 168.1 79.3 257 2.9 27.2 4.4 67.8 3.3 89.5-.4 8.5-.8 18.2-.8 21.4-.1 3.3-.3 5.7-.6 5.4s-1.7-10.8-3-23.4c-13.4-124.2-46-234.8-100-339-11.2-21.5-26.3-47.2-28.4-48.3-.9-.5-9-3-18.1-5.6-20.9-5.9-59.8-18.7-80.5-26.4-8.7-3.3-16.1-5.9-16.2-5.7-.2.1 3 4.1 7 8.7 72.8 85.1 121.5 190.3 139.6 301.9 5.6 34.6 6.6 48.5 6.5 91.5-.1 45.2-1.1 52.4-3.8 27.9-18-163-75.6-305.8-173.2-429.5-11.1-14-12.9-15.8-17.5-17.8-2.8-1.1-5.5-2.1-6-2.1-.4 0-1.3 2.6-1.9 5.7m-543.1 7c0 1.6 6.6 187.6 14.8 413.4l14.8 410.6 9.5 1.2c16.9 2 31.1 4.5 29.8 5.2-1.8.9-27.4 4.6-44.2 6.4-7.6.7-14 1.6-14.3 1.9-.3.2.9 51.2 2.6 113.3 1.7 62 3.1 114.5 3.1 116.5v3.8h20.8c11.4 0 22.4.5 24.5 1.1 4.7 1.3 10.6 6.3 12.3 10.6 1.7 3.9 1.8 11.1.3 15-1.3 3.5-5.4 7.9-9.4 10.1-2.5 1.4-6.9 1.8-25.2 2l-22.3.4v346.7l3.3.5c1.7.3 10.9 1.4 20.2 2.5 9.4 1.1 19.9 2.6 23.5 3.2 6 1.1 6.3 1.3 3.5 2.1-1.6.4-11.8 2-22.5 3.4-10.7 1.5-19.6 2.7-19.6 2.8-.1 0-.7 8.9-1.4 19.6-2.8 47.1-8.7 78.6-28.1 148.3-12.3 44.6-16.4 62.6-20.6 91.9-1.4 9.9-1.7 27.5-2 138.8l-.4 127.6 21.8-1.8c132.6-11 232.4-39.8 305.3-88.3 47.4-31.6 78.9-66.6 102.9-114.5 20.4-40.8 31.4-83.4 35.1-136 4.1-59.5-6-138.9-26.9-211-1.7-5.7-2.9-10.6-2.7-10.7.6-.7 20.6 39.6 26 52.4 22.3 53.3 35.6 106.4 39.6 158.5 1.6 20 .8 63.8-1.5 79.7-5.3 38.2-16.3 75.4-31.2 105.6-2.4 4.9-3.7 8.2-2.9 7.1.8-1 5.1-8.9 9.5-17.5 26.1-51.3 38.1-104.7 38.1-169.7 0-82.5-20-166.6-61-255.4-23.2-50.5-45.7-87.4-94.8-156-31.8-44.4-44.4-63.9-56.6-88-16-31.4-27.3-64.6-35-103-13-64.5-16.2-162.1-7.6-231.2 7.5-59.7 22-99.2 55.4-150.7 3.6-5.6 6.4-10.1 6.2-10.1-.7 0-12.4 16.6-21.2 30-21.4 32.7-35.3 64.3-48.3 110.5-4.2 14.7-7.7 29.1-15.9 65l-1.9 8-.8-13c-1.4-22.3.4-60 4-86 7.1-50 20.8-86.7 53-141.5 23.5-40.1 34.6-64.4 43-93.7 12.6-44.2 18.7-97.2 20.1-174.3.9-44.8-1.1-67.5-8.6-97-19.1-75.5-71.8-138.9-158.5-190.7-14.6-8.8-42.5-23.9-51.5-28.1-30.6-13.9-43.1-20.3-39-19.7 30.6 4.5 76.6 17.1 104.6 28.6 5.5 2.2 10.6 4.3 11.4 4.6 3.3 1.2-13.5-8.9-21.7-13.1-21.5-10.8-66.4-26.9-101.6-36.6-15.9-4.3-56.5-14-58.9-14-.5 0-.8 1.2-.9 2.7m96.1 894.5c34.5 10.4 64.2 53.6 77 112.2 5.2 23.4 7 40.9 8 79.1 1.7 60.4 6.1 91.9 17.5 124.4 14.2 40.7 39.3 65.9 57.1 57.5 6.2-2.9 5.8-3.9-1.4-3.9-23.3-.2-36.1-26.2-21.9-44.6 6.9-8.9 18.9-12.7 30.2-9.5 7.9 2.3 15.6 10 17.9 17.6 3.3 11.1 1.5 32-3.8 43.5-8.5 18.7-30.3 26.3-52 18.1-37.7-14.2-68.4-64.8-80.6-132.5-3.4-19.4-5-39.2-6-75.6-.5-19.2-1.4-39.3-2-44.5-5-47.7-15.4-80.8-32.1-103-4.6-6.1-11.9-13.3-11.9-11.7 0 .2 1 2.3 2.1 4.8 1.6 3.1 2.2 6.3 2.2 10.9 0 24.8-29.3 37-46.9 19.5-5.9-5.9-8.4-12-8.4-20.9 0-20.2 7.3-33.7 21.7-40.3 10.1-4.6 20.5-5 33.3-1.1m809.1-873.8c-2.2 12.6-4.6 17.3-13.6 26.2-6.9 6.9-9.8 9-18.6 13.3-5.7 2.8-11.9 5.4-13.6 5.7-1.8.4-3.3 1.2-3.3 1.9 0 .6 3.2 8.1 7.1 16.6 21.4 46.5 43.4 113 54.5 165.3 1.6 7.5 8.8 47.7 10 56 .6 4.7.8 4.9 8.8 10 20.1 13 78.6 47 79.4 46.2.4-.5-2.7-20-6.9-43.1-13.7-74.6-34.4-145.9-62.7-216.6-9.3-23.2-28.3-65.5-37.4-83.3l-2.5-5zm451.6 28.3c-.4.3-.7 1.9-.7 3.5 0 3.3 2.5 3.9 3.3.7.9-3.4-.8-6.1-2.6-4.2" style="fill: rgb(3, 50, 73);"/>
  <path d="M2375.5 1330.6c-18.9 67.1-38 124.8-61.2 184.9-4.3 11-6.4 15.2-7.9 15.9-2.1 1-2.1 1.1-1.6 31.5.7 45.2-1.9 104.5-6.3 145.2-6.2 56.5-15.2 93.8-31.7 131.2-5 11.4-6.7 16.3-6.2 18 .9 3 7.6 13.9 16.8 27.4 7.7 11.5 9.2 15.5 8.3 22.4-.9 6.5-14.7 39.8-18.1 43.7-6.3 7.1-16.1 9-27.2 5.1-9.3-3.2-21.6-3.6-30.1-1-29.2 8.8-47.2 50.4-52.3 120.6-2.1 29.1-1 81.2 2.5 117.5 8 82.1 28.7 148.1 55.6 177.3 15.9 17.2 29.5 18.3 46.9 3.5 3.6-3 8.1-6.3 10-7.3 4.3-2.2 13.2-2.4 18-.3 1.9.9 11.4 8.3 21 16.6 12.8 10.9 17.9 14.7 19 14.2 2.2-1.2 47.2-44.2 54.9-52.6 7.6-8.1 7.4-7.7-3.7 8.6-8.7 12.9-26.3 35.4-36.4 46.9l-5.8 6.5 5.1 4.9c2.8 2.6 5.7 6.5 6.6 8.5 3.5 8.4.7 19.3-6.4 25-7.2 5.6-11.6 19.1-12.9 38.7-.6 9.5-.5 10.5 2.6 19.7 2.4 7.2 3.6 9.6 4.5 9 2.8-1.5 42.5-34.4 53.5-44.2 6.3-5.6 21.1-19.5 32.8-30.7 19-18.4 21.1-20.7 20-22.3-.7-1-6.8-9-13.5-17.9-58.8-77.4-103.8-176.4-126.7-278.6-5.7-25.7-17.6-89.4-17-91 .4-.9 1.4-1.9 2.3-2.4 1-.5 12.7.2 29.6 2 63.4 6.4 75.6 7.2 108.5 7.3 29.9.1 51.7-1.2 57.6-3.4 1.8-.7 3.1-3.8 7.2-16.7 43.9-136.6 48.8-278.8 14.6-416.8-20.3-81.7-54.7-159.7-101.9-231.5-8.8-13.4-26-37.7-28.5-40.4-.5-.5-1.6 1.8-2.5 5m1048 45c-36.9 4.4-89.1 15.8-137.5 29.7-12.4 3.6-23.6 7-25 7.5-1.7.6-3.9.5-7-.4-7.7-2.2-28.1-6.5-29.2-6.2-1.8.6 33.7 14.8 37 14.8 1.7 0 11.8-1.6 22.4-3.6 51.6-9.5 105.7-23.6 142.1-37 8.4-3.1 15.4-5.8 15.6-6 .8-.7-7.2-.2-18.4 1.2m-155.8 110.1c-.6 3.1.7 5.3 2.2 3.7.5-.5 1.3-2.1 1.6-3.7.6-2.3.4-2.7-1.3-2.7-1.4 0-2.1.9-2.5 2.7m-191.6 88.9c0 1.1.3 1.4.6.6.3-.7.2-1.6-.1-1.9-.3-.4-.6.2-.5 1.3m1.7 22.9c.4 9.9.5 29.6.4 43.7l-.4 25.8 2.7 1c4.7 1.8 5.5 1.4 5.5-3.2 0-6.8-3.9-47.2-6.5-67.1l-2.4-18.2zm344.7 19.2c-37.6 1.8-68.7 4.7-105.7 9.9l-25.7 3.7-17.2-6.7c-9.5-3.6-17.4-6.4-17.6-6.2s7.7 5.1 17.6 10.8l17.9 10.5 21.8-.8c57.3-2.2 108.7-8 150.9-17.2l15-3.2-9-.6c-8.9-.7-36.4-.8-48-.2m-216.7 68.6c-17.5 1.1-31.7 2.2-31.5 2.3.5.6 35.3 5.4 52.7 7.4 10.2 1.1 20.2 2.2 22.3 2.5l3.7.5v-5.2c0-9.6-.2-9.8-8.4-9.7-3.9.1-21.4 1.1-38.8 2.2m-1917.7 37.5c-.1.6.6 5.8 1.4 11.5 5.8 39.1 13.8 67.8 26.7 96.5 3.4 7.6 6.7 15.9 7.4 18.7l1.2 5 1.6-3.7c.9-2.1 1.6-6.1 1.6-9.1 0-4.8-1.1-7.6-9.9-25.5-13.2-26.9-20.1-47.6-27.1-81.2-1.6-7.4-2.9-12.9-2.9-12.2m1563.3 44.6c-16.7 3.2-32.3 10.5-41.6 19.4-4.4 4.2-5 7.9-1.5 8.6 1.2.3 11.9 1 23.7 1.6 37.5 1.8 52.3 6.8 88 29.9 13.4 8.6 16.5 8.1 14.2-2.6-2.7-12.8-15.1-32-27-41.8-7.4-6.1-17.2-11.6-25.1-13.9-7.7-2.3-22.2-2.8-30.7-1.2m248.6 77.1c-19.4 4.3-42 17.7-42 24.8 0 1.6.8 3 1.9 3.7 1.1.5 10.2 1.2 20.2 1.5 20.6.6 26.8 1.7 46.4 8.1 18.9 6.2 28.6 10.9 36.5 17.9 7.5 6.6 14.9 10.5 20.2 10.5 3.2 0 3.9-.4 4.4-2.6 1-4.1-.3-9.2-4.6-18.3-10.8-22.4-29.3-39.1-49.6-44.5-8.6-2.4-25.4-2.9-33.4-1.1m-2353 48.3c0 3.9 8 55.5 11.6 74.7 19.1 101.3 50.2 191.8 98 284.3 13 25.1 30.9 55.4 30 50.7-7.8-40.6-12.6-92.4-12.6-135.5 0-43.2-2.9-57.4-22.4-111-3.1-8.5-8.4-23.2-11.7-32.5-3.4-9.4-12.1-32.3-19.5-51-10.5-26.7-14-34.5-16.2-36.2-1.5-1.2-9.4-7.2-17.7-13.4-8.2-6.1-20.5-15.6-27.2-21.1-6.8-5.4-12.3-9.5-12.3-9m2093.7 101.9c-1.4 1.4-.6 14.3 1.4 21.9 4.4 17 16.3 40.7 28.4 56.4 11 14.3 24.7 26 40.3 34.4 6.9 3.6 7.7 4.4 8 7.2.3 3.1.6 3.2 7 4.5 10.3 2 30.8 1.5 42.8-1 26.5-5.5 54.8-19 76.5-36.6 9-7.3 15.1-14.9 14.7-18.4-.3-2.3-.8-2.6-5.1-2.9-2.6-.2-12.1 1-21 2.7-51.3 9.6-80.2 7.9-110.4-6.4-19.2-9.1-32.7-19.2-57.3-42.9-18.8-18.1-23-21.3-25.3-18.9m413.9 57.8c7.3 7.7 14.3 15 15.5 16.2 5.2 4.6 77.7 20.5 124.6 27.2 29.9 4.3 64.5 7.2 61.3 5.3-3.1-2-35.4-11.4-57-16.6-34.2-8.3-83.4-17.3-113.7-20.7l-11.3-1.2-12.9-9.8c-20.2-15.1-20.4-15.1-6.5-.4M1706 2066.1c0 3-1.4 53.5-3 112.4-1.6 58.8-3 108.9-3 111.2v4.3h21.5c21.5 0 21.5 0 21.9-2.3.3-1.2.8-53.1 1.1-115.3l.6-113.2-10.8-.6c-5.9-.4-14.7-.9-19.5-1.2l-8.8-.6zm130.5-4.1c-6 .4-12.7.8-14.7.9l-3.8.1v30.7c0 17 .3 68.9.7 115.5l.6 84.8h42.5l-.4-8.3c-.2-4.5-1.5-52.3-2.9-106.2s-2.8-102.6-3.1-108.3l-.6-10.2-3.6.2c-2.1.1-8.6.5-14.7.8m-75.9 47.2c-.3 25.5-.8 77.5-1.1 115.5l-.6 69.3h45l-.4-46.8c-.3-25.7-.8-77.6-1.1-115.5l-.6-68.7h-40.6zm1494.6 23c-1.7 1.7-1.5 4.8.3 4.8 1.4 0 3.5-2.9 3.5-4.9 0-1.5-2.3-1.4-3.8.1m-481.9 15.5c-18.4 7.6-34.7 9.6-63.6 8-15.9-.9-18-.8-19.4.6-1.5 1.5-1.4 1.9 1.1 5.7 5.3 8 23.3 18.9 38.3 23.2 10.9 3.1 26.1 3.1 35.8.1 9-2.9 18.1-8.3 26.1-15.6l6.3-5.8-7.6-9.7c-4.1-5.3-7.8-9.8-8.2-9.8-.3-.1-4.3 1.4-8.8 3.3" style="fill: rgb(3, 50, 73);"/>
  <path d="M2553 2188.1c-15.2 8-27.4 13.2-39 16.6-9.4 2.7-9.8 2.8-39 2.8h-29.5l-.3 2.2c-.8 5.8 18.1 19.9 34 25.4 26.7 9.2 48.8 4.4 69-14.9 8.9-8.5 16.6-19.3 19.8-27.8 4.4-12 1.3-12.9-15-4.3m459.8 23.5c-28.4 11.2-52.7 16.4-80.5 17.1l-18.2.5-.5 2.7c-.3 1.4-1.2 7.8-2.1 14.1-8.2 58.8-27.5 121.6-52.5 170.9-25.4 50.3-59.6 91.6-95.5 115.5-16.3 10.9-36.3 19.4-54.5 23.3-11.8 2.5-43.6 2.5-56.5 0-14.2-2.8-26.9-6.5-41.3-11.9-7.3-2.8-13.4-4.9-13.5-4.7-3.8 6.1-31.6 39.5-47.3 56.9-15.6 17.3-50.7 51.9-69.4 68.5-12 10.6-42.9 35.9-57 46.6l-3.4 2.6 2.3 9.4c3.8 15.7 8.8 40.7 10.7 53.9.9 6.9 1.8 12.6 2 12.8.6.9 39.8-26.3 63.9-44.3 62.7-46.9 122.3-100.7 175.2-158.3 10.7-11.6 19.7-21.2 20-21.2.5 0 .4.2-16.9 23.7-44.9 61.2-105.5 123.6-170.8 175.8-13.1 10.5-34 26.3-46.4 35-15.6 11.1-22.4 16.5-22.1 17.5 1.1 3.9 2.6 52.1 2 65.4-.4 8.4-.4 14.6.1 14.4 61.4-35.3 140.1-92.5 199.8-145.1 31.6-27.9 85.2-80.7 112.7-111.2 20.1-22.2 19.6-21.7 15.3-15.5-21.1 30.2-57.4 74.9-84 103.4-67.9 72.7-148.1 138.3-230.6 188.6l-15.6 9.5-1.1 9.9c-.6 5.5-.9 10.1-.7 10.4.6.5 38.5-21.2 57.4-33 147.5-91.8 269.7-210.6 367.9-357.6 63.9-95.7 117.1-205.3 154.8-318.7 6.9-20.9 10.6-32.6 10.2-32.4-.1.1-6.4 2.6-13.9 5.5M1693.4 2237c0 6.9.1 9.7.3 6.2.2-3.4.2-9 0-12.5-.2-3.4-.3-.6-.3 6.3m1502.2 12.1c.5.8 6.2 8.8 12.7 17.7 13.5 18.4 9.6 15.7 40.2 27.9 36 14.4 78.1 28.5 110 36.8 15.3 4.1 40.8 9.6 41.4 9 1.1-1.2-46-22.1-70.1-31.1-27.2-10.2-76.9-26.2-99.3-31.9-7-1.8-7.1-1.9-21.4-15.9-7.9-7.8-13.9-13.4-13.5-12.5m-1327.4 5.9c0 1.9.2 2.7.5 1.7.2-.9.2-2.5 0-3.5-.3-.9-.5-.1-.5 1.8M1699 2506.1v173.2l4.4-.6c2.4-.4 12.3-.9 22-1.3l17.6-.7V2333h-44zm60-1.6V2676h45v-343h-45zm60 .3v171.9l17.8.7c9.7.4 19.4.9 21.5 1.3l3.7.6V2333h-43zm1375.9-161.7c-1.6 3.2.4 4.8 3.1 2.4 1.1-1 2-2.4 2-3.2 0-2.1-3.8-1.5-5.1.8" style="fill: rgb(3, 50, 73);"/>
  <path d="M2674.8 2352c-31.7 5.1-59.7 24.8-81.9 57.9-12.2 18.1-20.9 37.9-20.9 47.5 0 8.8 2.5 7.9 23.5-8.9 28.5-22.8 46.4-33.6 67.3-40.9 16.1-5.6 25.2-7 44.7-7 20.8 0 30.6 1.4 62.4 9.5 12.8 3.2 24.4 5.9 25.6 5.9 7 0 4.6-6.7-6.5-18.4-19.9-20.9-51.3-38.3-79.3-44.1-9.7-1.9-27.3-2.7-34.9-1.5m-231.3 77.6c-24.5 31.8-54.9 64.3-88.3 94.4l-8.3 7.5 14.8 31c8.2 17 15.5 32.4 16.3 34.2l1.5 3.2 13.1-9.7c30.2-22.4 78.2-64.1 106.2-92.4l14.2-14.3-7.2-6.2c-8.3-7-37.8-36.8-48.4-48.7l-7-7.9zm60.4 75.7c-17.9 21.7-38.7 44.4-57.2 62.3-15.1 14.7-41.7 38.4-52.5 46.8-3.4 2.7-6.1 5.4-5.8 6 3.8 8.6 13.2 33.5 18.7 49.5 3.8 11.3 7.1 20.6 7.3 20.8s11.1-7.6 24.2-17.3c31.6-23.4 62.8-49 89.4-73.3 17.3-15.9 57.7-55 61.6-59.8l3.4-4.2-12.2-6.3c-16.8-8.7-30.2-17.3-47.8-30.5l-14.9-11.1zm-818.4 195.2c-5.2 5.1-1.4 13.9 6 13.9 2.9 0 4.3-.7 6.1-2.8 4.9-5.6 1.3-13.6-6.1-13.6-2.5 0-4.4.8-6 2.5m59.7-.2c-4.4 4.7-2.1 12.7 4.2 14.3 5.4 1.3 11.5-4.9 10.1-10.3-1.5-6.3-10-8.6-14.3-4m59.8-.3c-4.3 4.3-3.3 10.7 2.1 13.5 5.9 3.1 11.9-.6 11.9-7.3 0-2.7-.7-4.5-2.3-6-3-2.9-8.9-3-11.7-.2m59.5.5c-5.2 5.1-1.4 13.9 6 13.9 2.9 0 4.3-.7 6.1-2.8 4.9-5.6 1.3-13.6-6.1-13.6-2.5 0-4.4.8-6 2.5m1128 26.8c-1.9 1.4-1.3 3.7.9 3.7.7 0 2-.8 2.9-1.8 2.7-3-.2-4.4-3.8-1.9m-1281.9 70.2c1.2 8.5 7.6 39 12.9 61 8.8 36 11.3 47.1 13.4 59.8 4.6 26.5 5 35.9 5.5 143.2.3 56.1 1 114.6 1.5 130 1.6 42.7 4.2 93.5 5 98 1.1 6.5 4.4-61.1 6.1-125 1.3-51.7 1.3-190.7 0-205.5-3-32.6-7.8-52.2-27.4-112-8.4-25.6-15.8-48.1-16.4-50l-1.1-3.5zm1138.7 96.2c-2.2.8-1.4 3.3 1 3.3 2.9 0 5.1-1.5 4.3-2.9-.7-1.1-3.1-1.3-5.3-.4m-170.5 144c-1.9.5-2.4 2.8-.9 3.7 1.5 1 6.3-1.3 5.8-2.7-.4-1.3-2.3-1.7-4.9-1M1166.9 323.1c-15.2 2.2-32.3 13-38 24-2.8 5.5-3.7 17.4-1.9 25.1 1.5 6.1 22.5 55.4 27.5 64.4 6.9 12.3 18.1 19.4 30.6 19.4 7.9 0 13.7-1.5 23.4-6 10.4-4.8 17.5-11.3 21.6-19.6 3-6.1 3.2-6.8 2.7-15.8-.5-9.3-.6-9.6-11.8-35.8-6.2-14.4-13-29.7-15.2-33.9-8.8-17.2-21.6-24.4-38.9-21.8m20.7 22.1c2.4 3 9.7 16.8 9.1 17.4-.1.1-7.6 3.2-16.6 6.9-9 3.6-19.8 8.1-24 10.1-7 3.2-7.7 3.4-8.8 1.8-2.3-3.2-5.3-12.5-5.6-17.2-.2-4.5-.1-4.7 3.8-6.6 4.5-2.2 37.6-15.6 38.7-15.6.3 0 1.9 1.5 3.4 3.2M349.5 1996c-37.4 29.3-68.6 53.8-69.3 54.4-1 1 16.6 6.1 83.4 24 46.5 12.5 84.7 22.6 84.9 22.4s-27.9-139.7-30.7-152.6c-.2-.8-28.9 21-68.3 51.8m37.4 28c2.8 15.7 5.7 31.6 6.6 35.4s1.4 7 1.3 7.2c-.6.5-16.2-3.7-17.4-4.7-1.3-1-1.5-2.5-4.9-31.9-1.4-11.3-2.7-22.4-3-24.7-.6-4-.5-4.2 5.2-8.8 5.1-4.2 5.8-4.5 6.5-2.9.4 1.1 3 14.7 5.7 30.4" style="fill: rgb(3, 50, 73);"/>
</svg>