<?xml version="1.0" encoding="utf-8"?>
<svg xmlns="http://www.w3.org/2000/svg" version="1.0" viewBox="0 0 3545 3545">
  <path d="M1737 .6c-186.7 4.7-354.2 33.5-523.5 89.8-292.9 97.5-551.7 267.2-759.7 498.1C255.5 808.7 115 1077.4 47.1 1366.1 22 1472.6 7.4 1579.8 1.9 1696c-1.6 32.8-1.6 120.2 0 153 9 192 44.8 369.2 109.4 542 89.9 240.5 226.5 452.8 408.2 634.5q243 243 558 377.7c91.5 39.1 192.5 72.3 288.7 94.8 182.9 42.7 372.8 56.2 561.8 40 281.6-24.3 553.4-116.2 793.5-268.4 205.1-130 386.6-306.8 522.6-509.1 148.3-220.5 245.9-474.3 282.8-735.6 12.2-86.2 17.4-161.7 17.4-252.4 0-63.8-2-109.7-7.4-167-18.1-195.1-68.2-384-149.9-565-9.9-22-37-76.9-48.6-98.9-83.6-156.9-186.7-295.9-312.9-422.1-138.2-138.2-291.9-248.8-465.5-334.9C2337.6 74.2 2099 12.8 1850.5 2.1c-25-1.1-93.4-2-113.5-1.5M1844.5 41c32.2 1.5 64.5 3.7 94 6.5 28.7 2.8 57.1 6.1 58.3 6.9.5.3-6.2 50.1-14.9 110.8s-15.8 111.5-15.9 113c0 4.8 5 6.4 32.6 10.3 13.6 1.9 24.9 3.7 25.2 4s-5.5 33.5-12.9 73.8c-10 54.5-13.8 73.6-15.1 74.9-2.6 2.6-8.5 3.2-18.8 1.9-5.2-.6-18.9-2.3-30.5-3.6-11.5-1.4-22.9-2.7-25.2-3l-4.2-.6 2.9-4.7c4.4-7.1 6.4-15.9 6.4-29.2.1-16.3-2.9-26.5-10.6-36.2-4.5-5.7-14.1-10.1-22.3-10.1-12.6 0-23.4 8.5-25.1 19.8l-.6 4.5H1846v-59h6.5c6.4 0 6.5 0 6.5 2.7 0 4.2 4.3 12.5 8 15.6 5.1 4.3 9.8 5.9 17.5 6 20 .1 32.8-17.6 32.8-45.3.1-16.6-3.6-28.6-11.4-37.4-6.7-7.7-19.1-11.1-29.5-8.1-9.5 2.7-17.4 12.4-17.4 21.4 0 1.9-.5 2.1-6.3 2.1h-6.3l-1.2-4.4c-.6-2.5-2.5-6.1-4.2-8-3.2-3.6-13.9-9.6-17.2-9.6-1.7 0-1.8-1.4-1.8-26.8v-26.8l5.6-1.2c8.7-1.8 19.7-7.6 25.9-13.7 9.9-9.6 14.5-24.1 12.4-39-2.6-18.9-17.3-34.3-40.9-42.6l-7.4-2.6-1.3-8.9c-3.3-22.9-13.3-39.5-26.2-43.7-10.3-3.3-24.8-1.5-32.8 4.1-2.6 1.8-5.4 2-43.8 2.5-103.3 1.6-191.2 10.5-293 29.8-108.7 20.6-230.2 58-337.5 103.9-42.8 18.3-102.1 47.1-143 69.5C664.4 411.2 440.9 628.3 283.7 898c-33 56.7-67.7 125.8-94.8 188.7-52.7 122.2-91.2 255.5-114.3 394.8C63.1 1551 57 1610.2 52.1 1699c-1.2 21-.6 137 .8 160 2 34.2 4.2 62.4 6.6 86.5 32.1 318.8 146.4 614.1 336.6 869.1 75.1 100.8 168 199 265.9 281.3 184 154.7 398.2 268.3 625.5 331.6 127 35.4 270.8 57.1 398 60 12.7.3 29.3.7 37 1 7.9.3 13.4.1 12.5-.4-.8-.5-11.9-1.1-24.6-1.5-155.3-4.3-325.6-35.2-478.9-86.9-147.6-49.9-295.4-124.5-421-212.7-163.2-114.5-299.3-248.9-412.7-407.5-119.9-167.9-208-354.7-262.2-556.5-76.9-286.5-79-592.2-6-882.5 82.8-328.8 263.8-627.1 517.4-852.7 155.9-138.6 339-249.1 534-322.3C1350.2 102 1521.6 67.3 1706 59c12.4-.5 27.8-1 34.3-1h11.8l-3.5 4.6c-5.1 6.6-9.8 20.2-11.1 31.8-1.1 9.2-1.1 9.3-5.8 10.5-2.4.6-8.6 3.2-13.8 5.7-15.4 7.7-27.3 21.4-29.4 33.9-.4 2.2-.9 4.7-1.1 5.5-.3 1.3-5 1.5-36.2 1.2-28.5-.2-45 .3-80.3 2.3-37.3 2.1-67.4 4.7-68.7 5.9-.1.2.9 2.5 2.3 5.1s2.5 5.4 2.5 6.2c0 1.1.8 1.3 2.8.9 17.2-3.7 98.8-13.5 130.2-15.6 15.1-1.1 31.8-2.2 37-2.6l9.5-.7 1.2 8.8c1.5 11.1 5 18.3 12.2 25.6 6.5 6.4 17.3 12.2 26.2 14.1l5.9 1.2v26.8c0 24.9-.1 26.8-1.7 26.8-5.2 0-17.5 8.1-20.6 13.5-.8 1.3-1.4 9.9-1.7 24l-.5 22-6.1.3-6.2.3-.6-4.3c-1.4-9-9-17.5-17.9-19.9-9.7-2.6-21.9 1.2-29 9-6.8 7.6-10.4 17.3-11.4 31.3l-.6 8.8h-8.8c-9.3 0-67.2 3-67.7 3.5-.4.3 2.9 8.7 3.8 9.8.4.4 14.8-1 32.1-3.3 17.2-2.2 33.6-4 36.4-4h5l1.1 5.8c1.4 6.9 5.2 15.4 9.4 20.4 1.7 2 5.8 5 9.2 6.7 5.1 2.6 7.3 3.1 13.3 3.1 13 0 22-6.8 24.6-18.6l1.2-5.4h12.7l-.2 29.2-.3 29.3-10.7.3-10.6.3-1.2-5.5c-1.5-7.2-5.4-12.4-12-16-4.4-2.4-6.6-2.9-12.5-3-16.2-.1-27.8 11.1-32 31.1-.8 3.7-1.5 7.8-1.5 9 0 2.1-.5 2.3-5.2 2.4-13.8.2-53.8 2.5-54.4 3.2-.5.4-1.6 3.2-2.5 6.1l-1.6 5.4 3.1-.5c1.7-.2 15.9-2.1 31.6-4.2 28.2-3.6 28.5-3.7 28.8-1.6 2.9 21 8.6 31.5 20.4 38 4.5 2.5 6.4 2.9 12.8 2.9 6.2 0 8.4-.5 12.8-2.7 6.5-3.4 10.7-9 12.2-16.3l1.2-5.5 10.6.3 10.7.3.6 5c1.1 8.7 6.5 16.5 13.2 18.8 1.3.5 1.7 1.8 1.7 5.4.1 6.2-17.2 489.7-17.5 490.1-.1.1-8.9 1.2-19.5 2.3-49.9 5.1-101.8 15.5-146.2 29.3-8.1 2.5-15 4.6-15.3 4.6-.2 0 4.9-6.8 11.5-15.1 6.6-8.2 15.9-20.4 20.7-27.1 17.7-24.3 17.5-24.1 23.3-27.1 4.9-2.6 6.2-2.8 12-2.4 3.6.3 10.1 1.7 14.5 3.1 11.9 4 19.7 4.7 38 3.5 15.2-1.1 22.5-2.6 22.5-4.8 0-1.2-4.6-4.4-8.5-5.9-1.6-.6-6.1-1.6-9.8-2.2-8.3-1.3-14.4-3.6-15.7-6.1-2.6-4.8-.2-8.2 9.3-13 4.8-2.5 8.5-3.3 20-4.8 13.3-1.6 13.9-1.8 9.2-2.5-2.7-.4-5.4-.9-6-1-.5-.1 2.4-1.1 6.5-2.1 8.5-2.1 22.7-8.9 28.3-13.5 2-1.8 4.5-4.5 5.3-6.2 1.5-2.9 1.5-3.2-.4-5.7-3.3-4.5-8.6-5.3-29.2-4.7-20.5.5-43 2.6-62 5.7-32.2 5.3-50.8 13.1-64.9 27-6.3 6.3-7 6.7-12.6 7.3-3.3.4-11.4 1.9-18 3.2-81.8 17-162.5 52.3-230 100.7-9.8 7.1-21.3 15.7-25.4 19l-7.4 6.1.8-5.5c.5-3 .9-11.7 1.1-19.4.1-10.9.6-14.9 2-18 2.9-6.5 3.1-21.9.4-33.5-3.6-15.3-5.4-12.7 18-26.7 111.9-67.4 242.8-110.6 377.8-124.5 11.7-1.2 20.9-2.5 20.4-3-1.4-1.4-52.8-2.1-74.2-.9-114.8 6-227.6 41.4-328 102.9-8.5 5.2-18.1 11.3-21.3 13.4-3.2 2.2-5.9 3.8-6.1 3.6-.1-.1-2.8-3.9-6.1-8.3-11.4-15.4-28-29.1-43-35.4-3.6-1.5-6.7-3-7-3.3-1.4-1.4 54.7-35.5 83-50.5 42.7-22.6 89.4-43.1 136-59.6 21.9-7.7 32.6-11.1 67.9-21.3 47-13.6 120-27 179.4-32.9 12.9-1.3 23.6-2.5 23.8-2.8.3-.3-10.2-.8-23.3-1.2-58.9-1.9-126.9 4.6-185.3 17.6-107.7 23.9-212.2 71.3-301.5 136.7l-13 9.6-12 .7c-42.5 2.8-75.2 25.4-93.9 65-5.4 11.4-9.8 24.4-12.1 35.9-.9 4.7-1.8 9.3-2.1 10.2s-5.5 7.6-11.5 15c-10.4 12.4-21.9 27.8-33.3 44.3-4.1 5.9-1 3.1 18.9-17.3 13.1-13.4 23.9-24.1 24.1-23.9s.9 4 1.4 8.4c2.7 21.4 11.6 41.5 27.5 61.8 3.9 4.9 8.1 10.7 9.4 12.7l2.3 3.8-6.7 9.7-6.7 9.8 7.9-7.8 7.9-7.7 3.4 4.7c1.9 2.7 3.8 5.3 4.3 6 .4.7-1.8 5-5.5 10.5-7.4 11.2-24.1 28.2-31.5 32.1l-5.2 2.8-7.4-9.3c-18.9-23.8-37.3-49.8-50.7-71.7-8.4-13.7-30.2-53.2-44.9-81.4l-8.2-15.7 23.8-23.8C1028 888.9 1098.2 833.6 1180 784c76.7-46.5 166-85.7 252.3-110.9 37.9-11 35.4-10.4 64.2-17 51.7-11.9 112.3-21.6 163.5-26.1 13.5-1.2 24.6-2.3 24.8-2.5.2-.1-11.7-.6-26.4-1-149.2-4.2-304.7 34-440.6 108.1-60.5 32.9-118.8 73.5-167.8 116.9-18.7 16.6-57.1 54.5-71.9 71-12.6 14-34 39.7-41.4 49.6-2.8 3.8-5.5 6.9-5.8 6.9-.4 0-7.5-13.2-15.8-29.3-8.3-16-18-34.7-21.5-41.3l-6.4-12.2 17.2-16.9c66.7-65.9 143.4-125.5 225.2-175 15.4-9.4 33-19.6 39-22.8s17-9.1 24.4-13.1c12.6-6.8 48.2-24 70.2-34 34.3-15.4 99.8-39.5 138.8-50.9 38.4-11.3 45.6-13.2 77-20.4 58.1-13.3 123.4-23.4 181.5-28.3l28-2.3-27.5-.9c-56.4-1.9-127.4 3.5-185.5 14-32.5 5.8-38.9 7.2-70 15-137.1 34.2-270.7 100.9-383 190.9-44.6 35.8-91.8 80.9-124.8 119.3l-14.9 17.3-7-12.3c-13.2-23-24.6-39.2-36.6-52l-6.5-6.9 4.4-4.5c2.4-2.5 16.2-15.4 30.6-28.6l26.2-24-4.2-6.4c-2.3-3.5-4.5-6.4-4.8-6.4-.8 0-42.4 43.2-52.5 54.5l-7.1 8-7.4-7c-18.4-17.4-51.6-45.6-55.2-46.8-.6-.2.7-2.5 2.8-5.1 3.8-4.5 50.2-47.7 66.8-62.1 4.2-3.7 7.7-7 7.7-7.3 0-.9-8.2-13.2-8.8-13.2-2.7 0-59.7 59.5-83.3 87-25.8 30.1-31.1 36.8-50.7 63.5-12.1 16.4-12.7 17.4-6.6 11 3.7-3.9 13.5-14.7 21.9-24 8.4-9.4 20-21.7 25.8-27.3l10.4-10.4 3.3 5.9c8.8 15.7 20.7 29.6 39.4 45.7 7.5 6.5 13.6 12.4 13.6 13.1 0 1.6-6.9 10.1-8.8 10.9-2 .9-17.1-1.3-27-4-13.6-3.7-17.7-1.7-11.6 5.5 2.9 3.5 17 12.5 22.1 14.2 2.1.7 3.2 1.6 2.9 2.4-.2.7-5.7 8.4-12.1 17.1l-11.6 15.9 9.8-10.5c5.4-5.8 12.1-12.9 14.8-15.8l5-5.3 8.5 3.1c11.5 4.2 16.2 7.2 24 14.9 8.1 8.1 15.9 19.8 23.9 35.8l6 12.1-7 9.9c-3.9 5.4-7.6 10.5-8.2 11.3-.5.8 3-2.8 8-8l8.9-9.4 5.2 15.4c6 18.2 7.4 23.4 18.2 64.5 22.7 86.7 34.1 115.4 58.4 146.5 10.6 13.6 15.4 20.7 20.1 30 16.1 31.9 16.1 65.5-.1 93.5-6.9 12.1-20.4 39.8-20.4 42.1 0 .1 1 .5 2.3.8l2.2.7-2.2.9c-1.3.5-2.3 1.8-2.3 2.9s2.2 10.9 4.9 21.8c6.5 26.3 6.4 25.2 5.1 32.3-2.5 13.7-12 31.9-21.3 40.9l-3.5 3.3-13.3-19.8c-47.2-70.7-92.7-127.9-139.9-175.9l-17.7-18-2.2-12c-2.9-16.3-9.2-41.6-13.7-55-2-6.1-9.6-24.1-16.9-40-54.2-118.5-84-194.9-92.4-237-1.1-5.5-2.5-18.3-3.1-28.5-1.6-27-2.9-45-4.1-57.7l-1.1-11.2 3.3-3.9c45.4-52.4 115.3-121.4 165.8-163.5l3.3-2.7-4.8-7-4.7-6.9-3.1 2.1c-1.7 1.2-18.5 17.6-37.4 36.6-39.4 39.5-77.8 83.2-106 120.6l-16.6 22.1-1.8-11.7c-5.8-39.2-15.9-64.9-31.2-79.8-2.5-2.4-4.6-4.8-4.6-5.3s12.5-13.7 27.7-29.4c38.2-39.3 90-87.4 125.2-116.4l4.3-3.6-1.7-3.3c-.9-1.8-2.2-5.9-2.9-9.2l-1.2-5.9-21 19c-30.5 27.7-72.4 71.2-104.5 108.6-15.1 17.6-28.5 33.3-29.7 34.9l-2.2 2.8-13.7.3c-20 .3-37.4 4.7-43.1 10.9-5.2 5.5-8.9 25.7-7.8 42.6 1.2 19.2 4.5 36.3 15.1 79 3.1 12.4 6.7 29.1 8.1 37.3 4.8 28.6 10.8 43.1 28.6 69.7 23.3 34.6 27.2 44.5 32.8 82 1.7 11.3 3.5 21.4 3.9 22.6.6 1.4 9.9 6.1 32.7 16.4l31.9 14.5 7.6 7.5c17.6 17.4 21.2 41.4 9.6 63.5-9.6 18.1-33.9 30.3-53.3 26.8-3.2-.6-6.5-.7-7.4-.3-.8.4-4.4 1.3-8 2-16.3 2.9-31.4 11.5-46 26-19 18.8-31.9 42.2-41.5 75.5-4.3 14.9-8.9 37.5-7.8 38.6.4.4 6.9 3.5 14.3 6.9 7.4 3.3 15.6 7.4 18.1 9.1 18.5 11.8 27.7 37.7 21 58.9-7.4 23.3-27.3 38-51.6 38h-7.8l.7 9.7.7 9.6 4.7 5.3c2.6 2.9 6.2 7.7 7.9 10.6 3.5 5.7 7.3 18.8 7.3 24.7 0 2-1.8 16.8-3.9 32.9l-3.8 29.4 3.3 16.1c26.9 128.9 94.8 241.5 203.6 338.1l7.8 6.8v11.2c.1 37.2 4.3 82.6 11.6 124.5 20.1 115.6 67.6 230.2 135.5 326.8l14.9 21.2 3.6 12.3c3.6 12.6 11.9 37.7 21.8 66.4 10.7 30.8 14.8 53.7 12.7 69.7-1.9 14.3-1.2 14.2-12.6 1.5-15.9-17.6-47.2-56.4-63.2-78.2-113.1-154.2-181.7-325-208.3-518.6-2.2-16-4.9-40.5-6.2-54.5-1.2-14-2.4-25.3-2.6-25-.2.2-.8 11.1-1.2 24.2-2.2 61.8 5.9 144.8 20.1 207.8 27 119 75.6 229.6 143.8 327 31.4 44.8 61.2 80.5 99.9 119.6l23.4 23.7-3.1 9.5c-6.1 19-6.1 29.2 0 41.6 2.5 5 6.9 10.2 20.8 24.6 29.5 30.4 36.3 42.2 56.8 99.4 4.6 12.9 9.4 25.3 10.6 27.5 8 14.5 23.8 9.7 29.3-9 1.4-5 1.6-9.2 1.1-31.4-1-45.2-6.3-71.8-26.2-132-13.4-40.7-12.4-36.3-18-75.3-3.4-23-3.6-22.1 2.8-16.1 11.7 11.4 38.2 32.6 60.2 48.4l13 9.3-30.5-30.5c-16.8-16.7-35.2-35.7-40.8-42.1l-10.4-11.7-.9-7.2c-2-17.2-3-39.8-3.5-76.8l-.5-39.5 3.8 4.5c41.7 48.9 81.2 85.8 124.5 116.4l15.3 10.9-27.5-27.9c-30.1-30.6-47.8-50.2-70.6-78.4-15.8-19.5-16.8-20.8-34-44.5l-10.9-15v-68.2c0-37.6.1-68.3.2-68.3s3.9 6.8 8.4 15.2c19.6 36.3 43.1 70.7 71 104 6.2 7.3 21.8 23.9 34.8 36.8 25.2 25 48.9 45.1 72.2 60.9l12.4 8.5-18-18.5c-9.9-10.2-22.3-23.2-27.6-29-68.3-74.6-123.7-161.8-158.5-249.4-6.3-16.1-17.5-55.7-16.1-57.2.3-.3 6.1 1.8 12.9 4.7 17.2 7.4 39.2 15.3 56.4 20.3l14.7 4.3 10.7 22.9c46.2 99.6 113.7 189.9 193.9 259.5 8 6.9 16 13.8 17.8 15.5l3.4 3-4.5.2c-2.4.1-5.9.8-7.8 1.6-4.4 1.9-54.5 44.6-58.2 49.7-2.3 3.1-3.1 5.4-3.4 9.9-.6 8.2 1 12.1 7.7 18.9 4.8 4.9 6.1 7 8.3 13.8 2.9 8.7 4.8 20.4 4.8 29.4 0 10.8-4.6 22.5-28.3 71.5-37.8 78.3-54.1 123.1-67.1 183.7-21 98.3-16.4 211.5 12.1 299.3 34.4 106.1 103.2 187 206 242.4 92.6 50 211.7 78 361.8 85.1 12.6.6 23 1.2 23.1 1.3s1.9 3.6 4 7.7 6.7 11 10.1 15.3l6.3 7.8V3505h-15.2c-29.3 0-83.6-3.1-126.8-7.1-348.5-32.4-678.1-169.9-947.9-395.3-128.3-107.2-240.7-232.5-333.8-372.1C170.5 2492.4 73.7 2219.2 47.1 1934c-5.2-55.3-7.1-98.6-7.1-161.5s1.9-106.2 7.1-161.5c34.3-367.1 184.4-711.8 430.7-989 43.5-48.9 95.3-100.7 144.2-144.2 277.2-246.3 621.8-396.4 989-430.7 24.6-2.3 60.5-4.8 86-6 25.8-1.2 122.1-1.2 147.5-.1m198.2 38.7c-1 29.7-3.9 55.7-10.2 92.3-4.8 27.4-13.8 68.3-16.5 74.7-.5 1.1-7.5 7.7-15.7 14.5-8.1 6.9-16.3 13.8-18.2 15.4-5.3 4.5-2.7.8 11-15.3l12.5-14.8 1.2-13.6c3.7-41.5 12.8-95.1 22.3-130.9 2.8-10.5 11.5-38.5 12.6-40.3 1.4-2.3 1.6 1.1 1 18M2196 92.1c24.8 6.2 58.9 15.6 77.8 21.5 9.4 2.9 11.2 3.8 10.7 5.2-.3.9-15.6 48.5-34 105.7l-33.5 104 3.3 3.1c2.3 2.1 6.3 4 13.2 6.1 5.5 1.7 15.6 4.9 22.5 7.1 8.9 2.7 12.4 4.3 12.2 5.3-.6 3-50.5 140.5-51.5 141.6-2 2.7-11.8 1.4-29.1-3.7-37.9-11.2-80.2-21.6-122.8-30.1-30.1-6-32.2-6.5-35.8-9.9l-2.7-2.5 15.2-73.8c8.3-40.5 15.3-73.8 15.6-74 .2-.3 9.6 1.3 20.9 3.4 21.6 4.1 31.9 4.8 34.2 2.6.7-.8 13.2-49.7 27.6-108.8 14.5-59.1 26.5-108 26.7-108.7.5-1.5-1.5-1.9 29.5 5.9m-478.9 39.1c2.7 15.2.7 57-2.6 53.7-1.4-1.4-2.9-17.4-2.9-30.9 0-14.9 1.7-30 3.4-30 .5 0 1.4 3.3 2.1 7.2m608.9-.2c0 2.8-5.6 27.1-10 42.9-8.6 31.7-22 70.4-36.4 105.5-10.8 26.3-8.6 23.5-28.6 36.4-9.6 6.2-18.4 11.8-19.5 12.3-2.2 1.1 11.3-11.9 21.6-20.8l6.6-5.7 5.3-19c7.2-26.2 22.2-71 32-95.6 10.4-26 25.3-57 27.4-57 .9 0 1.6.4 1.6 1m-473.5 22.5c0 11.5-1.6 20.2-3.4 19-3.2-1.9-3.9-26.6-1-34.5l1.3-3.5 1.5 3.5c1.1 2.5 1.5 7 1.6 15.5m-146.4-12.3c.7 2.9 1.3 8.9 1.3 13.3 0 8.1-1.9 18.5-3.4 18.5-1.6 0-3.5-10.8-3.4-19.5.1-9 1.7-17.5 3.3-17.5.5 0 1.5 2.4 2.2 5.2m789.4 56.6c29 13.4 42.5 20.1 42.5 21.2 0 .6-21.6 43.8-48 96-26.4 52.1-48 95.4-48 96.3 0 3.6 5 7.1 24.1 16.7 13 6.6 19.9 10.6 19.6 11.4-.9 2.2-71.9 131.1-73 132.5-2.4 2.9-9.9.7-28.9-8.4-36.5-17.5-73.6-33.4-108-46-23.1-8.5-28.2-10.9-30.8-14.2-1.8-2.4-1.8-2.5.5-8.6 7.9-21 51.8-134.4 52.3-135.3.5-.8 6.4.9 19.7 5.7 10.5 3.8 21.5 7.2 24.6 7.6 5.2.5 5.8.4 7.2-1.8.8-1.3 20-46.1 42.7-99.4 22.7-53.4 41.6-97.8 42.1-98.7.8-1.5 3.8-.4 24.6 8.6 13.1 5.7 29.7 13.1 36.8 16.4m79.5 40.6c0 .7-2.2 6.7-4.9 13.2-15.9 38.6-39.6 84.1-66.3 127.3l-9.4 15.3-19.9 9.4c-10.9 5.2-20 9.2-20.2 9-.3-.2 18.5-13.5 30.1-21.3 1.1-.7 4.9-7.9 8.6-16 19.2-42.6 44-88.1 67.3-123.5 9.7-14.7 11.2-16.6 12.8-15.7 1.1.5 1.9 1.6 1.9 2.3m-679.9 22.7c5.5 2.7 11.7 10.4 13.5 16.5.9 3.1 1.4 8 1.2 12.1l-.3 6.8-2.2-7c-3.2-10.2-7.9-17.4-13.5-20.8-10.3-6.4-24.5-2.2-28.7 8.3-.9 2.4-1 2.4-1-.8-.2-7.2 6.9-15.2 15.1-17.3 4.4-1.1 11.5-.1 15.9 2.2m199.7 1.5c2.3 1.6 3 4.4 1.1 4.4-2.9 0-7.3-3.6-6.3-5.2.8-1.2 2.7-1 5.2.8m597.2 41.7c31.5 19.8 95.6 63.6 108.2 73.9l2.8 2.3L2690 529c-62.2 81.7-113.4 148.6-113.9 148.8s-5.1-2.6-10.2-6.2c-38.9-27.1-78.4-52.4-107.3-68.7-14.6-8.2-22.6-14.4-22.6-17.4 0-1.6 73.2-129.8 75.5-132.3 1.3-1.4 5.1.5 27.5 13.4 8.1 4.6 15.4 6.8 18 5.4.9-.5 26.8-41.4 57.4-90.9 53.3-86.1 55.9-90 57.9-88.9 1.2.6 10.1 6 19.7 12.1m-1011.5-3.9c5.2 3.1 8.5 8.1 9.2 13.9l.4 4.2-1.7-3c-5.2-9.4-14.3-13.4-23.5-10.4-8.4 2.8-13.9 9.6-18 22.3l-2.6 8-.6-4.5c-.9-5.8 1.2-15.4 4.6-21.2 6.9-11.7 21-15.8 32.2-9.3m48.9 27.1c9.4 34.6 22 89.7 23.2 102.1.4 3.8 1 7.3 1.4 7.9.8 1 6.1 30.5 5.9 32.8-.2 3.1-11-37.1-17.3-64.3-5.9-25.6-10.8-49.7-14.6-71.7-1.7-9.8-3.3-18.9-3.5-20.3-1.3-6.4 1.6 1.6 4.9 13.5m93.6 2.2c-4.2 29.1-14.9 88.9-17.6 97.5-.5 1.7-3.4 2.5-4.6 1.3-.7-.7 3.9-26.7 9.7-55.2 5.5-27.3 13.9-62.3 14.3-60.1.2.9-.6 8.4-1.8 16.5m515.8-1.1c2.3 1.6 2.9 3.9 1.3 4.9-1.4.8-6.5-4-5.7-5.3.9-1.6 1.7-1.5 4.4.4m-434.1 35.3c5.3 2.7 10.8 9.2 12.7 15 2.1 6.4 2.9 14.1 1.8 17.1-.9 2.5-.9 2.5-1.7-1-.4-1.9-2.2-6.7-3.9-10.5-5.4-11.6-13.5-17.2-23.7-16.3-6.2.6-11.1 4-14.3 9.8-2.5 4.4-2.6 4.4-2.6 1.5 0-7 5.9-14.5 13.5-17.4 4.3-1.5 13.5-.7 18.2 1.8m946.5 53.5c35 28 94.8 79.5 94.8 81.6 0 .4-32.6 35.5-72.5 78-42.7 45.6-72.5 78.1-72.5 79.2 0 4 3.7 8.7 17.4 22.6l14.1 14.2-51.2 51.2-51.2 51.2-8.8-4.2c-4.8-2.2-12.4-5.5-16.8-7.2-7-2.8-9.2-4.4-19.4-13.8-23.5-22-46.7-42-77.4-67-8.1-6.6-12-11.5-11.3-14.4.4-1.9 226.4-292.8 227.4-292.8.4 0 12.7 9.6 27.4 21.4M1671 401.1c5.1 2.9 8.8 8.2 9.5 13.9l.6 4.5-2-3.6c-4.2-7.6-12.3-11.7-20.8-10.4-8.7 1.3-17.1 10.7-20.9 23.6-1.4 4.7-2 5.6-2.7 4.3-1.2-2.2-.2-11.6 1.9-17.9 2.3-6.6 9.6-13.9 16-15.9 6.2-2 13.2-1.4 18.4 1.5m58.3 37.9c2.6 7.7 6.1 20.8 7.2 27l.6 3.5-2.2-3.9c-4.6-8.4-14.1-39.2-13.8-44.6.1-2.1 5.1 8.8 8.2 18m101.9-13.4c-.5 2.4-1.4 4-2.5 4.2-1.5.3-1.4-.2.5-4.9 2.4-5.7 3.3-5.4 2 .7m37.2 1.5c.4 2.3.5 4.4.2 4.6-.2.3-5.4.2-11.5-.2l-11.1-.8v-3.2c0-1.7.3-3.5.7-3.8.3-.4 5.2-.7 10.8-.7h10.2zm686.8.6c2.2 1.9 2.4 5.3.3 5.3-1.8 0-4.9-4.5-4-6 .9-1.4 1.5-1.3 3.7.7m-752.9 13c-4.4 17.7-7.1 27.5-7.2 26.2-.1-1.7 2.6-21.8 3.5-26.2.4-1.8 1.2-2.7 2.5-2.7 1.6 0 1.8.5 1.2 2.7m25.7-1.3c0 1.2-7.2 20.9-9.4 25.6-3.3 7.1-3.3 4.8.3-9.1 3.8-15 4.6-16.9 7.1-16.9 1.1 0 2 .2 2 .4m52 4.9c4.7 2.7 6.4 3.2 13 3.2 4.8 0 9-.6 11.7-1.7 2.3-1 5.6-1.5 7.5-1.3 1.8.3 11.9 1.4 22.3 2.5 52 5.6 113.1 15.7 163.5 27.1 201.6 45.8 377.8 131.2 527 255.3 14.8 12.3 50 43.4 50 44.1 0 .3-1.2 0-2.6-.5-1.4-.6-7-2.1-12.5-3.5-9.8-2.5-10.5-2.9-23.7-12.7-7.6-5.5-14.4-10.5-15.2-11.1-1.6-1.2 12.5 12.2 17.5 16.6l3 2.7-5-.8c-2.7-.4-8.2-.7-12-.7-5.8 0-7.8.5-11.6 2.7-8.1 4.7-13.9 14.8-16.1 27.5-.9 5.3-1.6 7.3-2.7 7.3-.9 0-7.4-1.4-14.6-3.2-14.7-3.5-33.3-11-35.4-14.2-3.3-5-13.1-13.4-19.3-16.6-4.2-2.2-6.8-4.1-6.8-5.1 0-1.1-1.5-2-4.4-2.8-5.9-1.5-8.6-1.4-8.6.3 0 1-2.2 1.5-8.2 1.8-37.9 2.5-60.9 42.3-44 76.1 4.7 9.5 14.3 19.2 23.5 23.7 4.4 2.1 6.7 3.9 6.7 5 0 2.5 11 4.7 12.6 2.5.7-.9 2.7-1.5 5-1.5 6.6 0 17.6-2.8 23.8-6 5.7-2.9 6.3-3 19-3 10.3.1 16.8.8 30.6 3.3l17.5 3.2.6 7.9c.6 6.4 1.4 9.3 4.7 16 7.8 15.5 23.4 31.9 45 47.2l9.2 6.6v11.2c-.1 16.4-4.1 61.8-5.7 63.5-.2.3-11.7-10.8-25.6-24.5-38.7-38.4-62.1-58.5-99.7-85.3l-11.5-8.2 15.5 14.8c23.3 22.3 57.6 57.5 76.2 78.3 22.8 25.6 41.9 49.1 41.3 51-1 3.4-6.5 42.5-8 56.2-.8 8.1-1.5 21.8-1.5 30.3v15.6l-3.1-1.8c-1.7-1-7.7-7.7-13.3-14.8-43.2-54.5-95.9-105.1-149.6-143.4l-14.4-10.4 31 30.9c30.5 30.4 56 58.1 75.5 82.1 5.4 6.7 9.9 12.4 9.9 12.7s-6.2-3.9-13.7-9.2c-40.3-28.7-79.4-57.9-105.8-79.3-16.4-13.2-23.3-19.3-46-40.1-18.2-16.7-36-28.8-53.6-36.4-9.9-4.2-22.5-7.4-29.2-7.4-3.1 0-6.5-.9-9.8-2.5l-5-2.6.7-9.2c.4-5.1.8-9.3.9-9.5.1-.1 4.5.2 9.6.9 19 2.3 39.2-.6 53.7-7.7 10.4-5.1 20.7-14.9 22.7-21.7 4.1-13.8-.8-43.6-13.1-80.1-2.4-7.2-4.2-13.1-4.1-13.2.1 0 3.9-2 8.5-4.4 9.8-5.1 18.2-12.2 18.2-15.4 0-5-9.4-14.7-30.5-31.5-6.6-5.3-15.9-12.5-20.7-16l-8.8-6.3v-9c0-27.6-15.3-61-42.5-92.6-11.1-12.9-16-17.1-29.2-24.9-37.3-21.9-76.2-28.8-111.7-19.8-12 3-27.5 10.3-39.8 18.7-11.4 7.7-30.9 26.8-40.5 39.8-20.7 27.9-37.4 62.3-43.2 89.1-8.7 40.4-2.7 79.2 17.3 112.2l3.5 5.8-3.9 1.5c-8.9 3.6-13.1 12.5-11 23.1l1.2 6.3-5 6.2c-27 34.1-45.1 79.5-50.7 127.3-.8 7.2-1.5 13.5-1.5 14.2s-.9 1.7-2.1 2.3c-1.7.9-5.3.3-18.7-3.4-34.1-9.3-64.8-15.3-109.7-21.3-5.4-.7-6-1-6.3-3.3-.1-1.4-4-108.9-8.7-239-4.6-130.1-8.6-240.8-8.9-246l-.6-9.5 5-2.7c3.4-1.9 5.7-4.2 7.7-7.5 2.7-4.6 2.8-5.4 3.1-20.7l.4-15.8 14.1.7c13.3.7 14.5.9 19.7 3.8m1093.2 80.1c1.7 1.2 1.4 1.8-3.1 7.7-20.9 27.6-68.5 77.3-108.2 113.1l-8.6 7.7-20.2 3.6c-11.2 2-20.5 3.4-20.7 3.2-.5-.4 32.8-12.7 34.4-12.7.5 0 2.4-1.9 4.3-4.3 14.4-18 55-61 78.4-83.1 16.1-15.2 40.4-36.6 41.5-36.5.3 0 1.3.6 2.2 1.3M1796.5 642c2.3 152.5 4.4 337.3 3.9 338.1-.2.4.1 20.4.6 44.5 1 47 3.4 318.1 5 572.9 1 161.2 2.1 680.5 1.4 672.5-1.2-13.9-6.4-439.2-8.9-726-1.2-134.9-3.2-481.7-3.1-530.5 0-5.5-.3-117.1-.6-248s-.4-236-.2-233.5 1.1 52 1.9 110m-35.9 132.7c-.4 134.1-.7 249.2-.6 255.8.2 21.8-2 345.9-3.5 518.5-2.9 325.6-7.8 710.7-9.2 711.9-2.3 2.1 3.7-1093.5 6.8-1232.7.5-26.5.8-48.6.6-49-.6-.9 1.7-192.7 3.8-328.5.8-53.8 1.5-102.7 1.5-108.7 0-6.1.3-11 .7-11 .3 0 .3 109.7-.1 243.7m-23.9-239c-.3 1-.5.4-.5-1.2 0-1.7.2-2.4.5-1.8.2.7.2 2.1 0 3m81 0c-.3 1-.5.4-.5-1.2 0-1.7.2-2.4.5-1.8.2.7.2 2.1 0 3m0 11c-.2 1.6-.4.5-.4-2.2 0-2.8.2-4 .4-2.8.2 1.3.2 3.5 0 5M1734 661.5c-1.1 57.2-3.2 151.2-4.5 208.9-1.4 57.7-2.5 105.9-2.5 107.2 0 2-.5 2.4-3.1 2.4h-3l.6-15.3c.3-8.3 1.9-56.6 3.5-107.2 4.3-137.7 10.5-311.7 10.8-305.5.2 3-.6 52.3-1.8 109.5m94.9 201.9c1.7 54.5 3.3 103.5 3.6 108.8l.5 9.8h-5.8l-.6-15.3c-1.4-34.4-8.7-379.4-8.5-400.7.2-15.7 6.7 165.6 10.8 297.4m1246-232.4c10.4 11.8 23.6 27.1 29.4 34l10.5 12.5-2.1 2.1c-1.2 1.2-39.3 32-84.7 68.4-77.2 62-82.5 66.4-82.8 69.5-.4 4.3 1 6.9 10 19.1 4.1 5.5 9 12.2 11.1 15.1l3.8 5.2-60.8 45.7c-33.4 25.1-61.5 45.9-62.3 46.1-3.2.9-8.8-4.8-22.1-22.2-19.3-25.3-18.9-24.7-18.3-27.2.6-2 1.3-2.2 8.7-2.5l8.1-.3 2.7-13c1.6-7.2 2.8-14 2.9-15.1 0-1.7-1.4-2.7-7.1-5-6.9-2.9-7-2.9-6.4-6.1l.6-3.1-19.8-4.7c-10.9-2.6-25-6-31.3-7.5l-11.5-2.8-.1-9.3c0-7.3-.5-10.5-2.1-14.1l-2.1-4.7 50.5-48.8c27.8-26.8 50.9-48.9 51.3-49.1.4-.1 6.7 6.1 14 13.8 13 13.8 17 17.1 20.7 16.9 1 0 37.6-32.6 81.3-72.4l79.5-72.4 4.8 5.2c2.6 2.9 13.2 14.9 23.6 26.7M2898 701.1c1.2 2.2.7 4.9-.9 4.9-1.5 0-3.3-3.9-2.7-5.6.8-2 2.4-1.7 3.6.7m240 6.4c0 2.4-33.1 32.1-58 52-25.4 20.4-77.9 58.4-83.5 60.5-2.5.9-43.1 2.3-42.2 1.4.3-.3 8.8-2.3 18.9-4.3l18.3-3.7 17-14.5c43.1-36.8 90.6-72 122-90.2 6-3.5 7.5-3.8 7.5-1.2m69.5 94.7c21.6 31.7 42.7 65.3 63.7 101.2 10.1 17.4 12.6 22.2 11.6 23.2-2.6 2.3-335.1 185.4-336.8 185.4-2.9 0-6.3-4.1-11.4-13.5-16.8-30.9-42.5-74.3-60.2-101.4-11.7-17.8-14.4-23.6-12.8-27 .7-1.5 115.4-85.7 123-90.4.7-.4 5.1 5.3 11.5 14.9 10.4 15.7 14.5 20.4 17.9 20.4 1 0 42.9-27.9 93.2-62 50.2-34.1 91.6-62 92-62s4.1 5.1 8.3 11.2m-1095.3 73.5c5.6 1.9 8.4 2.4 13.7 2 3.6-.2 7.5-.7 8.7-1.1 1.8-.7 2.4 0 4.4 4.6 1.5 3.4 2.3 7.4 2.4 11.2l.1 5.9-9 8.5c-14.8 13.9-59.1 48.2-62.4 48.2-1.3 0-4.5-8.7-6.4-17.5-3.6-16-3.1-33.9 1.5-52.2 2-8.2 2.1-8.3 5.2-8.3 7.7 0 15.1-4.1 18.1-10.1l1.5-2.8 7.6 4.6c4.2 2.5 10.8 5.7 14.6 7m920.4-1.3c.6 2.6-.1 4.6-1.6 4.6-1.2 0-2.4-4.6-1.5-5.9 1.1-1.8 2.4-1.2 3.1 1.3m-279.2 19c7 1.3 13.4 3 14.1 3.7 5.2 5.6 35.4 43.8 46 58.2 25.1 34.2 31.1 42.9 48.3 69.4 23.2 35.8 42.8 68.9 57.4 96.8 6.7 12.6 13.1 24.8 14.4 27 6.2 10.8 34 72.7 45.4 101 43.2 107.7 71.2 217.1 86.4 337 2.4 19.2 4.9 42.4 5.5 51.5.7 9.1 1.4 18.2 1.7 20.2.4 2.9.2 3.8-.9 3.8-6.1 0-85.6-27.6-88.9-30.8-.3-.4-1.4-17.4-2.3-37.7-3.9-90.4-18.1-170.9-45.3-257.5-14.8-47.1-38.4-105.6-59.5-147.6-26.1-52.1-63.8-113.1-96.1-155.9-9-12-35.5-45.1-41.9-52.3-6.1-7-5.8-5.6-7.7-31.2-.9-11.5-.8-12.7.9-15.1 3.5-4.7 8.1-14.9 9.7-21.2 1.6-6 1.5-15.7-.1-20-.4-.9-.6-1.7-.4-1.7s6.2 1.1 13.3 2.4m-1230 51.3c-15.8 21.1-35.6 42.1-49.4 52.4-4.1 3.1-12.7 9.4-19 14.1-17.6 13.1-32.3 26.1-58 51.4l-23.5 23.1-18.2 11.4c-28.1 17.5-59.2 40.1-85.4 62-11.5 9.7-11.6 9.8-28 16-32.5 12.3-55.6 24-73 37.1-5 3.8-9.3 6.7-9.5 6.5s-2.3-5.3-4.6-11.3c-3.9-10.2-4.2-11.5-4.1-20.4.1-7.4.7-11.4 2.8-18 2.6-8.1 3.1-8.8 10.8-16.2 7-6.6 9.1-8 15.6-10.3 9.2-3.2 20-8.9 27.8-14.6 12.4-9.1 26.5-25.6 33.4-39.1 3.6-7.1 4-7.5 22.9-21.2 75-54.5 151.1-92.7 238.5-119.6 12.1-3.8 22.4-6.9 22.9-6.9.4-.1-.4 1.6-2 3.6m1787.5 30.7c12.8 24.4 28.6 57 41 84.5 14.1 31.2 16.5 37 15.8 37.7-.7.8-21.3 9.3-96.7 40.1-102.5 41.8-118.4 48.5-119.8 50.2-2.3 2.7-.7 10.5 5.8 28 3.3 9.1 6 17 6 17.6s-31.8 13.2-70.6 28c-55.1 21-71 26.6-72.2 25.8-1-.5-2.3-2.8-3.1-4.9-14.2-39.5-38.4-97.4-55.2-131.9-6.2-12.7-6.3-14.7-.6-18.1 2.3-1.4 79.1-42.3 170.7-90.9 147.4-78.3 166.6-88.3 167.7-86.9.7.9 5.7 10.3 11.2 20.8m-1585.3 48.3c-1.3 90.3-14.5 569.2-23.6 856.3-5.5 175.9-12.4 374.7-12.8 367-1.6-33.5 26.4-1144.8 30.8-1222 .5-10.2 1-22.8 1-27.9 0-8.3.3-9.7 2.2-11.8 1.2-1.3 2.4-2.3 2.6-2.3.3 0 .2 18.3-.2 40.7m107.1-24.9c.2 5.3.7 19.6 1.3 31.7 4.7 97.1 31.7 1166.4 30.9 1223-.2 12.8-7.4-189.9-12.8-364-9.8-309.3-22.5-770.2-23.6-853.5-.3-21.2-.7-41.6-1-45.4l-.4-7 2.7 2.7c2.5 2.6 2.7 3.4 2.9 12.5m915.9 27.2c26.7 35.9 67.4 100.9 89.4 143.1 6.2 11.8 12 22.8 13 24.6 1 1.7 7.9 16.2 15.4 32.2 16.7 35.8 32.6 75.2 46.3 114.6 10.6 30.3 27.9 89 32.8 111 1.5 6.6 4.2 18.7 6.1 27 6 25.7 14.3 73.5 18.9 109 2.5 18.7 4.7 35.5 4.9 37.2.3 1.8 0 3.3-.5 3.3-2.2 0-42-18.2-64.4-29.5l-24-12-.8-10c-1.8-24.2-8-75.6-11.2-93.5-17.9-100.2-49.3-190.7-97-279.1l-15.4-28.6-1.6-12.9c-2-16-7.3-50.5-12.5-81.4-4.1-24.5-11-68.2-11-69.5 0-1.1-.7-2 11.6 14.5m-1044.6-.3c0 1-1.1 31.9-2.5 68.8-1.4 36.8-2.5 69.5-2.5 72.6v5.6l-12.7 1.2c-37.3 3.5-86.4 13.3-124.8 24.8-157.6 47-260.6 138.1-295.4 261-12.1 42.9-15.2 77.4-13.3 146 2.1 71.3 6.1 114.3 14.7 156.9 6.1 29.8 12.6 50.5 23.3 74 2.8 6.1 5.4 12.3 5.7 13.7.9 3.3-2 8.6-15.1 28-9.7 14.4-11.4 18.9-10 25.9.3 1.8 3.7 11.1 7.4 20.7 6.1 16 7.2 18 11.8 22.7 4.2 4.3 5.9 5.4 10.5 6.3 3.4.7 6.7.7 8.9.2 1.9-.5 7.1-1.9 11.4-3 9.4-2.5 15.1-2.6 23.1-.5 39.5 10.2 59.4 77.2 55.5 186.7-1.7 46.1-5.2 79.7-12.1 114.2-11.3 56.1-28.3 96.9-49 117.7-6 6.1-15 11.8-18.6 11.8-1.2 0-25.7-19.2-39.3-30.9-26.5-22.8-59.8-56.2-81.9-82-41.3-48.2-75.8-100.4-103.6-156.6-9.5-19.2-21.6-45.7-21.1-46.2.1-.2 4 .4 8.7 1.2 29.3 5.1 65.1 3.4 87.7-4.2 30.9-10.3 53.2-32.8 53.2-53.6 0-30.1-44.8-138-129-310.7-32.9-67.5-45-91.3-50.3-98.3l-5-6.8 3.2-12.2c1.8-6.7 4.5-16.6 6.2-22l3-9.7 33.6-42.3c37.9-47.5 88.3-110.5 99.7-124.4 15-18.5 19.3-29.9 18.3-48.7-.4-6.1-1.3-13.6-2.2-16.6-.8-3-1.5-6.3-1.5-7.2 0-2.5 20.2-17.3 55-40.3 16.8-11.1 37.7-25.8 46.5-32.6 8.8-6.9 22.8-17.4 31-23.4 54.7-39.7 69.5-53.4 118-109 9-10.3 17.2-18.8 19.2-19.8 7.6-4 41.9-17.2 62.8-24.2 50-16.8 101.2-28.2 153.5-34.4 9.1-1 16.8-1.9 17.3-2 .4-.1.7.7.7 1.6m162 1.4c15.3 1.7 55.8 8.4 56.7 9.3.1.1-3.8 4.2-8.6 9.2-22.3 22.9-41.1 61.3-55.5 113.4-1.9 6.9-3.5 11.8-3.5 11-.7-14.7-5.1-136.8-5.1-140.3v-4.8l3.3.5c1.7.3 7.5 1 12.7 1.7m1500.5 110.5c-36.3 20.5-105.9 49.6-157.2 65.7l-10.8 3.4-20-5.4-20-5.3 12 .6c6.6.3 15.1.9 18.9 1.4 6.6.8 7.2.7 13-2.2 24.6-12.4 80.6-35.1 115.2-46.7 21.6-7.2 51.6-15.9 55.4-16 .8 0-2.1 2-6.5 4.5m-1668.9 68.1c-.4 5.4-7.2 192.5-15.1 415.8-8 223.3-14.8 409.4-15.2 413.5-.8 7.4-.8 7.5-3.8 7.8-7 .6-33.1 4.5-34.9 5.2-2.9 1 20.2 4.4 51.7 7.6l6.7.6-.6 20.2c-.4 11-1.8 63.7-3.3 117.1l-2.6 97-23 .5c-25.2.5-26.7.9-31.8 6.9-7.8 9.3-5 23.9 5.5 29 4.1 1.9 6.1 2.1 26.6 2.1h22.2l-.2 174.2-.3 174.3-15.2 1.7c-23 2.5-38.1 5-35.7 5.8 2 .8 26 4.3 37 5.5l6.1.7.7 15.4c2.1 48.5 8 79.8 30.9 162.9 9.3 34.1 14.6 57.8 17.9 80.9 2.1 14.7 2.2 18.3 2.5 143.5l.4 128.4-28.8-.6c-126.1-3-219.3-19.7-315.3-56.6-6.9-2.7-5.5-1.5 10 8.3 42.6 27.1 95.6 50.7 143.9 64.2 11.9 3.3 4.5 2.5-11.5-1.2-148-34.2-261.2-104.7-328.1-204.4-10.6-15.8-21.7-63.5-27-116-2.1-21.3-2.4-76.8-.4-99 6.4-74.1 24-137.7 62.8-225.8 18.1-41.2 20.3-46.5 23.7-57.1 1.9-5.9 3.7-12.9 3.9-15.6.3-2.8.3-4.1 0-3-2.2 10.4-9.8 26.8-30.5 66.3-23.8 45.4-34.5 68.5-46.8 101.7-25.7 68.9-37.5 144.8-34.1 218.4.7 13.4 1.5 26.5 1.8 29 .9 6.8-.2 4.8-3.7-6.9-2.8-9.6-3.2-12.5-4.2-33.5-2.8-57.7 4.3-119.9 20.8-180 12.3-45.2 27.8-84.2 59.6-150 27.3-56.3 29.6-63.9 26.7-89.1-2-18.5-7.5-34-15.3-43l-3.5-4.1 22.1-18.9c12.2-10.4 22.7-19.2 23.4-19.7.9-.5 3.6 1.1 7.6 4.4 3.5 2.8 10.1 7 14.8 9.3 8.5 4.1 8.5 4.1 20.1 4.1h11.6l8.4-4.2c9.3-4.6 16.1-10 24-18.9 10.4-12 21.4-31 30-52.4 2.1-5.2 3.9-9 3.9-8.5 0 2.3-9.3 30.1-13.5 40.1-10.1 24-19.9 39.8-32.8 52.7-6.5 6.5-7.9 8.4-5.5 7.1 12.4-6.3 28.7-22.4 40.2-39.7 20.3-30.6 35.5-71 46.1-122.5 13.4-65.7 16.8-154.4 8.4-217.7-7.5-56.9-28-101.6-55.4-121-11.1-7.9-22.8-12.6-13-5.2 21.7 16.3 35.5 42.6 43.5 82.8 3.6 17.9 3.8 22.9.5 10.4-16.3-61.6-51.5-89.3-98.4-77.4-4.1 1.1-7.8 1.6-8.1 1.2-.4-.5-3.2-7.3-6.3-15.2l-5.6-14.4 11.8-17.6c6.5-9.7 14.3-21.3 17.3-25.7 11-16.2 11.3-22.3 1.9-47.1-16.8-44.8-22.9-88.2-25.3-179.8-2-78.7 1.3-117.7 13.4-158.3 27-90.5 95.4-160.1 205.3-208.7 43.4-19.2 94.6-35.3 148-46.5l14-2.9h-10.1c-5.5-.1-17.2.6-26 1.4-66.2 6.3-131.3 24.2-185.7 51.1-6.2 3-10.3 4.8-9.2 3.9 4.2-3.4 48.8-24.7 65.5-31.3 49.5-19.6 104.9-33.8 160-41.1 8-1 16.4-2 18.8-2l4.4-.1zm710.8.7c4.8 2.1 6.7 4 17.3 17.2 96.3 120.2 156 267.4 173.9 428.8 2.8 24.6 3.8 17.4 3.8-27.4 0-33-.3-41.3-2.2-58-3.3-29.6-7.6-54.2-14.3-81.5-22.4-91.1-66.2-177.1-126.8-249.2l-11.1-13.2 8.3 3c33.8 12.7 68.4 24.2 96.5 32l12.4 3.4 7.8 13c4.3 7.1 12.3 21.5 17.8 32 55 104.9 88.9 219.2 102.2 344.5 1.2 11.3 2.4 20.7 2.6 20.9s.4-2 .5-5c0-3 .4-12.4.8-20.9 1.8-35.8-2.2-91.9-9.4-133.8-13.1-75.9-39.6-151.9-76.8-219.7-6.3-11.6-11.4-21.1-11.2-21.3.2-.3 33.9 9.4 48 13.8 8.9 2.8 11.6 3.2 25 3.5l14.9.4 9.8 21.1c25.3 54.3 51.1 128.6 64.1 184.5 2 8.2 3.8 16.2 4.2 17.6.6 2.4.4 2.6-1.9 2.2-1.4-.3-3.3 0-4.1.7-1.7 1.4-26.4 75.3-33 98.8-22.9 81.4-33.4 166-30.4 244.5 1.4 37.5 4.1 63.7 10 96.6 1.6 9 2.6 16.8 2.2 17.2-1.2 1.1-43.4 15.3-60.8 20.4-8.2 2.4-22.2 6.2-31.1 8.4-27 6.8-104 22.6-124.6 25.6l-4.6.7 4.4-12c20.8-57.3 35.1-125.6 41.6-198.2 2-22.8 1.7-103.5-.5-127-11.5-121.1-44.8-225.6-104.5-328-7.7-13.2-33.4-52.5-43.2-66.1l-4.1-5.6 4.5-17.9c4.2-16.9 15.6-66.3 15.6-67.7 0-1 .5-.9 6.4 1.7m-529.5 12.7c45.7 10.1 93.4 25.5 132.8 42.7 9 3.9 28.8 15.1 28 15.8-.2.2-4-1.2-8.5-3.1-27.4-11.5-79.5-25.9-104.7-28.9l-5-.5 5.5 2.6c3 1.4 15 7 26.7 12.5 114.4 53.9 183.3 118.7 212.7 200.2 12.9 35.4 17.4 69.4 16.2 121.1-1.8 76.6-7.6 126.8-19.7 171.1-8.4 30.6-19.9 56-43.8 96.9-26.5 45.2-37.1 69.4-45.7 104-7.8 31.6-10.4 54.6-11.1 97.6-.6 37.2.1 42.1 3.6 25.2 13.7-65.3 30-113.6 50.6-149.8 9-15.9 34.4-53.5 36-53.5.3 0-3.8 6.4-8.9 14.2-36.2 55.2-50.4 97.7-57.1 170-2.2 23.3-3 80.3-1.6 109.8 5.3 110.7 24.4 176.2 72.6 249.5 4 6 18.6 27 32.6 46.5 44.1 61.8 60.9 88.8 83.7 134.5 57.3 114.9 80.7 233.1 66.1 335-4.8 33.8-13.9 65.3-27.4 95.5-4.5 10.2-17.2 34-18.1 34-.2 0 1.3-3.5 3.5-7.8 16.7-33.1 27.7-70.8 32.8-112.2 2.4-19.8 2.4-65.9 0-88-5.1-46-16.2-90.1-33.9-134.5-6.6-16.6-29.5-64.2-30.4-63.3-.2.3 1 5.1 2.7 10.9 20.3 70.4 30.4 145.8 27.1 204.1-5 88.6-33.5 159.7-85.7 213.7-50.5 52.2-127.2 90.6-224 112-40.5 9-88.9 16.1-135.3 19.9l-21.3 1.8.4-127.6c.4-135.6.2-130 5.2-159 2.6-15.2 8.7-40.4 16.8-69.5 20.9-75.3 26.8-106.7 29.3-157.7l.6-13.6 6.2-.7c10.9-1.2 35-4.7 37-5.5 2.3-.8-12.8-3.3-35.6-5.8l-15.8-1.7V2329h21.9c23.3 0 25.8-.4 30.4-4.8 4.2-3.9 6-8 6.1-13.7.1-6.6-2.8-12.1-8.3-16l-4.3-3-23.4-.3-23.4-.3v-6.2c0-3.4-1.4-54.4-3-113.2-1.6-58.9-3-108.9-3-111.1v-4.2l6.8-.6c31.4-3.2 54.5-6.6 51.6-7.6-1.8-.7-27.6-4.5-34.8-5.2-1.6-.2-3.2-1-3.7-1.8-.6-1.2-30.1-812.5-29.9-823.7 0-2.4.4-3 1.8-2.7.9.2 10 2.2 20.1 4.5m1541.9 17.9c13.8 43.9 27.9 92.7 27 93.6-.8.8-10.4 3.3-110.8 28.9-119.8 30.6-121.9 31.1-123.6 32.6-2.4 2-1.6 11.4 2.5 29.9 3.4 15.6 3.7 17.6 2.2 18.1-.9.3-34.1 7.9-73.8 16.9-71.8 16.2-72.3 16.3-74.4 14.4-3.3-2.9-4.4-6.2-9.4-28.5-6-26.7-24.4-99.2-29-113.9-3.9-12.7-4.2-15.2-2.1-16.9 2.2-1.9 142-52.1 142.7-51.3.4.4 3 8 5.8 17 5.5 17.7 6.8 20.7 10 23.6 2.4 2.2-10.1 6.1 155.1-48.3 39.9-13.2 73.2-23.9 74-23.8s2.3 3.2 3.8 7.7m-638 32c37.5 80.5 67.6 175.4 84.6 267.5 5 27.3 6.9 39.6 6.4 41.7-.2 1.1-4.6-.9-16.3-7.5-18.1-10.1-48.6-28.2-61.9-36.8l-8.9-5.7-3.8-22.3c-5.1-29.9-7-39.4-13.4-65.4-10.9-44.1-28.9-96.4-47.4-136.9-4.4-9.8-8.1-18.3-8.1-18.7 0-.5 1.2-1.2 2.8-1.5 5.9-1.5 16.7-6.6 23.2-10.9 13.6-9 21-19.9 23.2-34l1.2-7.7 3.4 6.9c2 3.7 8.7 17.8 15 31.3m435.5-1.8c.2.7.1 2.3-.4 3.5-1.5 4.2-4.6 2.1-3.5-2.3.7-2.5 3.1-3.3 3.9-1.2m-834.5 66c74.8 103.3 122.3 222.9 138.1 347.9 7 55 7.9 114.8 2.5 169.4-5.5 56-18.7 117.1-36.7 170l-2.4 7-7.9 1.2c-4.3.6-15.5 1.7-24.9 2.3-27.4 2-57.6.5-127.3-6.6-18.9-1.8-35.2-3.4-36.3-3.4-4.5 0-4.3 2.8 3 41.5 12.4 64.9 19.8 93.7 35.8 140 25.1 72.3 65.8 147.4 109.4 202l7.2 9-17.4 16.8c-36.6 35.4-90.3 81.2-92.1 78.5-.4-.7-2-5-3.5-9.6-2.4-7.7-2.5-9.3-2-20 .9-18.1 6-33.2 12.8-37.7 4.1-2.8 7.9-10.7 7.9-16.7 0-6.2-2.7-11.4-8.7-17.3l-4.7-4.5 4.6-4.7c7.4-7.7 28.6-35 38.7-49.9l9.4-13.9-22.9 22.7c-12.6 12.4-26.7 26-31.3 30.2-7.4 6.6-8.7 7.4-10 6.2-15.9-14-34.1-28.8-36.9-30.2-4.5-2.1-13.4-2.2-18.2-.2-1.9.8-6.4 4.1-10 7.2-16.7 14.6-28.5 14.6-44.2-.3-25-23.5-45.7-80.6-55.7-153.6-3.3-23.4-5-44.4-6.3-77.4-2.8-70.4 4.2-123.5 20.7-156.6 8.1-16.2 19.1-27.1 31.5-31.2 8.1-2.7 21.6-2.4 30 .7 11.7 4.2 21.3 2.6 28.3-4.8 1.9-1.9 5.6-9.8 10.4-21.8 6.4-16.1 7.6-19.8 7.6-24.9.1-7.1-.5-8.3-11.7-24.7-9.3-13.7-13.6-21.3-13.6-24.1 0-1.1 3-8.5 6.6-16.6 23.9-53.1 34.7-120.6 37.4-233.1.8-36.3.8-44.2-.5-66.2-.4-7.3-.3-7.6 2-8.2 2-.5 3.3-3.1 8.5-16.4 9.4-24 25.8-69.9 34.8-97.2 7.3-22 26.2-84.9 26.2-87 0-1.3 1.9-6 2.4-6 .3 0 4.5 5.5 9.4 12.2m1056.1 36.8c-7.3 4.3-52.8 18.9-82.3 26.5-34.3 8.8-90.3 20.5-98.2 20.5-2.6 0-39.8-15-39-15.7.2-.2 8.5 1.4 18.4 3.7l18.1 4.1 14.8-4.5c53.8-16.2 109.2-28.5 150.3-33.5 18.9-2.3 20.1-2.4 17.9-1.1m-214.5 99.7c.3 1.6 1.7 9.5 3.2 17.7 2.7 15.9 4.6 22.1 7.3 23.5 1 .6 4.8.3 9.6-.5 4.4-.8 37.3-6.4 73-12.4 35.8-6.1 86.3-14.7 112.3-19.1 26.1-4.4 47.6-7.8 47.9-7.5 1.8 1.8 16.6 102.8 15.2 104-.4.3-26.2 3.1-183.9 20.2-54.8 6-60.7 6.8-62.2 8.6-2.2 2.5-2.3 10.3-.4 32.2.8 10.2.9 14.9.1 15.1-3.5 1.2-148.3 12.1-149.7 11.3-3.7-1.8-5-6.9-6.9-26.7-3.8-39.7-7.8-71-13.5-106.6-3.6-22-3.8-28.5-1.2-31.2 1.3-1.3 140.1-31 146-31.2 2.1-.1 2.8.4 3.2 2.6m43.8 12.3c-.3 2.7-2.2 4.4-3.6 3-.5-.5-.6-2-.2-3.5.9-3.5 4.2-3 3.8.5m-187.1 156.2c1.2 14.2 2 26 1.6 26.4-.3.3-2.2.2-4.3-.2l-3.6-.9-.3-36c-.1-19.8-.5-41-.8-47-.5-9.6-.3-8.3 2.2 10.5 1.6 11.8 3.9 33.1 5.2 47.2m390.9-25.4c4.3.7 3.8.9-10.5 4-40 8.7-90 14.6-147.6 17.2l-24.7 1.2-18.3-10.8c-10.1-5.9-18.6-10.9-18.9-11.2-1-.9 4.6 1 20.3 7l15.7 6.1 13.8-2.2c32-4.9 72-9.2 101.7-11 17.4-1 62.4-1.2 68.5-.3m-222.6 67.4c1.1 4.3.7 13.8-.6 13.8-6.8-.1-69.6-8.4-75.3-10-2.8-.8-2.8-.8 1.5-1 4.9-.2 72.1-4.7 73.1-4.9.4 0 .9.9 1.3 2.1m-1967.7 31c-.3.8-.6.5-.6-.6-.1-1.1.2-1.7.5-1.3.3.3.4 1.2.1 1.9m8.7 40.8c6 23.7 12 39.6 24.5 64.9 8.9 17.9 9.5 20.7 6.4 29.6l-1.6 4.9-1.7-6c-.9-3.2-4.4-12-7.7-19.4-12.4-27.4-19.7-53.9-25.9-93-3.2-20.5-2.9-22.9.6-5.5 1.5 7.7 4 18.7 5.4 24.5m2213.1-33.1c1 1.7.6 98.8-.5 126.4-1.3 32.8-1.3 32.7-4.8 32.6-10.7-.2-176.2-10.6-176.7-11-.3-.3 2.8-9.1 6.9-19.5 10.7-27.2 20-55.2 30.6-92.5l9.3-32.7 19.1-.7c10.5-.3 38.9-1.2 63.1-1.9s45.9-1.4 48.2-1.5c2.3 0 4.4.3 4.8.8m-622.1 46.9c20.7 7.1 39.9 27.1 47.7 49.5 3.3 9.3 3.4 10.6 1.6 13.1-1.2 1.6-1.6 1.7-4.8.3-1.9-.8-8.3-4.6-14.4-8.6-13.8-9-29.6-17.1-40-20.4-12.8-4.2-24.3-5.8-46.2-6.6-17.2-.6-20.7-1-22.1-2.5-1.5-1.5-1.5-1.9-.2-4.4 2-3.4 9.6-9.2 18-13.6 20.2-10.6 42.2-13.1 60.4-6.8m243.4 74.8c9.5 1.9 15.7 4.5 24.4 10 13.8 8.8 25.9 23.6 32.5 39.9 3.5 8.5 4 12.3 2.2 15.7-.9 1.7-1.7 1.9-5.1 1.4-5.7-.9-10.2-3.5-18.6-10.5-9-7.5-15.3-10.8-32.4-16.6-21.8-7.5-27-8.5-49.7-9.5-16.8-.8-20.7-1.2-22.2-2.6-1.1-1-1.9-2.4-1.9-3.2 0-4.4 17.6-16.3 32-21.6 12.4-4.6 26.1-5.6 38.8-3M772 1912.1c6.9 5.2 16.4 12.3 21.1 15.7l8.6 6.2 4.2 10.7c14.2 35.5 28.5 73 32.4 84.5 2.5 7.3 8.1 23.1 12.6 35 14.8 39.6 17.7 55.6 18.5 104.6.8 43.4 3.4 74.6 9.1 110.2 1.3 8.5 2.7 17.3 3.1 19.5 1.5 9.6-32.1-51.8-52.4-95.5-33.5-72.5-60.2-156.7-75.7-239-3.8-20.6-11.5-70.3-11.5-74.7 0-.7 3.9 1.9 8.8 5.9 4.8 4 14.3 11.6 21.2 16.9m2635.5-13c50.6 3.9 92.2 7.3 92.4 7.5.6.6-2.4 34.6-5.5 61.9-2.9 26.1-6.3 50.8-10.6 77.2-2.9 18.4-3.2 19.2-5.2 18.8-6.9-1.6-238.4-39.5-240-39.3-3.4.5-5.5 5.9-8.1 21.3-1.4 8.3-3 17.3-3.6 20.1l-1 5.1-12.7-2.5c-7-1.4-12.9-2.6-13.1-2.8s3.2-4.6 7.5-9.9c37.3-45.4 72.6-101 97.9-154.3 4.3-9 5.1-10.2 7.4-10.2 1.4 0 44 3.2 94.6 7.1m-564 92.8c1.7 1 11 9.6 20.8 19 21.1 20.3 34.8 30.8 50.6 39 21.2 10.9 33.4 14 58.7 14.8 20.5.6 29.7-.2 57.8-5.3 21.3-3.8 23.8-4 25.6-1.9 2.2 2.6.1 6.5-7.8 14.4-17.6 17.5-48.6 34.2-77.8 41.7-10 2.6-12.4 2.9-28.9 2.9-11.8 0-19.5-.4-22.2-1.3-3.9-1.2-4.3-1.6-4.3-4.6s-.4-3.5-4.6-5.1c-7.5-2.9-22.1-13.2-30.9-21.9-18.9-18.7-35-46.8-41.5-72.2-2.2-8.7-2.6-18.4-.8-20.2 1.6-1.6 1.8-1.5 5.3.7m415 57.1 13 9.7 17 2.2c54.5 7.2 112.8 19.5 150.5 31.6 16.3 5.3 19.4 7 11 6.1-3-.3-9.5-.8-14.5-1.1-23.3-1.5-59.4-6.8-95.3-14-21.1-4.3-64.1-14.4-68.9-16.2-1.1-.4-8.8-7.8-17-16.3-15.9-16.6-15.6-16.8 4.2-2m-1529 9.8 11.9.7-.2 36.5c-.1 20.1-.5 72.2-.9 115.7l-.6 79.3H1696v-7.8c0-4.2 1.4-55.6 3-114.2s3-107.7 3-109.2v-2.7l7.8.5c4.2.3 13.1.9 19.7 1.2m122.3 3.7c.2 5.1 6.2 222.2 6.2 226.2v2.3h-42.7l-.6-80.3c-.4-44.1-.7-96.2-.7-115.8v-35.7l17.3-.9c9.4-.6 17.9-.9 18.7-.9 1.1.1 1.6 1.5 1.8 5.1m-53.4 10c.3 7.1.8 59.2 1.1 115.7l.6 102.8h-45.2l.6-84.8c.3-46.6.8-98.7 1.1-115.7l.6-31h40.6zm1401.6 21.1c11.3 2.5 20.6 4.7 20.7 4.8.2.2-1.2 7.8-3.2 17-3.5 16.7-4.3 25.8-2.6 28.5.6.9 44.1 12.5 117.6 31.2 64.1 16.3 116.9 30 117.3 30.3 1.8 1.8-27.1 100.6-29.5 100.6-.6 0-51.7-16.2-113.4-36s-113-36-114-36c-4 0-6.6 5.6-14 29.7-2.3 7.9-4.7 14.3-5.2 14.3-1.7 0-139.3-49.2-141.4-50.6-3.2-2-3-9 .4-20.5l2.7-8.9 9.5-5.1c43.9-23.5 83.6-53.2 120.1-89.9 7.4-7.5 13.8-13.7 14.1-13.8s9.7 1.9 20.9 4.4m57 35.2c0 1.1-.9 2.7-2 3.7-1.7 1.6-2 1.6-2.6.2-.7-2 1.3-5.7 3.1-5.7.8 0 1.5.8 1.5 1.8m-469.2 21.9 7.4 9.6-4.4 4.4c-6.5 6.7-17.1 13.3-26.7 16.6-14.6 5.1-30.5 4-48.2-3.3-15.7-6.5-31.8-20.4-28.9-25 1-1.6 6-1.7 27.5-.6 23.6 1.2 41.7-1.5 57.6-8.8 3-1.3 6.1-2.4 6.9-2.4.8-.1 4.8 4.2 8.8 9.5m-222.4 27.9c5.5 2.1-3.7 21.2-17 35.3-19.3 20.6-42.8 27.1-68.9 19.1-18.9-5.8-41-22.4-37.5-28.1.8-1.1 3.2-1.3 13.2-.9 22.8.9 40.8.4 49.8-1.5 12.4-2.5 20.4-5.6 40.4-15.6 9.8-4.9 17.9-8.9 18.1-8.9s1 .3 1.9.6m458.6 25.3c0 .5-3.2 10.7-7.1 22.8-52.6 161.6-133.7 310-237.2 434.2-44.7 53.6-101.5 110.3-154.7 154.7-56 46.6-121.3 91.3-185.3 126.8l-6.9 3.8.7-8.8c.4-4.9 1.1-9.8 1.5-10.9.4-1.2 8.4-6.7 18.6-13 113.1-69.4 220.9-167.1 295.2-267.4 8-10.8 15.6-21.1 16.9-22.9 1.3-1.7 2.2-3.2 2-3.2-.3 0-10.8 11.4-23.5 25.2-71.4 78.4-160.3 154.9-246.7 212.5-23 15.3-58.3 37.3-59.8 37.3-.2 0-.7-16.8-1.1-37.3-.4-20.4-.8-38.8-.9-40.7-.2-3.4 0-3.5 24.9-21.5 48.1-34.4 92.8-72.7 132.4-113.1 28.2-28.9 57.4-62.4 75.4-86.7 13.9-18.9 24.7-33.7 24.3-33.7-.2 0-6.4 6.6-13.7 14.7-53.3 58.7-120.2 119.6-183 166.5-26.1 19.5-62.5 44.6-63.4 43.7-.2-.2-1.2-5.6-2.1-11.9-1.9-13.2-7.4-41.2-10.8-54.8l-2.3-9.4 6-4.6c34.1-26 60.9-49.4 92.4-80.6 27.8-27.5 54.9-57.9 74.5-83.4 2.7-3.4 5.1-6.2 5.3-6.2.3 0 5.6 2 11.7 4.4 27.3 10.7 52.6 15.4 77.7 14.3 7.4-.3 17.1-1.3 21.5-2.2 46.2-9.5 89.6-43.3 126-98 37.7-56.6 63.7-128.5 76.1-210.5l2.7-18.5 15.6-.1c17.4-.1 31.7-1.9 49.6-6.3 12.9-3.2 31.8-9.5 40.6-13.5 6.1-2.8 6.9-3 6.9-1.7m199.2 69.1c2.4 0 38.8 10.6 58.8 17.2 23.6 7.7 52.3 18.2 69.8 25.4 14.5 6 47.4 21.5 46.8 22.1s-32.3-6.6-49-11.2c-32.7-9-79.3-25.1-116.6-40.3l-14.5-5.9-11.8-15.9c-6.5-8.7-12.3-16.8-12.9-17.9s5.5 4.4 13.4 12.2c8 7.9 15.1 14.3 16 14.3m-129.1 4.1c38.2 14.4 69.9 26.4 70.6 26.8.8.4-.7 5.6-4.8 17.1-5.9 16.2-7.9 25.2-6.1 27.8.5.7 48.5 20.9 106.8 44.8 58.2 24 107.1 44.1 108.6 44.7l2.8 1.2-7.6 17.5c-13.6 31.5-26.5 58.9-43.8 93.3-14.4 28.8-17.2 33.8-18.8 33.3-1.1-.2-78.2-40.4-171.5-89.3-133-69.7-169.7-89.3-170.4-91.1-1.4-3.6.3-8.5 10.1-30.2 14.9-33 28.5-66.7 44.7-110.9 1.7-4.7 6.8-11.1 8.8-11.1.7 0 32.5 11.7 70.6 26.1m-1405.4-10.4c-.3 1-.5.2-.5-1.7s.2-2.7.5-1.8c.2 1 .2 2.6 0 3.5m50.8 234.8v172l-9 .6c-4.9.4-15 1-22.2 1.4l-13.3.7V2329l22.3.2 22.2.3zm60.5-.3v172.3h-45V2329h45zm58.8 1.7.2 173.4-9.2-.7c-5.1-.3-15-.9-22-1.2l-12.8-.7V2502c0-94.4.3-172 .7-172.4.4-.3 10.2-.5 21.7-.4l21.1.3zM3198 2339c0 1.6-4 5.1-5 4.5-1.4-.8-1.2-2.9.2-4.3 1.5-1.5 4.8-1.6 4.8-.2m-494.9 10.6c13.5 2.3 25.5 6.5 40.4 13.9 16.4 8.2 29.4 17.5 41 29 9 9 13.4 15.8 12.1 19.1-.9 2.4-6.3 1.6-27.1-4-31.6-8.4-51.4-11.3-71.5-10.2-21.2 1.1-35.4 4.8-55.5 14.6-15 7.3-27.3 15.6-48.9 32.7-9.3 7.4-18 14-19.2 14.5-9 4.1-6.6-12.2 5.2-35.4 20.6-40.1 55.2-68.9 90.2-74.8 8.1-1.3 23.5-1.1 33.3.6m-244.9 79.9c10.6 12.2 39.7 41.2 47.6 47.5l4.3 3.4-13.8 13.9c-29.1 29.3-75.9 70.1-106.7 92.9l-13.1 9.7-3.2-6.7c-20.4-41.9-29.3-60.7-29.2-61.6 0-.6 3-3.6 6.6-6.6 10.3-8.6 41.9-39.7 55.1-54.3 12.5-13.8 29.2-33.8 37-44.4 2.5-3.5 4.6-6.2 4.7-6 .1.1 4.9 5.6 10.7 12.2m658.5 88.6c91.7 50.1 167.8 91.8 169.1 92.6l2.3 1.4-3.8 6.7c-24.3 44-77.3 127.8-80 126.7-.7-.2-42.2-27.9-92.2-61.5-50.1-33.5-91.9-61-93.1-61-4.1 0-7.1 3.4-18.1 20.1-6.2 9.3-11.3 16.9-11.5 16.9s-28.2-20-62.1-44.4c-60.5-43.4-61.8-44.4-62.1-47.9-.4-4.4 1.3-7.8 12.1-24.4 16.9-25.8 38.7-63.1 57.2-97.6 6.1-11.5 11.7-18.7 14.5-18.7.5 0 76 41 167.7 91.1m-591.2-25.1c18.5 14.1 39.5 27.5 56.6 36.1l8 4-3.1 3.9c-3.8 4.8-46.2 45.9-64.5 62.5-15.1 13.7-57.5 49.3-68.5 57.3-4.1 3.1-15.3 11.4-24.8 18.5s-17.6 12.7-17.9 12.4-3.1-8.4-6.3-18c-3.2-9.5-9-25.4-12.9-35.2s-6.8-18.2-6.4-18.6c.5-.3 6.2-5.1 12.8-10.6 26.1-21.6 53.9-48.3 78.6-75.3 9-9.9 31.1-36.2 35.4-42.2 1.1-1.5 2.1-2.8 2.3-2.8.1 0 5 3.6 10.7 8m386.5 143.1c33.3 24.8 60.8 45.4 61.3 45.8.4.4-3.8 6.9-9.3 14.6-5.6 7.6-11 15.5-12.1 17.6-4.2 8.2-8 4.5 58.8 57.4 33.3 26.4 71.8 56.9 85.5 67.8l24.9 19.8-2 2.7c-5.5 7.7-46.1 55.2-61.2 71.6l-4.5 4.9-80-71.7c-43.9-39.5-80.4-72-81.1-72.3-3-1.2-9.1 3.8-22 17.9-7.5 8.2-13.9 14.7-14.3 14.6-1.9-.7-111-106-111-107.1.1-3.4 4.8-10.3 14-20.7 23.7-26.4 46.8-54.8 68.9-84.3 13.2-17.6 18.8-23.7 21.9-23.7.9 0 28.9 20.3 62.2 45.1m116.8 17.5 7.7 13.6 21.1 13.3c33.4 20.9 67 44.5 94.2 66.2 19.6 15.6 33.6 28.3 32.4 29.5-1.6 1.6-30.1-14.5-59.7-34-27.2-17.8-53.7-37-80-57.9l-13.1-10.3-6.8-18.7c-3.8-10.4-7.1-19.5-7.4-20.3-.7-2.6 3.6 4.4 11.6 18.6m-1335.3 43.9c4.2 4.1 3.1 10.5-2.2 13.3-3.3 1.8-5.9 1.4-9.2-1.4-6.1-5.1-2.6-14.4 5.4-14.4 2.5 0 4.4.8 6 2.5m58-1.9c1.9.8 4.5 5.5 4.5 8.4 0 1.2-1.4 3.5-3 5.2-2.7 2.6-3.6 3-6.8 2.5-4.6-.8-7.2-3.8-7.2-8.5 0-6.3 6.1-10 12.5-7.6m62 2.6c3.2 3.8 2.9 8.1-1.1 11.5-5.3 4.8-13.8 1-13.8-6 0-8.4 9.5-11.9 14.9-5.5m59.4-.8c4.6 4.8 2 13-4.4 14.2-8.6 1.6-13.7-8.4-7.5-14.6 2.9-2.9 9-2.7 11.9.4m1121.9 27.2c-.4 2.4-3.2 3.9-5.4 3-1.8-.7-1.8-.9.5-2.7 2.9-2.3 5.4-2.5 4.9-.3m-211.8 68.6 54.3 53.8-13.9 14.2c-14.1 14.4-17.4 19.2-15.8 22.7.5 1 33.4 36.1 73.2 78 39.7 41.8 72.2 76.5 72.2 77 0 1.7-37.5 35.5-66.4 59.8l-11.8 10-3.2-3.6c-1.8-2-32.4-38.4-68.1-80.9-35.7-42.6-65.5-77.6-66.2-77.9-3.4-1.3-9.7 2.4-24.7 14.3-11.2 9-16.3 12.4-17.2 11.8-.7-.5-22.2-27.6-47.9-60.3-37.4-47.8-46.4-59.9-45.9-61.5 1.3-4.1 4.7-7.7 14.7-15.9 29.6-23.9 57.3-48.5 84.4-75 17.2-16.8 22.6-21 26.4-20.4.9.1 26.1 24.4 55.9 53.9m-1059.9 49.3c16.1 48.9 20.5 64.5 24.4 86 4.1 23.1 4.6 31.8 5.2 85 .8 74.5-1.4 178.3-5.2 247.5-.8 14.6-1.6 28.3-1.6 30.5-.3 9-1.8-8.8-3.3-39-3.1-61-3.8-92.5-4.6-199.5-.8-117.1-.7-113.7-6.6-145-1.4-7.4-5.8-27.2-9.9-44-8-33.1-11.7-49.8-14-63-1.7-9.6-1.8-12.1-.3-7 .6 1.9 7.7 23.7 15.9 48.5m1170.6-23.5c2.7 6.9 5.7 14.6 6.7 17.2 1.5 4 3.9 6.5 19.9 20 33.1 28 63.4 56.3 85.9 80.6 22 23.5 24.2 26.3 22.3 28.1-1.3 1.3-2.1 1-6.7-2.2-14.9-10.2-50.6-41-76.8-66.3-14.3-13.8-41.6-41.5-46.7-47.4-1.6-1.8-3.2-7.5-6.2-21.8-5.6-26.4-5.6-26.5 1.6-8.2m-311 51.2c1.5 1.8 83.9 110.5 90 118.8 1 1.4-1.1 3.3-15 13.3-14.6 10.6-20.7 16.3-20.7 19.4 0 .7 27.2 39.7 60.5 86.7 33.3 47.1 60.8 86.2 61.1 86.9 1.1 3-107.9 72.6-137.4 87.6l-4.1 2.1-3.9-6.8c-30-51.5-180.2-315.6-180.2-316.7 0-3 6.2-8.3 17.2-14.5 33.9-19.1 76.3-45.9 105.6-66.7 18.3-13 22.7-14.6 26.9-10.1m269 21.5c.7 1.9-4.4 4-6 2.4-.9-1-.8-1.5.8-2.7 2.2-1.7 4.6-1.5 5.2.3m-114.2 89.1 2.9 13.3 8.4 9.2c32.2 35.2 67.1 79 89.6 112.6 9.2 13.7 9.6 14.4 7.7 15.7-1.1.8-2.6 1.1-3.4.8-1.6-.6-26.5-27.1-37.9-40.4-18.9-22-45.2-55.7-62.5-80.2l-9-12.8-.7-12.2c-.3-6.8-.8-16.8-1.1-22.3l-.5-10 1.8 6.5c1 3.6 3.1 12.5 4.7 19.8M2506 3150.6c64.1 117.3 81.7 150.2 80.7 151.1-1.9 2-68.3 35.1-91.7 45.8-21.7 9.9-62.3 27.6-62.6 27.2-.1-.1-18.9-44.5-41.9-98.7-22.9-54.2-42.3-99.5-43.1-100.7-.7-1.2-2.5-2.3-3.9-2.5-2.5-.3-2.3-.6 4.8-10 14.6-19.1 26.5-38.2 38.2-61.3 15.6-30.8 25-56.6 35.6-97.9.6-2.1 1.2-3.6 1.5-3.3.3.2 37.3 67.9 82.4 150.3m175.2-114.1c.3 1.7-5 3.1-6.4 1.7-1-1-1-1.5.2-2.3 1.8-1.1 6-.8 6.2.6m-345.7 162.1c-3.2 23.5-3.7 19.6 5.8 39.9 21.8 46.6 40.1 94.8 50.7 133.4 4.4 15.9 4.7 18.1 2.5 18.1-2.1 0-3.9-3.2-17.5-30.5-12.1-24.3-19.2-40.7-31.5-72.5-7.5-19.5-21.5-61-21.5-63.7 0-3.5 12.5-41.7 12.8-39.1.2 1.4-.4 7.9-1.3 14.4m-791.8 42c-.3.3-1.2.4-1.9.1-.8-.3-.5-.6.6-.6 1.1-.1 1.7.2 1.3.5m712.6 105.9c13.5 42.4 24.8 78.2 25.2 79.7.7 2.6.5 2.7-9.2 5.7-27.1 8.3-107.1 29.6-107.9 28.8-.1-.1-7.9-31.9-17.4-70.7-9.4-38.8-17.3-71.2-17.6-72.1-.3-1.3 1.6-2.4 8.3-4.9 24.6-9.2 60.2-26 82.3-38.8 5.8-3.3 10.8-5.8 11.1-5.4s11.7 35.3 25.2 77.7m-154.3-6.3c8.4 35.4 13.7 63.1 16.9 88.8 2.4 19.2 3.7 41.9 2.3 40.5-1.6-1.7-10.7-27-16.1-45-7.5-25.2-15.2-57.6-20.4-85.7l-1.4-7.7 6.1-1.9c9.8-3.2 9-3.8 12.6 11m-116.4 84.8c5.1 36 9 65.7 8.8 65.9-1.3 1.3-60.7 7.4-97.9 10.1-32.9 2.3-69.8 4-87.9 4h-12.9l.6-8.2c.4-4.6 1-28.3 1.3-52.6.6-35 1-44.5 2-44.9 3.2-1.2 19.3-23.8 21.6-30.4.2-.5 10.7-1.3 23.3-1.9 12.7-.6 31.3-1.7 41.5-2.5 40.3-3.1 76.8-5.3 84.5-5.1l5.9.1z" style="fill: rgb(3, 50, 73);"/>
  <path d="M1400.5 168c-32.4 7.1-60.7 13.7-62.8 14.7-8.8 3.9-16.5 15.1-17.4 25.2-.4 4.4 2.5 21.8 13.2 80.1 7.5 41 14.3 76.7 15.2 79.4 2.1 6.6 9.2 13.7 15.8 15.9 2.9 1 8 1.7 12.4 1.7 10.9 0 15.1-2.3 25.5-13.8 13.7-15 20-19.4 32.7-22.7 14.1-3.7 30.9.9 39.4 10.8 8.9 10.3 14.5 27.5 15.2 46.7.4 11 .2 13.3-1.7 18.9-5.1 15.3-16 24.6-33.8 29.2-14.5 3.7-28.5 2.3-51-5.3-11.3-3.8-25-.6-31.7 7.4-5.3 6.3-7.5 12.5-7.5 21.4 0 7 .4 8.9 3 14.2 5.2 10.3 13.3 15.6 31.5 20.3 8.1 2.2 11.1 2.4 29.5 2.4 17.2 0 22.3-.4 31.8-2.3 29.7-6 51-16.8 67.8-34.3 19.7-20.8 28.3-45.4 27.1-77.8-1.7-43.2-20.6-80.6-49.3-97.7-15.5-9.2-28-12.4-48.1-12.4-20.9 0-38.6 4.3-53.2 12.9-3 1.8-5.7 2.9-6.1 2.4-1-1.1-13.4-69.2-12.7-69.9.3-.3 20.3-4.8 44.4-10.1 48.6-10.5 51-11.3 57.5-19.9 12.6-16.4 7-38.5-11.8-47.4-9.3-4.3-10.9-4.1-74.9 10M1288 200.1c-21.6 5.8-96.3 30-113.5 36.8l-15 5.9 11.7-.5c12.7-.6 25.7.7 36.1 3.7l6.2 1.7 26-9c22.7-7.8 49.5-16.4 60.5-19.3l3.5-1 .6-7.4c.3-4.1.9-9.2 1.4-11.3.9-4.6 1.4-4.6-17.5.4" style="fill: rgb(3, 50, 73);"/>
  <path d="M1575.5 248.1c-33.8 1.8-39.2 2.3-89 8.4-21.9 2.6-77.5 11.7-79.2 13-.2.1.2 3 .8 6.4 1 5.7 1.3 6.2 3.3 5.6 19.5-5.8 25.1-6.7 46.6-7.5 18.7-.7 24.3-1.3 43.5-4.8 28.4-5.2 41.8-7.2 82-12.2 26.5-3.3 79.8-8.1 102-9.1 2.6-.2 1.3-.5-3.5-.9-14.2-1.4-73.1-.8-106.5 1.1m-416.9 11.4c-25.3 4.8-55.7 19.7-71.9 35.4-26.2 25.2-34.7 55-25.6 90.3 1.8 7.4 17 44 27.4 66.4 5.8 12.6 12 21.9 20.6 30.8 17.1 18.1 36.1 25.9 62.9 25.9 20.5.1 38.7-4.6 60.4-15.5 15.6-7.7 23.3-13.2 34.1-24.2 11.7-11.8 17.8-21.5 22.7-35.6 3.1-9.2 3.2-10.1 3.2-25-.1-20.2-2-27.4-15.5-58.9-18.5-43-22.8-51.1-34.4-63.9-10-11-25.7-20.5-40.4-24.4-10.3-2.7-32.5-3.3-43.5-1.3m21.8 59.1c5.7 1.9 15.3 10.5 19.1 17 4.1 7 26.3 58.7 28 65.3 3.4 13.2.9 23.3-8.2 33.1-6.3 6.8-17.2 12.8-28.3 15.6-17.6 4.4-33.6-3.1-42.1-19.8-4.7-9.3-25.1-57.6-26.5-62.7-4-15.4.9-29.7 13.1-38.1 15.3-10.6 32.7-14.6 44.9-10.4" style="fill: rgb(3, 50, 73);"/>
  <path d="M1159.5 344.4c-11 4.5-20.6 8.6-21.4 9-2 1.3-.9 9.7 2.4 17.7l2.6 6.7 13.2-5.8c7.3-3.1 18.3-7.7 24.4-10.1 6.2-2.4 11.3-4.8 11.3-5.2 0-2.1-7.4-15.7-9.8-18l-2.7-2.5zm-98-59.5c-29.4 13.8-32.9 15.6-54 27.1-8.8 4.8-23.9 13-33.5 18.3-21.1 11.4-40.2 23.2-39.3 24 .3.4 1.6.7 2.7.7 2.8 0 14.1 5.4 17.8 8.5 3.6 3 4.2 3.1 7.8.5 3.1-2.2 45-24.8 71.7-38.7l16.2-8.4 3.6-6.6c6.2-11.3 16.6-23.6 28-33.1 2.8-2.3 4.8-4.2 4.5-4.1-.3 0-11.7 5.3-25.5 11.8m243.5 8.7c-19.4 5.2-30.5 9.1-30.2 10.6.2.7 2.2 5.4 4.4 10.5l4 9.1 3.2-1.3c1.7-.8 9.9-3.4 18.1-6 8.3-2.5 15.5-4.7 16.1-4.9.8-.3.6-3.3-.7-10.2-1-5.4-2-10.1-2.1-10.5-.2-.3-5.9.9-12.8 2.7m131.3 70.8c-2.3.8-5.6 2.3-7.5 3.4-3.8 2.4-16.4 14.9-15.7 15.6.4.5 50-10.3 50.8-11 .9-.8-4.6-5.8-8.4-7.5-4.7-2.2-13.1-2.4-19.2-.5M913 373.2c-4.1 2.1-7.6 4.9-9.7 7.6-5.8 7.7-7.9 19.5-4.8 28.1.8 2.3 24.8 38.5 53.3 80.4 57.3 84.2 56.1 82.4 54.7 81.5-3.4-2-213.8-98.3-217.5-99.5-14-4.5-34.5 4.9-41.7 19.1-3.3 6.5-3.5 17.1-.5 23.7 1.9 4.4 167.6 248.4 171.5 252.7 1.2 1.3 4.9 3.7 8.4 5.4 5.6 2.7 6.9 3 14 2.6 9.4-.5 14-2.5 20.4-8.8 6-6 8.2-12.5 7.7-22.3-.2-4.8-1-8.5-2.4-11.2-1.2-2.2-25.6-38.4-54.2-80.4-28.7-42.1-52-76.7-51.8-76.9s48.9 22.1 108.2 49.4l107.9 49.8h8.5c7.5.1 9.3-.3 15.2-3.1 8.6-4.1 15.9-10.9 18.9-17.6 2.7-6.3 3.1-17.3.7-22.7-2-4.7-168-248.5-172.1-252.8-5.3-5.5-10.1-7.5-19.7-8-8.1-.4-8.8-.2-15 3m409 13.8c-7.4 2.2-13.6 4-13.7 4-.4 0 .9 22.4 1.3 22.9.1.1 5.8-1.5 12.6-3.7 6.8-2.3 17.3-5.5 23.3-7.2 6.1-1.7 11.8-3.4 12.8-3.7 1.4-.4.6-1.1-3.3-2.9-2.8-1.3-7.7-4.8-10.9-7.9-3.2-3-6.4-5.5-7.2-5.5-.8.1-7.5 1.9-14.9 4" style="fill: rgb(3, 50, 73);"/>
  <path d="M850.5 408.7c-17.6 12.4-38.7 27.9-46.8 34.4l-14.8 11.8 4.3 1.2c2.4.6 7.2 2.4 10.7 4s6.8 2.9 7.3 2.9 4.6-2.8 9.1-6.2c4.5-3.5 20.4-14.5 35.2-24.6 22.5-15.3 27-18.7 26.8-20.5-1.2-11.5-1.3-16.9-.5-20.7.6-2.4 1-4.6.9-4.7-.2-.1-14.7 10-32.2 22.4m174.5 1.2c-11.8 6.4-22.5 12.3-23.7 13.1-2.1 1.3-2.1 1.4 3.9 10.4 3.3 5 6.4 9.5 6.8 9.9.3.4 4.2-1.2 8.6-3.6 4.3-2.4 14.2-7.7 21.9-11.7s14.2-7.4 14.4-7.6c.7-.6-8.4-22.3-9.4-22.3-.5 0-10.7 5.3-22.5 11.8m-120.7 76.3-17.2 12.1 11.5 5.4 11.5 5.3 12.4-8.3 12.3-8.3-6.1-9.1c-3.4-5.1-6.4-9.2-6.7-9.3-.3 0-8.2 5.5-17.7 12.2m434.2-5.5-8 2.5 5.7 1.8c3.2 1 7.4 2.7 9.4 3.9l3.7 2.2-.7-3.2c-.3-1.7-.6-4.7-.6-6.5 0-1.9-.3-3.4-.7-3.3-.5 0-4.4 1.2-8.8 2.6m-268.7 12.1-17.6 9.6 6.6 9.8c3.7 5.3 6.9 9.7 7.2 9.8.6 0 38.2-19.8 38.9-20.6.3-.2-1.1-1.7-3-3.3s-5.6-5.6-8.3-9c-2.7-3.3-5.2-6.1-5.5-6-.3 0-8.5 4.4-18.3 9.7M1317 500c-4.2 1.3-151.3 61.1-155 63-8.6 4.4-13.4 12.5-13.5 22.5 0 5.9.5 7.8 3 12.4 1.7 3 4.8 6.7 6.9 8.3 5.4 3.9 13.6 6.2 19.2 5.3 2.5-.3 39.2-14.7 81.7-32 83-33.6 83.2-33.7 87.8-42.8 7.1-13.8 0-31.9-14.2-36.1-5.6-1.7-11.8-1.9-15.9-.6m-194.5 71.6c-8.2 4.6-15.4 8.5-16 8.7-.5.2 2.2 4.9 6 10.5l6.8 10.1 6.8-3.7 6.9-3.7-.6-5c-.7-5.7 1.3-15.1 4.6-21.5 1.1-2.2 1.7-4 1.3-3.9-.5.1-7.5 3.9-15.8 8.5m-217 42.5c.5.8 2.1 3.3 3.7 5.7l2.9 4.2 3-2c1.6-1.2 2.9-2.5 2.9-2.9 0-.6-3.8-2.4-12.4-6-.5-.2-.5.2-.1 1m68.9 55c-10.4 8.3-19.2 15.4-19.7 15.8-1.1 1.1 10.4 17.2 11.7 16.2 11.9-9.1 35.2-26.1 41.9-30.6 4.8-3.2 8.4-6.1 8-6.5-1.2-.9-21.2-10-22.1-10-.5 0-9.4 6.8-19.8 15.1M366.1 941.6c-9.7 3.4-17.4 10.2-21.9 19.3-2.4 5.1-2.7 6.6-2.6 16.1v10.5l27.9 74.5c15.3 41 28 75.4 28.2 76.5.3 1.8-7.2 4.8-76.3 30.4-43.1 16.1-78.6 29.8-81 31.4-5.8 3.8-9.1 7.9-12.7 15.6-2.5 5.3-3 7.7-3.1 14 0 4.2.5 9.5 1.2 11.8 1.8 6 8.4 15.4 13.4 18.9 4.1 3 256.9 119.2 265.6 122.1 2.8 1 7 1.4 12.5 1.2 14.9-.7 25.5-7.9 32.1-21.8 2.7-5.8 3.1-7.6 3-15.1 0-7.1-.5-9.5-2.7-14.5-3.6-7.7-6.8-11.8-12-15.3-3.1-2.2-125.7-58.9-173.6-80.5-3.2-1.4-4-2.2-3-2.7.8-.5 23.5-9 50.4-19 27-10 50.7-19.1 52.8-20.2 14.8-7.5 23-26.4 18.2-42.4-.8-2.7-9.6-26.8-19.5-53.4s-17.9-48.8-17.8-49.2c.2-.4 39.6 17.2 87.6 39.2 65.9 30.2 88.7 40.2 93.2 40.9 16.3 2.7 32.6-6.2 39.8-21.7 2.3-4.8 2.7-7 2.7-14.7s-.4-9.8-2.8-15c-3.6-7.7-6.8-11.8-12-15.3-4-2.8-256.6-118.8-264.9-121.8-5.3-1.8-17.1-1.7-22.7.2M188 1388.5c-10.3 3.2-21.2 13.8-24.4 23.7-2.3 7.2-2.1 18.4.5 25.3 3.6 9.8 14.6 19.8 24.4 22.4 2.2.5 58 8.5 124 17.6 66 9.2 120.2 16.9 120.4 17.1s-1.6 14.7-4 32.1l-4.4 31.8-3-.3c-1.7-.2-56.5-7.8-122-16.9-90.5-12.5-120.3-16.3-124.5-15.9-12.2 1.4-25.7 11.8-29.9 23.1-3.3 8.8-3.2 20.4.3 28 4.7 10.3 12.3 17.7 21.4 20.9 2.1.8 58.4 8.9 125.2 18.2 66.8 9.2 121.7 16.9 121.8 17 .5.4-8.1 62.8-8.7 63.6-.3.4-53.9-6.7-119.1-15.8-66.9-9.4-121.9-16.6-126.3-16.6-7-.1-8.5.3-15.2 3.6-14 6.9-20.8 17.8-20.9 33.6 0 10.5 2.8 17.3 10.4 25.4 9.5 10.1-.5 8.1 157.4 30.1 77.4 10.7 143.6 19.5 147.1 19.5 7.6 0 13.3-1.9 20.2-6.6 6.3-4.3 12.6-13.3 14.2-20.1.6-2.6 9.9-68.3 20.7-145.8 17.9-128.7 19.5-141.5 18.5-146.8-2.5-13.9-12.9-26.2-25.3-29.8-5.4-1.5-283.9-39.9-289.3-39.8-2.8 0-7 .7-9.5 1.4m258.5 420c-14.6 3-28.1 6.4-30.9 7.7-6.5 3-13 9.6-16.9 17.2-2.7 5.4-3.1 7.2-3.3 15.1l-.3 9-113.1 88.6c-62.2 48.7-115.1 90.5-117.5 92.9-2.4 2.3-5.6 7-7.2 10.4-2.4 5.3-2.8 7.3-2.8 15.1 0 8 .4 9.7 3.2 15.7 3.7 7.9 9.9 14.3 16.9 17.6 2.7 1.3 67.9 19.3 144.9 40.1 85.4 23.1 140.2 38.4 140.7 39.2.4.8 1.5 3.6 2.4 6.3 4.1 11.5 18 21.4 31.1 22.3 8.9.6 58.5-9.2 66.1-13.1 14.2-7.2 22.3-24.1 19.2-39.9-1.6-8.4-4.9-14.4-10.9-20-9.6-9-20.5-12-34.1-9.4-4.1.8-7.6 1.4-7.8 1.2-.5-.4-50-245-49.6-245.4.1-.2 3.4-1 7.1-1.7 8.9-1.9 14.8-4.8 20-10 23.1-23.1 8.2-62.6-24.1-64-5.6-.3-12.8.8-33.1 5.1m-18.6 207.4c8.4 41.8 15.2 76.4 15 76.9-.4 1-167.9-43.9-168.2-45.1-.2-.9 135.3-107.5 136.8-107.6.6-.1 7.9 34.1 16.4 75.8" style="fill: rgb(3, 50, 73);"/>
  <path d="M369.8 1992.5c-3.2 2.5-5.8 5.3-5.8 6.3 0 2 4.4 39.9 6.1 51.8l1.1 8.2 8.4 2.1c4.6 1.2 8.8 2.1 9.3 2.1s.3-2.3-.5-5.3c-.7-2.9-3.8-19.4-6.9-36.7s-5.7-31.8-5.8-32.2c-.1-.5-2.8 1.2-5.9 3.7M168.9 1862c-.4 33.1 0 45.6 2.3 89 2.6 47.9 3.5 59 4.5 59 1.1 0 11.3-8.6 11.3-9.5 0-.5-.5-3.7-1-7.1-4-24.6-11.2-92.5-13.5-126.4-1.4-21.2-2.7-39.6-2.8-41-.2-1.4-.5 14.8-.8 36m189.2-14.5c-.1 17.4 0 18.8 1.5 17.3 1.5-1.4 1.5-3.1.1-18.9l-1.4-17.4zm-94.5-6c-.9 9.5 0 88.7 1 94.2.4 1.8.9 3.3 1.3 3.3.3-.1 2.1-1.4 4-3l3.4-2.9-2.1-17.3c-1.2-9.5-2.6-25-3.2-34.3-.6-9.4-1.7-24.2-2.4-33l-1.2-16zm282.9 21.7c-1.8 74.2 7.5 164 24.5 236.2l4 16.9 6 6.4c12.6 13.4 17.6 31.4 13.5 48.5l-1.7 7.4 4.2 13.5c3.7 11.8 19.7 54.5 26.7 71.4 4 9.5 22.1 49.1 27 59 27.6 55.3 68.2 120.9 101.1 163.5 49.1 63.3 90.1 106.8 145.4 154.2 16.6 14.2 55.9 44.7 65.8 51.1 1.8 1.1-1.1-1.6-25.6-24.4-50.1-46.6-108.8-112.5-150.9-169.5-35-47.3-72.6-106.6-95.7-150.8-5.5-10.5-11.3-21.4-12.8-24.1-1.6-2.8-9-18.3-16.5-34.5-36.7-78.8-65.2-162.7-84.5-248.5-11.8-52.5-22.6-123.8-27.1-178.5-1.1-14.6-2.2-26.6-2.4-26.8-.1-.2-.6 12.9-1 29M192 2122.3c0 2.9 6.4 35.8 10.1 51.6 7.2 31.5 19.8 78.8 26.5 99.9 3.6 11.4 9.3 29.2 12.6 39.7 5.4 16.9 27.7 76 37.8 100 5.5 13.1 30 66.5 36 78.6 20.6 41.1 58.5 107.6 82.5 144.4 7.4 11.5 47.5 69.1 52.9 76 1.7 2.2 14.3 18.2 28.2 35.5 66.8 83.8 149.8 165.7 230.9 227.9 15.1 11.6 27.5 20.9 27.5 20.6 0-.2-10.7-9.9-23.7-21.6-40.5-36.3-100.9-97.4-139.3-140.8-17.4-19.8-58.8-70.2-69.8-85.1-6.3-8.5-17.4-23.4-24.7-33-7.2-9.6-24-33.7-37.2-53.5-46.2-69.4-86.8-141.2-120.4-213.4-20-42.8-19.9-42.5-37.6-87.1-17.5-44.1-38.5-105.3-49.4-144-13.7-48.4-17-61-20.5-76.4-1.8-8.2-3.5-15-3.7-15.2-.1-.2-4.4-1.4-9.5-2.8-6.3-1.7-9.2-2.1-9.2-1.3" style="fill: rgb(3, 50, 73);"/>
  <path d="M293 2149.5c0 4 19.8 78.7 26 98.5 4 12.4 9.2 29 11.7 37 10.9 34.8 47.8 124 68 164.5 17.7 35.3 48.1 88.9 73.6 129.5 20.2 32 75.8 107.3 100.6 136 12.1 14 47.8 53.9 54 60.3 18.3 19 61.5 59.8 84.6 79.8 26.9 23.3 37.1 31.6 66 53.2 18.8 14.1 17.9 13.1-14.5-16.2-59.3-53.5-139.8-141.2-183.8-200.1-6.3-8.5-17.9-24.1-25.7-34.5-20.7-27.7-51.9-74.9-75.7-114.9-65.3-109-118.7-232.1-153.2-353l-10.2-35.9-8-2.2c-13.6-3.7-13.4-3.7-13.4-2m103.4 27.4c.3.9 2.1 7.4 4 14.6 7.3 27.4 24.8 80.3 37.1 112 25.9 66.8 59.3 134.8 95.8 195 19.5 32 22.6 36.8 46.6 71 14.9 21.3 42.9 58.1 59 77.5 26.8 32.2 80.3 88.3 107.1 112.4 27.6 24.7 56.7 49 78.5 65.5 12.7 9.6 23.7 17.9 24.5 18.4 2.2 1.3-4.7-5.1-29.1-27.4-60.1-55.2-130.1-132.5-175.5-193.9-8.3-11.3-18.2-24.6-21.9-29.5-22.3-29.5-73.4-111.4-94.2-151-5.5-10.5-12.8-24.2-16.1-30.5-12.3-23.3-37.7-79.5-50.9-112.5-12.5-31.2-36.2-97.7-39.4-110.3-.7-2.9-1.8-5.7-2.4-6.1-.5-.5-6.1-2.2-12.3-3.9-9.7-2.6-11.2-2.7-10.8-1.3m122.9 41.5c-5.6 1.1-10.5 2.4-10.8 2.8-1 1 3.4 13.9 16.7 48.3 49.1 127.2 119.6 242.9 209 343 28.1 31.4 70.8 73.4 100.9 99.1 19 16.3 56.1 45.4 70.9 55.7 2.6 1.9-4-4.5-24-23.1-41.6-38.5-86.5-85.7-119.4-125.2-9.3-11.3-20-24.1-23.7-28.5-3.6-4.4-13.6-17.5-22.1-29-8.5-11.6-18.1-24.6-21.4-29-16.6-22.1-66.8-102.1-80.7-128.5-2.4-4.7-9-17.1-14.5-27.5-15.6-29.4-38-78.6-52.7-115.5-7.3-18.4-14.1-36.1-15.1-39.3-1-3.1-2-5.7-2.3-5.6s-5.2 1.1-10.8 2.3m1087-107.4c-13.2 2.8-25 9.8-37.8 22.5-35.6 35.1-53.4 95.6-53.5 182 0 48.5-9.3 98.9-23.9 129.9-14.5 31-35.7 48.1-50.7 41-6.5-3.1-6.2-4.2 1.5-4.2 14.8.1 26-9.7 27.7-24.5 2-17.2-12.9-32.2-30.1-30.4-12.3 1.3-21.7 9.7-24.4 21.8-1.5 7 .3 30.3 2.9 36.9 9.6 24.6 36.9 32 63 17.2 25.9-14.8 47.2-45.2 60.9-86.8 10.7-32.6 16-70.7 16.1-115.4.1-53.7 8.2-99.6 23-130.6 5.4-11.1 14.9-24.6 20.5-28.9l3.7-2.7-2.4 4.3c-1.8 3.5-2.3 6-2.3 12.4 0 7 .4 8.7 3 13.4 3.1 5.6 8.8 10.6 14.8 12.8 5 1.8 15.6 1.5 20.3-.6 6-2.7 11.4-8 14-13.6 2-4.1 2.4-6.7 2.4-14.5 0-5.4-.7-12.2-1.5-15.5-3-11.4-11.1-20.4-22.3-24.8-5.3-2.1-18.7-3-24.9-1.7m319.7.6c-10.8 2.9-19 9.9-23.7 20-3.1 6.8-4.9 23-3.3 30.1 5.7 25.5 41.3 29.1 52.3 5.3 2.8-6 2.9-16.8.2-22.5-1-2.2-2.1-4.5-2.3-5-.3-.6 1.9 1.2 4.8 4 20.5 19.7 34 57.6 39.5 110.7.8 8.6 2 31.5 2.5 51 1.2 44.8 3.8 67.2 11 95.3 15.4 59.7 48.9 102.9 85 109.7 12.3 2.3 26.6-1.8 34.8-10 4.8-4.8 9.8-14.7 11.2-22.1 1.6-8.4 1.3-29.5-.5-33.7-7.3-17.6-30.3-22.9-44.2-10.1-5.8 5.3-8.4 10.7-9.1 18.3-1.3 16.8 10.9 29.7 28.1 29.6 3.7 0 6.7.2 6.7.4s-2 1.5-4.5 3c-3.8 2.2-5.5 2.6-9.8 2.2-18.6-1.5-37.7-25.5-50-62.8-11-33.2-14.7-60.9-16.7-126.5-1.3-41.6-3.7-60.6-11.4-88.6-12.4-45.2-35.8-79.2-64.4-93.8-6.2-3.1-18.5-6.1-25.1-6-3.1 0-8.1.7-11.1 1.5" style="fill: rgb(3, 50, 73);"/>
</svg>