<?xml version="1.0" encoding="UTF-8"?>
<svg id="_Слой_2" data-name="Слой 2" xmlns="http://www.w3.org/2000/svg" viewBox="0 0 662.7 325.56">
  <defs>
    <style>
      .cls-1 {
        fill: #c0c7bc;
      }

      .cls-1, .cls-2, .cls-3, .cls-4, .cls-5, .cls-6, .cls-7, .cls-8, .cls-9, .cls-10, .cls-11, .cls-12 {
        stroke-width: 0px;
      }

      .cls-2 {
        fill: #c4cbbf;
      }

      .cls-3 {
        fill: #c1c8bc;
      }

      .cls-4 {
        fill: #b9c4b7;
      }

      .cls-5, .cls-13 {
        fill: #f6f3ed;
      }

      .cls-6 {
        fill: #009175;
      }

      .cls-7 {
        fill: #e6e7dd;
      }

      .cls-8 {
        fill: #e6e7de;
      }

      .cls-9 {
        fill: #e6e6de;
      }

      .cls-10 {
        fill: #ead492;
      }

      .cls-11 {
        fill: #c7cdc2;
      }

      .cls-12 {
        fill: #c5cbc0;
      }

      .cls-13 {
        stroke: #009175;
        stroke-miterlimit: 10;
      }
    </style>
  </defs>
  <g id="_Слой_1-2" data-name="Слой 1">
    <g>
      <path class="cls-6" d="m45.3,220.97c-2.31-7.03-4.27-14.2-7.01-21.05-4.21-10.54-8.2-21.22-13.91-31.08-5.52-9.54-10.97-19.1-15.02-29.37C5.01,128.42.59,117.35.26,105.21c-.15-5.47-1.1-16.96,1.96-30.74,1.91-8.57,4.76-15.9,5.39-15.75.43.1-.43,3.64-.11,9.51.16,3.05.72,5.25.92,7.01,1.99,17.65,7.97,34.09,15.42,50.03,4.23,9.05,7.56,18.4,10.59,27.87,4.14,12.91,7.41,26.06,9.92,39.38,0,0,1.96,10.44,3.14,25.13.76,9.45.31,10.04.12,10.07-.5.08-1.49-3.47-2.31-6.75Z"/>
      <path class="cls-13" d="m567.48,33.47c5.51-.06,10.88.9,16.34.87,1.05,0,2,.23,2.31,1.43l45.87,13.18c.38.31.89.58,1.12.93,5.99,9.34,10.39,16.61,12.43,26.45,1.72,8.28,1.83,16.44,1.7,25.01-.14,8.88-.8,17.33-1,26.01-.22,9.54-.3,12.4-1.13,21.87-.2,2.25-1,11.78-1,14,0,3-.43,12.4-.5,14.22-.46,11.38,1.08,22.59,3.8,33.61,1.55,6.27,4.06,12.27,5.95,18.45,3.15,10.3,4.61,20.88,5.01,31.54.25,6.54-.8,13.13-2.34,19.56-.12.49-.36.98-.4,1.47-.06.89-.53,2.16-.72,2.51-4.45,8.42-8.4,17.43-16.99,22.94-7.01,4.5-14.84,6.69-22.85,8.47-9.17,2.03-18.49,3.03-27.8,4.04-2.21.24-5.84.43-8.07.43-14.66-.01-29.33.33-43.98-.11-11.01-.33-21.97-1.74-32.96-2.62-8.16-.65-16.23-1.98-24.38-2.66-3.48-.29-13.05-1.74-25.66-3.94-17.36-3.04-23.5-4.86-38.57-6.72-4.28-.53-7.79-.88-10.03-1.08-14.17-2.16-28.38-4.23-42.67-5.24-13.17-.93-26.3-2.64-39.53-2.64-73.48,0-146.96.05-220.45-.03-15.3-.02-29.66-3.54-42.16-12.9-.3-.22-.62-.4-1.28-.3-.73-1.17-1.74-2.81-2.97-4.77-.87-1.39-1.43-2.28-1.48-2.36-5.98-10.87-7.49-16.4-6.46-26.1.72-6.73.89-13.49.9-20.39,0-1.84.49-3.71.2-5.81-.06-.41.03-.87-.01-1.33-1.61-18.17-4.99-35.99-9.98-53.55-3.59-12.63-7.25-25.26-12.87-37.12-5.38-11.35-9.82-22.99-13.2-35.04-1.78-6.35-2.46-15.94-3.68-21.56-.16-.74-.76-3.42-.89-6.97-.05-1.41-.02-2.52,0-3,.03-.79.6-3.52.99-7.12,2.05-19.03,9.85-34.57,25.86-44.46C45.87,5.27,59.23,2.45,73.22,1.67c6.92-.39,13.89-.76,20.8-1.06,9.64-.43,19.35.57,29.03.97,1.61.07,3.23.25,4.84.24,12.44-.06,24.71,2.01,37.07,2.84,8.17.55,16.26,1.78,24.37,2.67,6.72.74,13.5,1.51,20.21,2.65,10,1.7,20.08,2.94,30.1,4.57,12.09,1.97,24.15,4.15,36.23,6.21,8.79,1.5,17.61,2.67,26.49,3.53,14.7,1.42,29.43,2.23,44.16,3.15,4.09.25,8.18.42,12.27.57,13.18.49,23.91.82,30.96.96,5.92.12,13,.22,23.37.25,13.13.05,32.85,0,58.61-.46l95.76,4.71Z"/>
      <path class="cls-6" d="m345.79,305.23c-17.84,1-35.71,1.7-53.48,4.08-11.92,1.6-23.99,2.14-35.98,3.26-14.95,1.39-29.87,3.25-44.85,4.2-10.3.66-20.53,1.93-30.82,2.58-12.38.79-24.71,2.33-37.07,3.45-9.89.9-19.8,1.62-29.7,2.46-10.79.92-21.38-.28-31.48-3.99-6.35-2.34-15.16-6.07-20.73-15.07-6.9-11.14-6.12-26.38-5.24-26.56.04,0,.08,0,.16.08,1,1,2.32,1.53,2.89,2.01,6.02,5.14,13.07,8.27,20.73,10.41,7.74,2.15,15.76,3.11,23.79,3.11,74.64.06,149.28-.07,223.93.18,11.87.04,23.73,1.79,35.59,2.72,11.25.88,22.44,2.25,33.59,3.89.06,0,.12.02.18.03.5.07.82.37.88.42.71.55,7.35.73,7.42,1.23.04.26-1.6.74-3,1-1.91.35-3.53.31-4.62.2"/>
      <path class="cls-6" d="m464.61,28.81c2.46-.25,6.33-.63,11.08-1.02,38.14-3.14,42.9.17,73.74-2.22h0c38.37-2.74,61.92-4.14,79.72,8.29,2.65,1.85,6.5,4.93,10.45,9.85,1.43,2.12,2.82,4.54,4.05,7.25,5.89,13.04,4.67,25.69,3.33,32.75-1.37-7.36-3.57-13.08-5.38-17-1.64-3.56-3.08-6.6-6-10,0,0-4-4.69-10-8-19.51-10.78-88.19-15.03-103-16-6.48-.43-11.61-.82-14-1"/>
      <path class="cls-6" d="m656.81,266.72c-.15-3.88-.45-9.09-1.06-15.21,0,0-.46-6.48-1.49-11.91-1.79-9.48-4.56-15.75-6.82-26.34-5.14-24.11-3.85-46.48-3.21-46.53.14-.01.34,1.04.51,2.02.88,5.25,3.19,13.96,7.71,31.38,4.88,18.81,6.25,17.94,8.23,29.6.52,3.06,1.5,9.48,1.85,17.73.28,6.69.28,11.5-.47,17.59-.9,7.27-3.42,13.62-6.75,19.68.5-6,1-12,1.5-18Z"/>
      <g>
        <path class="cls-10" d="m39.08,35.75c.51-2.2.37-5.36.08-8.64-.54-5.93,3.89-8.97,9.49-6.68,4.72,1.93,9.55,2.68,14.51,2.27,5.16-.42,9.94,2.93,8.8,9.88-.79,4.87-6.48,12.29-12.37,13.72-3.18.77-5.35-.19-7.21-2.49-.86-1.06-1.48-2.3-2.29-3.4-.79-1.07-1.48-2.58-3.04-2.39-1.42.17-1.03,1.76-1.44,2.73-.57,1.34-1.57,2.38-3.15,2.12-1.72-.29-2.89-1.49-3.33-3.14-.25-.93-.04-1.98-.04-3.98Z"/>
        <path class="cls-10" d="m59.27,47.92c1.91,2.99,5.59,1.82,7.46,4.26,2.23-2.07,4.99-2.61,7.89-2.86.17-.01.35-1.38.3-2.1-.19-2.58.93-3.71,3.51-3.52,2.76.2,2.76-1.24,1.36-2.82-1.62-1.83-2.41-3.12.54-4.39,2.36-1.01.58-2.07-.22-3.04-1.19-1.46-3.7-2.18-1.88-5.11.8-1.3-1.4-1.51-2.51-1.83-1.27-.37-3.09-.44-3.17-1.99-.06-1.15,1.34-2.09,2.58-2.39,1.43-.35,2.67-.22,3,1.75.24,1.46,1.69,1.6,2.92,1.89,1.89.45,3,1.36.83,2.84-2.6,1.77-1.01,2.76.51,3.81.61.42,1.38.62,1.97,1.06.97.74,2.37,1.41,2.28,2.75-.12,1.74-1.8,1.27-2.95,1.52-2.11.45-3.4,1.24-1.26,3.36.52.51.78,1.27,1.25,1.85,1.79,2.24.95,3.06-1.59,3.01-.5,0-1,0-1.5,0-4.15.04-4.65.58-3.93,4.46.25,1.33,1.16,2.79-.15,3.83-1.63,1.29-2.28-.83-3.37-1.39-1.77-.89-3.15-1.19-3.33,1.41-.19,2.84-1.38,2.41-3.05,1.05-1.41-1.16-2.51-4.11-4.87-.95-.45.61-1.21.06-1.54-.47-1.02-1.63-2.64-3.14-1.07-6Z"/>
        <path class="cls-5" d="m53.46,24.29c1.26,0,2.03-.12,2.75.03,1.3.26,3,.18,3.54,1.58.54,1.39-1.02,2.11-1.83,2.97-1.88,2.01-3.66,4.01-4.19,6.88-.18.98-.55,2.37-1.96,2.42-1.13.04-1.6-1.03-2.18-1.83-.29-.4-.56-.83-.86-1.22-1.29-1.66-4.15-2.89-2.42-5.54,1.76-2.69,2.74-6.99,7.15-5.3Z"/>
        <path class="cls-5" d="m62.95,36.91c2.49-1.85,2.21-3.58-.16-5.31-.86-.62-2.3-1.22-1.62-2.52.77-1.5,2.55-1.93,4.07-2.37,1.34-.39,1.91.73,2.47,1.76,1.23,2.28.38,4.61-.54,6.44-1.55,3.06-3.78,5.83-7,7.48-2.29,1.17-5.48-.76-5.21-3.28.24-2.2,1.98-1.43,3.17-1.13,1.84.47,3.63,1.28,4.82-1.04l.02-.02Z"/>
      </g>
      <g>
        <path class="cls-12" d="m614,60.59c-.14,2.84-.75,4.54-2.32,5.69-1.67,1.23-.14,2.17.3,3.16.71,1.64,2.64,3.24.99,5.05-1.68,1.86-3.73.24-5.56-.23-1.02-.26-1.76-1.51-3.04-.95-2.14.92-3.88,2.74-6.36,2.91.08.46.08.94.24,1.37.34.93.76,1.83,1.13,2.75.77,1.93,3.54,3.82,1.22,5.92-2.3,2.08-4.41-.56-6.28-1.61-1.44-.8-2.83-1.97-4.14-3.07-2.54-2.13-4.58-4.65-3.53-8.32.51-1.79-.07-3.03-1.22-4.38-5.99-7.02-11.04-14.65-14.85-23.1-1.73-3.83-2.31-7.88-2.43-11.96-.14-4.43,2.55-6.83,6.99-6.88,8.49-.1,14.92,4.55,21.22,9.36,4.9,3.74,8.88,8.49,13.18,12.88,1.11,1.13,1.92,1.47,3.52,1.04,2.61-.7,4.78.13,6.29,2.65,1.8,2.99,3.43,6.06,4.64,9.32.38,1.02.72,2.23-.45,3.07-.94.67-1.92.42-2.81-.12-2.09-1.29-4.58-1.83-6.73-4.56Z"/>
        <path class="cls-2" d="m632.49,76.4c-4.64-3.47-9.47-5.53-15.75-2.44.85-2.37,2.26-3,3.81-3.13,5.41-.46,9.88,1.66,13.79,5.26,1.76,1.63,1.52,4.83,1.22,5.66-1.34,3.78,1,6.5,1.98,9.39,1.39,4.13-1.78,7.34-1.31,11.14.04.3-.99,1.12-1.34,1.02-4.42-1.21-9.27,2.16-13.52-1.41-2.13-1.78-5.08-1.68-7.69-2.13-2.96-.51-4.81-1.93-6.11-4.6-1.5-3.1-2.69-6.17-1.67-9.65.55-1.89.48-4.2,3.08-5.22q-2.41,10.52,1.29,15.9.89-2.05,5,2.42c.47-1.59.36-3.4,2.75-1.02,2.6,2.58,5.81,5.85,10.43,3.13.41-.24,1.36.37,2.03.66,3.22,1.37,4.77.62,4.38-2.68-.41-3.5,2.78-6.91.06-10.4-.91-1.17-1.3-2.79-2.31-3.82-2.03-2.08,2.11-1.8,1.09-3.1-.89-1.14-2.53-1.79-3.14-3.01-.75-1.48,1.53-.63,1.92-1.97Z"/>
        <path class="cls-1" d="m611.5,82.72c.15,1.05.16,2.14.46,3.14.7,2.31,1.18,4.78,4.48,4.93.65.03,2.45.71,2.11,2.12-.46,1.86-1.94.42-2.76.33-3.72-.41-6.08-5.83-4.29-10.51Z"/>
        <path class="cls-3" d="m617.96,75.6c5.34-.68,6.92,3.96,9.93,6.59.39.34.23.99-.18,1.31-.71.56-1.04-.12-1.47-.54-2.6-2.58-4.21-6.27-8.28-7.36Z"/>
        <path class="cls-11" d="m629.9,94.29c-.44-3.03-1.38-5.89-2.37-8.96,3.19,1.82,4.21,5.55,2.37,8.96Z"/>
        <path class="cls-5" d="m604.42,53.89c1.02,2.08,2.04,3.13,3.64.4.53-.9,1.41-2.14,2.64-1,.83.77,1.8,1.77,1.13,3.26-.73,1.61-1.58,3.07-3.02,4.18-.96.74-1.58,1.38-2.73.1-1.94-2.14-4.03-1.31-5.95.2-2.06,1.62-2.72,3.8-1.19,5.9,1.39,1.91.47,2.54-.99,3.35-1.19.66-2.35,1.35-3.48,2.1-1.19.79-2.58.87-3.52.08-2.74-2.32-5.18-4.98-7.2-7.97-1.21-1.8.67-2.38,1.59-2.53,2.66-.45,3.89-2.52,5.25-4.67-1.95,1.23-3.97,2.36-5.83,3.72-1.71,1.25-2.94.79-4.12-.68-5.55-6.89-9.37-14.61-10.8-23.38-1.02-6.27,2.88-9.91,9.07-8.19,9.18,2.54,16.79,7.83,23.01,14.95,1.56,1.79,3.71,2.8,5.03,4.89,1.92,3.06,1.28,4.75-2.51,5.3Z"/>
        <path class="cls-8" d="m609.92,73.42c-4.23-1.6-7.27-4.08-9.08-8.01-.63-1.36-1.24-2.38.49-3.37,1.53-.87,3.01-1.44,4.3.14,2.4,2.96,4.52,6.13,5.9,9.72.16.41.3,1.05.1,1.35-.54.79-1.33.22-1.7.17Z"/>
        <path class="cls-8" d="m599.72,84.58c-4.98-.24-7.62-3.58-10.69-6.16-1.16-.97-.83-2.53-.93-3.86-.05-.71.59-1.37,1.15-1.1,3.32,1.61,7.79,1.73,8.61,6.7.23,1.4,1.11,2.69,1.86,4.43Z"/>
        <path class="cls-7" d="m622.57,63.23c-3.74,0-6.1-2.31-8.7-4.15-.74-.52-1.09-1-.49-1.79.7-.91.53-1.77.14-2.79-.31-.79-2.34-1.51-.39-2.58,1.49-.82,3.18-.55,4.04.76,2.14,3.26,4.68,6.39,5.41,10.54Z"/>
        <path class="cls-4" d="m591.88,46.03c-1.14,4.28-5.65,6.96-9.76,5.8-3.88-1.09-7.13-6.58-6.07-10.26,1.18-4.13,6.08-6.79,10.38-5.64,4.75,1.28,6.79,5.06,5.45,10.09Z"/>
        <path class="cls-9" d="m589.75,45.26c-.67,2.57-4.43,4.83-7,4.2-1.79-.44-4.26-6.48-3.31-8.75,1.13-2.7,3.44-3.36,6.16-2.64,3.22.85,5,3.97,4.16,7.19Z"/>
      </g>
    </g>
  </g>
</svg>