<?xml version="1.0" encoding="utf-8"?>
<!-- Generator: Adobe Illustrator 27.5.0, SVG Export Plug-In . SVG Version: 6.00 Build 0)  -->
<svg version="1.1" xmlns="http://www.w3.org/2000/svg" xmlns:xlink="http://www.w3.org/1999/xlink" x="0px" y="0px"
	 viewBox="0 0 500 500" style="enable-background:new 0 0 500 500;" xml:space="preserve">
<g id="BACKGROUND">
	<rect style="fill:#C7EFFF;" width="500" height="500"/>
</g>
<g id="OBJECTS">
	<ellipse style="fill:#C7EFFF;" cx="249.328" cy="438.575" rx="163.76" ry="18.946"/>
	<g>
		<g>
			<path style="fill:#4A4446;stroke:#211F20;stroke-width:3;stroke-linecap:round;stroke-linejoin:round;stroke-miterlimit:10;" d="
				M168.406,251.422c-23.8,0-34.314-21.505-36.603-33.916c-0.582-3.155,1.505-6.185,4.66-6.766c3.159-0.576,6.175,1.5,6.763,4.645
				c0.034,0.177,1.515,7.604,6.191,14.215c5.837,8.252,13.717,11.451,24.094,9.775c3.17-0.517,6.149,1.642,6.661,4.809
				c0.512,3.168-1.642,6.15-4.809,6.661C172.928,251.237,170.609,251.422,168.406,251.422z"/>
		</g>
		<g>
			<g>
				<path style="fill:#4A4446;" d="M285.003,378.481l-125.448-18.006c-3.602-0.517-6.486-2.244-8.328-4.675
					c-2.195-2.896-7.355-10.284-10.133-18.33l79.051-210.206c2.407-7.43,10.756-12.535,18.647-11.402l125.134,8.036
					c4.429,4.059,8.462,13.356,10.008,17.005c1.061,2.503,1.216,5.446,0.237,8.469L303.65,367.079
					C301.244,374.509,292.895,379.614,285.003,378.481z"/>
				<g>
					<polygon style="fill:#211F20;" points="357.118,202.017 312.556,120.599 303.31,120.006 353.802,212.257 					"/>
					<polygon style="fill:#211F20;" points="337.489,122.201 322.753,121.254 360.776,190.725 366.063,174.406 					"/>
					<path style="fill:#211F20;" d="M278.939,330.797l-14.736-0.946l26.496,48.41c4.176-0.889,8.025-3.32,10.564-6.677
						L278.939,330.797z"/>
				</g>
				<path style="fill:none;stroke:#211F20;stroke-width:3;stroke-linecap:round;stroke-linejoin:round;stroke-miterlimit:10;" d="
					M285.003,378.481l-125.448-18.006c-3.602-0.517-6.486-2.244-8.328-4.675c-2.195-2.896-7.355-10.284-10.133-18.33l79.051-210.206
					c2.407-7.43,10.756-12.535,18.647-11.402l125.134,8.036c4.429,4.059,8.462,13.356,10.008,17.005
					c1.061,2.503,1.216,5.446,0.237,8.469L303.65,367.079C301.244,374.509,292.895,379.614,285.003,378.481z"/>
			</g>
			<path style="fill:#4A4446;stroke:#211F20;stroke-width:3;stroke-linecap:round;stroke-linejoin:round;stroke-miterlimit:10;" d="
				M276.848,364.429L151.4,346.423c-7.892-1.133-12.339-8.074-9.932-15.504l70.521-217.707c2.407-7.43,10.755-12.535,18.647-11.402
				l125.448,18.006c7.892,1.133,12.338,8.074,9.932,15.504l-70.521,217.707C293.089,360.456,284.74,365.561,276.848,364.429z"/>
			<g>
				<path style="fill:#9EA1FF;" d="M154.214,337.737c-2.793-0.401-4.372-2.865-3.52-5.495l70.521-217.706
					c0.852-2.63,3.816-4.442,6.609-4.041l125.447,18.006c2.793,0.401,4.372,2.865,3.52,5.495L286.27,351.702
					c-0.852,2.629-3.816,4.442-6.609,4.041L154.214,337.737z"/>
				<g>
					<g>
						<path style="fill:#211F20;" d="M235.138,216.338c-2.183,6.738-7.961,11.625-12.906,10.915
							c-4.945-0.71-7.184-6.747-5.001-13.486c2.183-6.738,7.961-11.625,12.906-10.915C235.081,203.562,237.32,209.6,235.138,216.338
							z"/>
						<path style="fill:#211F20;" d="M298.99,225.503c-2.183,6.738-7.961,11.625-12.906,10.915
							c-4.945-0.71-7.184-6.747-5.001-13.486c2.183-6.738,7.961-11.625,12.906-10.915
							C298.934,212.727,301.173,218.765,298.99,225.503z"/>
					</g>
					<path style="fill:#5D5FAD;" d="M267.648,247.933c7.267,1.043,6.856,3.305,5.658,7.003
						c-1.198,3.697-10.408,17.232-31.243,14.242c-20.836-2.991-20.848-17.849-19.65-21.547c1.198-3.697,2.224-5.871,9.49-4.828
						L267.648,247.933z"/>
					<path style="fill:#FA3E4D;" d="M223.42,257.525c2.182,4.926,7.352,10.032,18.642,11.652
						c11.291,1.621,19.161-1.613,24.199-5.503c-2.182-4.926-7.352-10.031-18.643-11.652
						C236.329,250.402,228.458,253.635,223.42,257.525z"/>
					<path style="fill:none;stroke:#211F20;stroke-width:3;stroke-linecap:round;stroke-linejoin:round;stroke-miterlimit:10;" d="
						M267.648,247.933c7.267,1.043,6.856,3.305,5.658,7.003c-1.198,3.697-10.408,17.232-31.243,14.242
						c-20.836-2.991-20.848-17.849-19.65-21.547c1.198-3.697,2.224-5.871,9.49-4.828L267.648,247.933z"/>
				</g>
				<g style="opacity:0.12;">
					<path style="fill:#FFFFFF;" d="M194.859,195.901l-28.336,87.477l36.848,61.414l76.29,10.95
						c2.793,0.401,5.757-1.412,6.609-4.041l0.725-2.239L194.859,195.901z"/>
					<polygon style="fill:#FFFFFF;" points="312.771,122.688 246.423,113.165 322.478,239.923 343.736,174.297 					"/>
				</g>
				<path style="fill:none;stroke:#211F20;stroke-width:3;stroke-linecap:round;stroke-linejoin:round;stroke-miterlimit:10;" d="
					M154.214,337.737c-2.793-0.401-4.372-2.865-3.52-5.495l70.521-217.706c0.852-2.63,3.816-4.442,6.609-4.041l125.447,18.006
					c2.793,0.401,4.372,2.865,3.52,5.495L286.27,351.702c-0.852,2.629-3.816,4.442-6.609,4.041L154.214,337.737z"/>
			</g>
		</g>
		<g>
			<path style="fill:#4A4446;stroke:#211F20;stroke-width:3;stroke-linecap:round;stroke-linejoin:round;stroke-miterlimit:10;" d="
				M171.275,398.537c-0.131,0-0.261-0.004-0.393-0.012c-3.201-0.214-5.623-2.982-5.41-6.184
				c0.754-11.306,7.296-31.983,27.032-37.769c3.085-0.909,6.306,0.861,7.209,3.939c0.903,3.079-0.861,6.306-3.939,7.209
				c-17.021,4.991-18.693,27.171-18.708,27.395C176.86,396.184,174.306,398.537,171.275,398.537z"/>
		</g>
		<g>
			<path style="fill:#4A4446;stroke:#211F20;stroke-width:3;stroke-linecap:round;stroke-linejoin:round;stroke-miterlimit:10;" d="
				M263.546,401.22c-0.152,0-0.304-0.005-0.459-0.018c-22.086-1.727-34.908-14.514-34.298-34.205
				c0.098-3.207,2.775-5.744,5.986-5.627c3.207,0.099,5.726,2.779,5.627,5.986c-0.521,16.836,12.542,21.4,23.592,22.263
				c3.199,0.251,5.589,3.046,5.339,6.245C269.093,398.907,266.548,401.22,263.546,401.22z"/>
		</g>
		<path style="fill:#FFFFFF;stroke:#211F20;stroke-width:3;stroke-linecap:round;stroke-linejoin:round;stroke-miterlimit:10;" d="
			M156.416,393.254c-1.169-3.761,2.814-8.531,5.337-8.867c7.207-0.961,16.307,4.252,19.121,7.726
			c0.784,1.545,1.415,7.826-3.049,10.935L156.416,393.254z"/>
		<path style="fill:#FFFFFF;stroke:#211F20;stroke-width:3;stroke-linecap:round;stroke-linejoin:round;stroke-miterlimit:10;" d="
			M144.896,387.397c7.171,0.307,14.805,3.855,16.398,4.135c6.39,1.546,15.189,6.472,16.906,8.979s3.022,10.068-0.068,17.68
			l-34.426-19.269L144.896,387.397z"/>
		<path style="fill:#FFFFFF;stroke:#211F20;stroke-width:3;stroke-linecap:round;stroke-linejoin:round;stroke-miterlimit:10;" d="
			M146.748,399.495c1.28-4.478-0.253-10.347-1.853-12.098c-6.707-1.524-16.792-1.198-21.143,7.763L146.748,399.495z"/>
		<path style="fill:#FFFFFF;stroke:#211F20;stroke-width:3;stroke-linecap:round;stroke-linejoin:round;stroke-miterlimit:10;" d="
			M177.858,419.121c2.275-4.86-8.147-13.948-23.279-20.298c-15.132-6.35-29.244-7.557-31.519-2.697l-1.338,7.301l53.321,22.375
			L177.858,419.121z"/>
		<path style="fill:#FFCE80;stroke:#211F20;stroke-width:3;stroke-linecap:round;stroke-linejoin:round;stroke-miterlimit:10;" d="
			M152.391,406.051c14.724,6.179,24.866,15.021,22.652,19.75c-2.214,4.729-15.945,3.554-30.669-2.624
			c-14.724-6.179-24.866-15.021-22.652-19.75C123.936,398.698,137.667,399.873,152.391,406.051z"/>
		<path style="fill:#FFFFFF;stroke:#211F20;stroke-width:3;stroke-linecap:round;stroke-linejoin:round;stroke-miterlimit:10;" d="
			M256.306,404.197c0,0-0.994,9.285-2.564,13.993l16.306,11.321c5.993-1.757,15.189-20.873,15.809-30.017
			c-6.199-6.044-12.765-9.247-16.508-9.35C266.329,393.554,256.306,404.197,256.306,404.197z"/>
		<path style="fill:#FFFFFF;stroke:#211F20;stroke-width:3;stroke-linecap:round;stroke-linejoin:round;stroke-miterlimit:10;" d="
			M261.897,389.41c1.608,3.593-1.728,9.921-8.154,10.27c-0.226,4.207,1.152,5.378,4.94,5.791c3.789,0.413,10.416-3.446,11.71-9.575
			c1.309-6.2-0.276-7.508-3.238-8.679C265.121,386.412,262.562,386.85,261.897,389.41z"/>
		<path style="fill:#FFFFFF;stroke:#211F20;stroke-width:3;stroke-linecap:round;stroke-linejoin:round;stroke-miterlimit:10;" d="
			M244.631,430.958c-1.24-5.58,2.17-12.563,9.506-14.082c7.336-1.52,14.348,4.147,18.075,10.871
			C270.255,432.921,257.443,437.984,244.631,430.958z"/>
		<path style="fill:#FFFFFF;stroke:#211F20;stroke-width:3;stroke-linecap:round;stroke-linejoin:round;stroke-miterlimit:10;" d="
			M285.858,399.495c-0.827,10.385-7.853,24.334-15.809,30.017c-7.956,5.683-18.702,5.786-25.418,1.447
			c-1.55,2.893-1.033,7.13,1.86,8.783c2.893,1.653,16.946,6.303,29.448-5.27c12.503-11.573,15.602-31.423,15.602-31.423
			S289.577,399.959,285.858,399.495z"/>
		<g>
			<path style="fill:#4A4446;stroke:#211F20;stroke-width:3;stroke-linecap:round;stroke-linejoin:round;stroke-miterlimit:10;" d="
				M365.829,300.556c-0.194,0-0.388-0.009-0.585-0.029c-3.192-0.319-5.521-3.166-5.203-6.358c0.749-7.494-1.834-15.006-7.084-20.608
				c-4.881-5.208-11.238-7.943-17.978-7.713c-3.153,0.12-5.896-2.397-6.007-5.605c-0.111-3.206,2.398-5.896,5.605-6.007
				c9.936-0.359,19.757,3.802,26.858,11.38c7.543,8.05,11.249,18.877,10.167,29.708C371.303,298.32,368.777,300.556,365.829,300.556
				z"/>
		</g>
		<g id="XMLID_00000116918300942865801890000003018752050823839135_">
			<g>
				<path style="fill:#FFFFFF;" d="M148.541,211.084c2.472,4.436,1.542,10.742-9.823,13.013
					c-11.365,2.281-14.354-5.471-12.812-9.295C129.423,216.143,142.404,218.107,148.541,211.084z"/>
				<path style="fill:#FFFFFF;" d="M151.572,196.275c-0.623-3.317-1.172-5.651-6.686-5.999c1.584-9.232,2.619-17.428,2.546-21.357
					c-0.063-3.919-3.507-5.989-7.087-3.855c-3.591,2.134-5.45,21.219-5.45,21.219c-2.545-13.361-4.753-20.522-6.95-22.075
					c-2.208-1.553-6.749-1.352-7.235,4.161c-0.486,5.514,0.824,15.294,4.89,18.811c-3.581-0.275-6.475,2.894-5.989,6.264
					c0.042,0.274,0.085,0.549,0.148,0.834c0.08,0.375,0.181,0.759,0.302,1.147c-0.121-0.388-0.221-0.772-0.302-1.147
					c-2.989-1.13-5.788,2.176-5.165,5.904c0.549,3.274,2.894,5.904,5.661,6.728c0.38,0.116,0.771,0.201,1.162,0.243
					c3.253,0.359,5.123-1.754,4.447-5.133c-1.775-0.576-3.14-1.761-4.142-3.178c1.002,1.417,2.367,2.602,4.142,3.178
					c0.676,3.38-1.194,5.492-4.447,5.133c-0.391-0.042-0.782-0.127-1.162-0.243c-0.961,2.978,1.827,7.478,5.651,7.89
					c3.517,1.341,16.498,3.306,22.635-3.718C151.012,206.12,152.185,199.581,151.572,196.275z"/>
			</g>
			<g>
				<path style="fill:none;stroke:#211F20;stroke-width:3;stroke-linecap:round;stroke-linejoin:round;stroke-miterlimit:10;" d="
					M144.886,190.276c-4.51-0.222-7.827-0.634-9.242-0.739c-1.415-0.106-2.704,1.141-2.915,3.2
					c-0.106,0.993-0.095,2.207,0.665,3.285c0.813,1.172,2.493,2.186,5.841,2.609c-3.718,1.236-7.277,5.059-6.971,9.559"/>
				<path style="fill:none;stroke:#211F20;stroke-width:3;stroke-linecap:round;stroke-linejoin:round;stroke-miterlimit:10;" d="
					M119.759,194.279c-2.989-1.13-5.788,2.176-5.165,5.904c0.549,3.274,2.894,5.904,5.661,6.728c0.38,0.116,0.771,0.201,1.162,0.243
					c3.253,0.359,5.123-1.753,4.447-5.133"/>
				<path style="fill:none;stroke:#211F20;stroke-width:3;stroke-linecap:round;stroke-linejoin:round;stroke-miterlimit:10;" d="
					M120.255,206.912c-0.961,2.979,1.827,7.478,5.651,7.89c-1.542,3.824,1.447,11.576,12.812,9.295
					c11.365-2.271,12.294-8.576,9.823-13.013c2.472-4.964,3.644-11.502,3.031-14.808c-0.623-3.317-1.172-5.651-6.686-5.999
					c1.584-9.231,2.619-17.428,2.546-21.357c-0.063-3.919-3.507-5.989-7.087-3.855c-3.591,2.133-5.45,21.219-5.45,21.219
					c-2.545-13.361-4.753-20.522-6.95-22.075c-2.208-1.553-6.749-1.352-7.235,4.161c-0.486,5.514,0.824,15.294,4.89,18.811
					c-3.581-0.275-6.475,2.894-5.989,6.263c0.042,0.275,0.085,0.549,0.148,0.835c0.644,3,2.556,6.591,6.105,7.742
					c0.306,0.095,0.634,0.18,0.972,0.243c4.552,0.824,5.651-2.926,4.172-5.197c-0.18-0.285-0.37-0.539-0.539-0.771
					c-1.246-1.626-2.303-2.155-3.454-4.299"/>
				<path style="fill:none;stroke:#211F20;stroke-width:3;stroke-linecap:round;stroke-linejoin:round;stroke-miterlimit:10;" d="
					M125.906,214.801c3.517,1.341,16.498,3.306,22.635-3.718"/>
			</g>
		</g>
		<g id="XMLID_00000141428417789471104150000006524944036580591233_">
			<g>
				<path style="fill:#FFFFFF;" d="M376.368,325.272c-0.708,1.405-1.5,2.556-2.303,3.39c-2.546,2.62-6.063,1.933-7.394-0.549
					c-0.169,0.169-0.348,0.327-0.528,0.486c-3.517,3.031-6.887,1.31-7.51-1.384c-4.616,2.419-7.024-1.31-5.852-3.993
					c0.687-1.584,2.683-7.161,2.334-11.439c0,0-2.746,2.619-5.64,2.207c-2.894-0.412-4.003-3.507-2.757-5.028
					c1.236-1.51,2.408-4.954,4.067-6.337c1.648-1.373,4.753-6.2,4.13-8.334c-3.169-1.172-3.655-4.827-2.831-6.887
					c0.834-2.07,4.003-7.489,13.509-7.024c14.185,0.687,13.984,10.055,12.263,13.837c4.89,5.239,7.161,16.466,5.989,22.941
					C382.673,323.635,380.054,327.427,376.368,325.272z"/>
			</g>
			<g>
				<path style="fill:#211F20;" d="M353.952,293.143c2.318-1.487,4.978-2.281,7.712-2.063c0.404,0.028,0.709,0.378,0.681,0.781
					c-0.025,0.373-0.324,0.654-0.681,0.683c-2.148,0.264-4.276,1.395-5.785,2.898C354.301,297.021,352.121,294.423,353.952,293.143
					L353.952,293.143z"/>
			</g>
			<g>
				<path style="fill:#211F20;" d="M376.718,295.195c-1.045-1.406-2.856-2.161-4.554-2.659c-0.393-0.107-0.624-0.513-0.517-0.905
					c0.091-0.333,0.396-0.549,0.726-0.543c1.955,0.043,4.039,0.456,5.761,1.505c0.544,0.262,1.623,1.398,2.112,1.848
					c0.87,0.833,0.9,2.213,0.067,3.083C378.661,299.25,375.823,297.371,376.718,295.195L376.718,295.195z"/>
			</g>
			<g>
				<path style="fill:none;stroke:#211F20;stroke-width:3;stroke-linecap:round;stroke-linejoin:round;stroke-miterlimit:10;" d="
					M358.634,327.215c0.623,2.693,3.992,4.415,7.51,1.384c0.18-0.159,0.359-0.317,0.528-0.486c3.095-2.957,4.13-6.781,5.112-13.773"
					/>
				<path style="fill:none;stroke:#211F20;stroke-width:3;stroke-linecap:round;stroke-linejoin:round;stroke-miterlimit:10;" d="
					M366.671,328.113c1.331,2.482,4.848,3.169,7.394,0.549c0.803-0.834,1.595-1.986,2.303-3.39c1.51-3.01,2.609-7.151,2.514-11.618"
					/>
				<path style="fill:none;stroke:#211F20;stroke-width:3;stroke-linecap:round;stroke-linejoin:round;stroke-miterlimit:10;" d="
					M376.368,325.272c3.686,2.155,6.306-1.637,7.478-8.112c1.172-6.475-1.099-17.702-5.989-22.941
					c1.722-3.781,1.922-13.15-12.263-13.837c-9.506-0.465-12.675,4.954-13.509,7.024c-0.824,2.06-0.338,5.714,2.831,6.887
					c0.623,2.134-2.482,6.961-4.13,8.334c-1.658,1.384-2.831,4.827-4.067,6.337c-1.246,1.521-0.137,4.616,2.757,5.028
					c2.894,0.412,5.64-2.207,5.64-2.207c0.349,4.278-1.648,9.855-2.334,11.439c-1.172,2.683,1.236,6.411,5.852,3.993
					c1.996-2.271,4.267-5.503,5.239-13.013"/>
			</g>
		</g>
	</g>
	<g>
		<path style="fill:#FFFFFF;" d="M178.738,131.964c-3.151,0-7.025-3.874-7.025-7.025c0-0.696-0.564-1.26-1.26-1.26
			s-1.26,0.564-1.26,1.26c0,3.151-3.874,7.025-7.025,7.025c-0.695,0-1.259,0.564-1.259,1.26s0.564,1.26,1.259,1.26
			c3.151,0,7.025,3.874,7.025,7.025c0,0.695,0.564,1.259,1.26,1.259s1.26-0.564,1.26-1.259c0-3.151,3.874-7.025,7.025-7.025
			c0.695,0,1.259-0.564,1.259-1.26S179.434,131.964,178.738,131.964z"/>
		<path style="fill:#FFC936;" d="M134.286,268.346c-3.151,0-7.025-3.874-7.025-7.025c0-0.695-0.564-1.26-1.26-1.26
			c-0.696,0-1.259,0.564-1.259,1.26c0,3.151-3.874,7.025-7.025,7.025c-0.696,0-1.26,0.564-1.26,1.26s0.564,1.26,1.26,1.26
			c3.151,0,7.025,3.874,7.025,7.025c0,0.696,0.564,1.26,1.259,1.26c0.695,0,1.26-0.564,1.26-1.26c0-3.151,3.873-7.025,7.025-7.025
			c0.695,0,1.26-0.564,1.26-1.26S134.981,268.346,134.286,268.346z"/>
		<path style="fill:#FFC936;" d="M447.61,235.149c-3.151,0-7.025-3.873-7.025-7.025c0-0.695-0.564-1.259-1.259-1.259
			s-1.26,0.564-1.26,1.259c0,3.151-3.874,7.025-7.025,7.025c-0.696,0-1.26,0.564-1.26,1.26c0,0.696,0.564,1.26,1.26,1.26
			c3.151,0,7.025,3.874,7.025,7.025c0,0.695,0.564,1.26,1.26,1.26s1.259-0.564,1.259-1.26c0-3.151,3.874-7.025,7.025-7.025
			c0.695,0,1.26-0.564,1.26-1.26C448.87,235.713,448.305,235.149,447.61,235.149z"/>
		<path style="fill:#6FCC66;" d="M380.848,235.979c-3.151,0-7.025-3.873-7.025-7.025c0-0.695-0.564-1.26-1.26-1.26
			c-0.695,0-1.26,0.564-1.26,1.26c0,3.151-3.874,7.025-7.025,7.025c-0.695,0-1.26,0.564-1.26,1.26c0,0.695,0.564,1.259,1.26,1.259
			c3.151,0,7.025,3.874,7.025,7.025c0,0.695,0.564,1.26,1.26,1.26c0.696,0,1.26-0.564,1.26-1.26c0-3.151,3.874-7.025,7.025-7.025
			c0.695,0,1.26-0.564,1.26-1.259C382.107,236.543,381.543,235.979,380.848,235.979z"/>
		<path style="fill:#6FCC66;" d="M92.879,181.024c-3.151,0-7.025-3.873-7.025-7.025c0-0.695-0.564-1.259-1.26-1.259
			c-0.696,0-1.26,0.564-1.26,1.259c0,3.151-3.874,7.025-7.025,7.025c-0.695,0-1.259,0.564-1.259,1.26c0,0.696,0.564,1.26,1.259,1.26
			c3.151,0,7.025,3.874,7.025,7.025c0,0.695,0.564,1.26,1.26,1.26c0.695,0,1.26-0.564,1.26-1.26c0-3.151,3.873-7.025,7.025-7.025
			c0.695,0,1.259-0.564,1.259-1.26C94.139,181.588,93.575,181.024,92.879,181.024z"/>
		<path style="fill:#FF8299;" d="M411.774,171.48c-3.151,0-7.025-3.874-7.025-7.025c0-0.695-0.564-1.26-1.259-1.26
			s-1.26,0.564-1.26,1.26c0,3.151-3.874,7.025-7.025,7.025c-0.695,0-1.26,0.564-1.26,1.26s0.564,1.259,1.26,1.259
			c3.151,0,7.025,3.874,7.025,7.025c0,0.696,0.564,1.26,1.26,1.26s1.259-0.564,1.259-1.26c0-3.151,3.874-7.025,7.025-7.025
			c0.695,0,1.26-0.564,1.26-1.259S412.469,171.48,411.774,171.48z"/>
	</g>
</g>
</svg>
